<?xml version="1.0" encoding="utf-8"?>
<!-- Generator: Adobe Illustrator 25.0.1, SVG Export Plug-In . SVG Version: 6.00 Build 0)  -->
<svg version="1.1" id="Layer_1" xmlns="http://www.w3.org/2000/svg" xmlns:xlink="http://www.w3.org/1999/xlink" x="0px" y="0px"
	 viewBox="0 0 825.33 70.83" style="enable-background:new 0 0 825.33 70.83;" xml:space="preserve">
<style type="text/css">
	.st0{fill:#1E1E1E;}
</style>
<g>
	<path class="st0" d="M26.35,31.61L19.33,5.77h-0.09l-7.1,25.84H7.88L0,0.86h4.18l6.03,25.58h0.09l6.89-25.58h4.44l6.8,25.58h0.09
		l6.24-25.58h4.09l-8.22,30.74H26.35z"/>
	<path class="st0" d="M44.83,16.78c0.43-1.34,1.07-2.53,1.92-3.56c0.85-1.03,1.92-1.86,3.19-2.47c1.27-0.62,2.75-0.92,4.44-0.92
		c1.69,0,3.17,0.31,4.44,0.92c1.27,0.62,2.34,1.44,3.19,2.47c0.85,1.03,1.5,2.22,1.92,3.56c0.43,1.34,0.64,2.74,0.64,4.19
		c0,1.45-0.21,2.85-0.64,4.19c-0.43,1.34-1.07,2.53-1.92,3.56c-0.85,1.03-1.92,1.85-3.19,2.46c-1.27,0.61-2.75,0.91-4.44,0.91
		c-1.69,0-3.17-0.3-4.44-0.91c-1.27-0.61-2.34-1.43-3.19-2.46c-0.85-1.03-1.5-2.22-1.92-3.56c-0.43-1.34-0.64-2.74-0.64-4.19
		C44.19,19.52,44.41,18.12,44.83,16.78z M47.44,24.14c0.28,1.04,0.72,1.98,1.31,2.82c0.6,0.83,1.36,1.51,2.3,2.01
		c0.93,0.51,2.05,0.76,3.34,0.76c1.29,0,2.4-0.25,3.34-0.76c0.93-0.51,1.7-1.18,2.3-2.01c0.6-0.83,1.03-1.77,1.31-2.82
		c0.28-1.04,0.42-2.1,0.42-3.17c0-1.07-0.14-2.13-0.42-3.17c-0.28-1.04-0.72-1.98-1.31-2.82c-0.6-0.83-1.36-1.51-2.3-2.01
		c-0.93-0.51-2.05-0.76-3.34-0.76c-1.29,0-2.4,0.25-3.34,0.76c-0.93,0.51-1.7,1.18-2.3,2.01c-0.6,0.83-1.03,1.77-1.31,2.82
		c-0.28,1.04-0.42,2.1-0.42,3.17C47.02,22.04,47.16,23.1,47.44,24.14z"/>
	<path class="st0" d="M73.44,10.32v9.15h11.21v-9.15h2.83v21.28h-2.83v-9.75H73.44v9.75H70.6V10.32H73.44z"/>
	<path class="st0" d="M97.52,10.32v18.9h11.27v2.38h-14.1V10.32H97.52z"/>
	<path class="st0" d="M117.77,10.32l6.71,17.89l6.74-17.89h3.88v21.28h-2.68V13.9h-0.06l-6.65,17.71h-2.41l-6.65-17.71h-0.06v17.71
		h-2.68V10.32H117.77z"/>
	<path class="st0" d="M151.27,10.32l8.32,21.28h-3.13l-2.33-6.41h-9l-2.38,6.41h-2.89l8.29-21.28H151.27z M153.24,22.81l-3.55-9.93
		h-0.06l-3.61,9.93H153.24z"/>
	<path class="st0" d="M177.1,13.33c-1.08-0.76-2.37-1.13-3.86-1.13c-1.27,0-2.36,0.24-3.26,0.72c-0.9,0.48-1.65,1.12-2.24,1.92
		c-0.59,0.81-1.02,1.72-1.3,2.76c-0.28,1.03-0.42,2.11-0.42,3.22c0,1.21,0.14,2.36,0.42,3.44c0.28,1.08,0.71,2.03,1.3,2.83
		c0.59,0.81,1.34,1.45,2.25,1.92c0.91,0.48,2.01,0.72,3.28,0.72c0.93,0,1.76-0.15,2.49-0.46c0.72-0.31,1.35-0.74,1.88-1.28
		c0.53-0.55,0.94-1.2,1.24-1.95c0.3-0.76,0.48-1.57,0.54-2.44h2.83c-0.28,2.68-1.2,4.77-2.77,6.26c-1.57,1.49-3.72,2.24-6.44,2.24
		c-1.65,0-3.09-0.28-4.32-0.85c-1.23-0.57-2.26-1.35-3.07-2.34c-0.82-0.99-1.43-2.17-1.83-3.52c-0.41-1.35-0.61-2.8-0.61-4.35
		c0-1.55,0.22-3.01,0.66-4.37c0.44-1.36,1.08-2.55,1.92-3.56c0.84-1.01,1.9-1.81,3.16-2.4c1.26-0.59,2.71-0.88,4.34-0.88
		c1.11,0,2.17,0.15,3.16,0.45c0.99,0.3,1.88,0.74,2.65,1.31c0.78,0.58,1.42,1.3,1.94,2.16c0.52,0.86,0.85,1.86,1.01,3h-2.83
		C178.89,15.22,178.19,14.09,177.1,13.33z"/>
	<path class="st0" d="M191.16,10.32v9.15h11.21v-9.15h2.83v21.28h-2.83v-9.75h-11.21v9.75h-2.83V10.32H191.16z"/>
	<path class="st0" d="M227.11,10.32v2.38h-11.86v6.77h11.06v2.38h-11.06v7.36h11.95v2.38h-14.79V10.32H227.11z"/>
	<path class="st0" d="M243.21,10.32c2.03,0,3.61,0.5,4.75,1.49c1.14,0.99,1.71,2.35,1.71,4.08c0,1.29-0.29,2.43-0.88,3.4
		c-0.59,0.97-1.53,1.64-2.82,2v0.06c0.62,0.12,1.12,0.32,1.51,0.6c0.39,0.28,0.7,0.61,0.92,1c0.23,0.39,0.4,0.82,0.51,1.3
		c0.11,0.48,0.19,0.97,0.25,1.49c0.04,0.52,0.07,1.04,0.09,1.58c0.02,0.54,0.07,1.06,0.15,1.58c0.08,0.52,0.19,1.01,0.34,1.48
		c0.15,0.47,0.37,0.88,0.67,1.24h-3.16c-0.2-0.22-0.33-0.52-0.4-0.89c-0.07-0.38-0.11-0.8-0.13-1.27c-0.02-0.47-0.04-0.97-0.06-1.51
		c-0.02-0.54-0.08-1.06-0.18-1.58c-0.08-0.52-0.18-1.01-0.3-1.48c-0.12-0.47-0.31-0.87-0.57-1.22c-0.26-0.35-0.6-0.63-1.01-0.83
		c-0.42-0.21-0.97-0.31-1.67-0.31h-6.92v9.09h-2.83V10.32H243.21z M243.8,19.98c0.6-0.1,1.12-0.29,1.57-0.58
		c0.45-0.29,0.8-0.68,1.07-1.16c0.27-0.49,0.4-1.12,0.4-1.89c0-1.07-0.3-1.95-0.89-2.62c-0.6-0.68-1.56-1.01-2.89-1.01h-7.04v7.42
		h5.9C242.58,20.13,243.21,20.08,243.8,19.98z"/>
	<path class="st0" d="M276.97,0.86v15.33l15.59-15.33h5.3l-12.96,12.4l13.48,18.34h-5.17L282.1,16.06l-5.12,4.78v10.76h-4.09V0.86
		H276.97z"/>
	<path class="st0" d="M313.18,10.32l8.32,21.28h-3.13l-2.33-6.41h-9l-2.38,6.41h-2.89l8.29-21.28H313.18z M315.15,22.81l-3.55-9.93
		h-0.06l-3.61,9.93H315.15z"/>
	<path class="st0" d="M329.1,10.32v21.28h-2.83V10.32H329.1z"/>
	<path class="st0" d="M347.09,13.23c-0.94-0.69-2.15-1.03-3.62-1.03c-0.6,0-1.18,0.06-1.76,0.18c-0.58,0.12-1.09,0.32-1.54,0.6
		c-0.45,0.28-0.81,0.65-1.07,1.12c-0.27,0.47-0.4,1.05-0.4,1.74c0,0.66,0.19,1.19,0.58,1.59c0.39,0.41,0.9,0.74,1.55,1
		c0.65,0.26,1.38,0.47,2.19,0.64c0.81,0.17,1.64,0.35,2.49,0.55c0.84,0.2,1.67,0.43,2.49,0.7c0.81,0.27,1.54,0.63,2.19,1.09
		c0.65,0.46,1.16,1.03,1.55,1.73c0.39,0.7,0.58,1.57,0.58,2.62c0,1.13-0.25,2.1-0.76,2.91c-0.51,0.8-1.16,1.46-1.95,1.97
		c-0.8,0.51-1.68,0.87-2.67,1.1c-0.98,0.23-1.96,0.34-2.94,0.34c-1.19,0-2.32-0.15-3.38-0.45c-1.06-0.3-2-0.75-2.8-1.36
		c-0.81-0.61-1.44-1.38-1.91-2.33c-0.47-0.94-0.7-2.06-0.7-3.35h2.68c0,0.89,0.17,1.66,0.52,2.31c0.35,0.65,0.8,1.18,1.37,1.59
		s1.23,0.73,1.98,0.92c0.75,0.2,1.53,0.3,2.33,0.3c0.64,0,1.28-0.06,1.92-0.18s1.23-0.32,1.74-0.61c0.52-0.29,0.93-0.68,1.25-1.18
		c0.32-0.5,0.48-1.13,0.48-1.91c0-0.73-0.19-1.33-0.58-1.79c-0.39-0.46-0.9-0.83-1.55-1.12c-0.65-0.29-1.38-0.52-2.19-0.7
		c-0.82-0.18-1.64-0.36-2.49-0.55c-0.85-0.19-1.67-0.41-2.49-0.66c-0.82-0.25-1.55-0.58-2.19-0.98c-0.65-0.41-1.16-0.93-1.55-1.58
		c-0.39-0.65-0.58-1.46-0.58-2.43c0-1.07,0.22-2,0.66-2.79c0.44-0.78,1.02-1.43,1.74-1.94c0.73-0.51,1.55-0.88,2.47-1.13
		c0.92-0.25,1.87-0.37,2.85-0.37c1.09,0,2.11,0.13,3.04,0.39c0.93,0.26,1.75,0.67,2.46,1.22c0.71,0.56,1.26,1.26,1.67,2.1
		c0.41,0.85,0.63,1.85,0.67,3.03h-2.68C348.59,15.02,348.04,13.92,347.09,13.23z"/>
	<path class="st0" d="M373.01,10.32v2.38h-11.86v6.77h11.06v2.38h-11.06v7.36h11.95v2.38h-14.79V10.32H373.01z"/>
	<path class="st0" d="M389.11,10.32c2.03,0,3.61,0.5,4.75,1.49c1.14,0.99,1.71,2.35,1.71,4.08c0,1.29-0.29,2.43-0.88,3.4
		c-0.59,0.97-1.53,1.64-2.82,2v0.06c0.62,0.12,1.12,0.32,1.51,0.6c0.39,0.28,0.7,0.61,0.92,1c0.23,0.39,0.4,0.82,0.51,1.3
		c0.11,0.48,0.19,0.97,0.25,1.49c0.04,0.52,0.07,1.04,0.09,1.58c0.02,0.54,0.07,1.06,0.15,1.58c0.08,0.52,0.19,1.01,0.34,1.48
		c0.15,0.47,0.37,0.88,0.67,1.24h-3.16c-0.2-0.22-0.33-0.52-0.4-0.89c-0.07-0.38-0.11-0.8-0.13-1.27c-0.02-0.47-0.04-0.97-0.06-1.51
		c-0.02-0.54-0.08-1.06-0.18-1.58c-0.08-0.52-0.18-1.01-0.3-1.48c-0.12-0.47-0.31-0.87-0.57-1.22c-0.26-0.35-0.6-0.63-1.01-0.83
		c-0.42-0.21-0.97-0.31-1.67-0.31h-6.92v9.09h-2.83V10.32H389.11z M389.71,19.98c0.6-0.1,1.12-0.29,1.57-0.58
		c0.45-0.29,0.8-0.68,1.07-1.16c0.27-0.49,0.4-1.12,0.4-1.89c0-1.07-0.3-1.95-0.89-2.62c-0.6-0.68-1.56-1.01-2.89-1.01h-7.04v7.42
		h5.9C388.48,20.13,389.11,20.08,389.71,19.98z"/>
	<path class="st0" d="M429.94,0.86c0.66,0,1.37,0.01,2.13,0.02c0.76,0.01,1.51,0.06,2.26,0.13c0.75,0.07,1.44,0.18,2.09,0.32
		c0.65,0.14,1.2,0.36,1.66,0.65c1,0.6,1.86,1.44,2.56,2.5c0.7,1.06,1.06,2.37,1.06,3.92c0,1.64-0.4,3.05-1.18,4.24
		c-0.79,1.19-1.92,2.07-3.38,2.65v0.09c1.89,0.4,3.34,1.26,4.35,2.58c1,1.32,1.51,2.93,1.51,4.82c0,1.12-0.2,2.21-0.6,3.27
		c-0.4,1.06-1,2-1.79,2.82c-0.79,0.82-1.77,1.48-2.93,1.98c-1.16,0.5-2.5,0.75-4.03,0.75h-14.86V0.86H429.94z M431.06,14.08
		c2.32,0,4-0.41,5.02-1.23c1.02-0.82,1.53-2.05,1.53-3.68c0-1.09-0.17-1.95-0.52-2.58c-0.34-0.63-0.82-1.12-1.42-1.46
		c-0.6-0.34-1.3-0.57-2.09-0.67c-0.79-0.1-1.63-0.15-2.52-0.15h-8.18v9.77H431.06z M433.12,28.16c1.81,0,3.22-0.49,4.24-1.46
		c1.02-0.98,1.53-2.32,1.53-4.05c0-1-0.19-1.84-0.56-2.5c-0.37-0.66-0.87-1.18-1.49-1.57c-0.62-0.39-1.33-0.66-2.13-0.82
		c-0.8-0.16-1.64-0.24-2.5-0.24h-9.34v10.64H433.12z"/>
	<path class="st0" d="M465.65,10.32v2.38h-11.86v6.77h11.06v2.38h-11.06v7.36h11.95v2.38h-14.79V10.32H465.65z"/>
	<path class="st0" d="M484.59,13.33c-1.08-0.76-2.37-1.13-3.86-1.13c-1.27,0-2.36,0.24-3.26,0.72c-0.9,0.48-1.65,1.12-2.24,1.92
		c-0.59,0.81-1.02,1.72-1.3,2.76c-0.28,1.03-0.42,2.11-0.42,3.22c0,1.21,0.14,2.36,0.42,3.44c0.28,1.08,0.71,2.03,1.3,2.83
		c0.59,0.81,1.34,1.45,2.25,1.92c0.91,0.48,2.01,0.72,3.28,0.72c0.93,0,1.76-0.15,2.49-0.46c0.73-0.31,1.35-0.74,1.88-1.28
		c0.53-0.55,0.94-1.2,1.24-1.95c0.3-0.76,0.48-1.57,0.54-2.44h2.83c-0.28,2.68-1.2,4.77-2.77,6.26c-1.57,1.49-3.72,2.24-6.44,2.24
		c-1.65,0-3.09-0.28-4.32-0.85c-1.23-0.57-2.26-1.35-3.07-2.34c-0.82-0.99-1.43-2.17-1.83-3.52c-0.41-1.35-0.61-2.8-0.61-4.35
		c0-1.55,0.22-3.01,0.66-4.37c0.44-1.36,1.08-2.55,1.92-3.56c0.84-1.01,1.9-1.81,3.16-2.4c1.26-0.59,2.71-0.88,4.34-0.88
		c1.11,0,2.17,0.15,3.16,0.45c0.99,0.3,1.88,0.74,2.65,1.31c0.77,0.58,1.42,1.3,1.94,2.16c0.52,0.86,0.85,1.86,1.01,3h-2.83
		C486.37,15.22,485.67,14.09,484.59,13.33z"/>
	<path class="st0" d="M498.65,10.32v10.61l10.79-10.61h3.67l-8.97,8.59l9.33,12.7h-3.58l-7.69-10.76l-3.55,3.31v7.45h-2.83V10.32
		H498.65z"/>
	<path class="st0" d="M532.96,10.32v2.38h-11.86v6.77h11.06v2.38h-11.06v7.36h11.95v2.38h-14.79V10.32H532.96z"/>
	<path class="st0" d="M549.06,10.32c2.03,0,3.61,0.5,4.75,1.49c1.14,0.99,1.71,2.35,1.71,4.08c0,1.29-0.29,2.43-0.88,3.4
		c-0.59,0.97-1.53,1.64-2.82,2v0.06c0.62,0.12,1.12,0.32,1.51,0.6c0.39,0.28,0.7,0.61,0.92,1c0.23,0.39,0.4,0.82,0.51,1.3
		c0.11,0.48,0.19,0.97,0.25,1.49c0.04,0.52,0.07,1.04,0.09,1.58c0.02,0.54,0.07,1.06,0.15,1.58s0.19,1.01,0.34,1.48
		c0.15,0.47,0.37,0.88,0.67,1.24h-3.16c-0.2-0.22-0.33-0.52-0.4-0.89c-0.07-0.38-0.11-0.8-0.13-1.27c-0.02-0.47-0.04-0.97-0.06-1.51
		c-0.02-0.54-0.08-1.06-0.18-1.58c-0.08-0.52-0.18-1.01-0.3-1.48c-0.12-0.47-0.31-0.87-0.57-1.22c-0.26-0.35-0.6-0.63-1.01-0.83
		c-0.42-0.21-0.97-0.31-1.67-0.31h-6.92v9.09h-2.83V10.32H549.06z M549.65,19.98c0.6-0.1,1.12-0.29,1.56-0.58
		c0.45-0.29,0.81-0.68,1.07-1.16c0.27-0.49,0.4-1.12,0.4-1.89c0-1.07-0.3-1.95-0.89-2.62c-0.6-0.68-1.56-1.01-2.89-1.01h-7.04v7.42
		h5.9C548.43,20.13,549.06,20.08,549.65,19.98z"/>
	<path class="st0" d="M584.41,0.86l9.69,25.84l9.73-25.84h5.6v30.74h-3.88V6.03h-0.09l-9.6,25.58h-3.49l-9.6-25.58h-0.09v25.58
		h-3.88V0.86H584.41z"/>
	<path class="st0" d="M618.35,16.78c0.43-1.34,1.07-2.53,1.92-3.56c0.85-1.03,1.92-1.86,3.19-2.47c1.27-0.62,2.75-0.92,4.44-0.92
		c1.69,0,3.17,0.31,4.44,0.92c1.27,0.62,2.34,1.44,3.19,2.47c0.85,1.03,1.49,2.22,1.92,3.56c0.43,1.34,0.64,2.74,0.64,4.19
		c0,1.45-0.21,2.85-0.64,4.19c-0.43,1.34-1.07,2.53-1.92,3.56c-0.85,1.03-1.92,1.85-3.19,2.46s-2.75,0.91-4.44,0.91
		c-1.69,0-3.17-0.3-4.44-0.91c-1.27-0.61-2.34-1.43-3.19-2.46c-0.85-1.03-1.5-2.22-1.92-3.56c-0.43-1.34-0.64-2.74-0.64-4.19
		C617.71,19.52,617.93,18.12,618.35,16.78z M620.96,24.14c0.28,1.04,0.72,1.98,1.31,2.82c0.6,0.83,1.36,1.51,2.3,2.01
		c0.93,0.51,2.05,0.76,3.34,0.76c1.29,0,2.4-0.25,3.34-0.76s1.7-1.18,2.3-2.01c0.6-0.83,1.03-1.77,1.31-2.82
		c0.28-1.04,0.42-2.1,0.42-3.17c0-1.07-0.14-2.13-0.42-3.17c-0.28-1.04-0.72-1.98-1.31-2.82c-0.6-0.83-1.36-1.51-2.3-2.01
		c-0.93-0.51-2.05-0.76-3.34-0.76c-1.29,0-2.4,0.25-3.34,0.76c-0.93,0.51-1.7,1.18-2.3,2.01c-0.6,0.83-1.03,1.77-1.31,2.82
		c-0.28,1.04-0.42,2.1-0.42,3.17C620.55,22.04,620.68,23.1,620.96,24.14z"/>
	<path class="st0" d="M646.96,10.32v9.15h11.21v-9.15H661v21.28h-2.83v-9.75h-11.21v9.75h-2.83V10.32H646.96z"/>
	<path class="st0" d="M678.23,10.32c2.03,0,3.61,0.5,4.75,1.49c1.14,0.99,1.71,2.35,1.71,4.08c0,1.29-0.29,2.43-0.88,3.4
		c-0.59,0.97-1.53,1.64-2.82,2v0.06c0.62,0.12,1.12,0.32,1.51,0.6c0.39,0.28,0.7,0.61,0.92,1c0.23,0.39,0.4,0.82,0.51,1.3
		c0.11,0.48,0.19,0.97,0.25,1.49c0.04,0.52,0.07,1.04,0.09,1.58c0.02,0.54,0.07,1.06,0.15,1.58c0.08,0.52,0.19,1.01,0.34,1.48
		c0.15,0.47,0.37,0.88,0.67,1.24h-3.16c-0.2-0.22-0.33-0.52-0.4-0.89c-0.07-0.38-0.11-0.8-0.13-1.27c-0.02-0.47-0.04-0.97-0.06-1.51
		c-0.02-0.54-0.08-1.06-0.18-1.58c-0.08-0.52-0.18-1.01-0.3-1.48c-0.12-0.47-0.31-0.87-0.57-1.22c-0.26-0.35-0.6-0.63-1.01-0.83
		c-0.42-0.21-0.97-0.31-1.67-0.31h-6.92v9.09h-2.83V10.32H678.23z M678.82,19.98c0.6-0.1,1.12-0.29,1.56-0.58
		c0.45-0.29,0.81-0.68,1.07-1.16c0.27-0.49,0.4-1.12,0.4-1.89c0-1.07-0.3-1.95-0.89-2.62c-0.6-0.68-1.56-1.01-2.89-1.01h-7.04v7.42
		h5.9C677.6,20.13,678.23,20.08,678.82,19.98z"/>
	<path class="st0" d="M700.1,21.07v2.65h-9.57v-2.65H700.1z"/>
	<path class="st0" d="M729.19,0.86v3.44h-17.14v9.77h15.98v3.44h-15.98v10.64h17.27v3.44h-21.36V0.86H729.19z"/>
	<path class="st0" d="M749.76,31.35c-1.23,0.49-2.47,0.73-3.73,0.73c-1.59,0-3.01-0.29-4.26-0.88c-1.25-0.59-2.32-1.38-3.19-2.37
		c-0.87-0.99-1.54-2.14-2-3.43c-0.46-1.29-0.69-2.63-0.69-4.02c0-1.55,0.21-3.03,0.64-4.43c0.43-1.4,1.06-2.63,1.91-3.68
		c0.84-1.05,1.9-1.89,3.16-2.52c1.26-0.63,2.74-0.94,4.43-0.94c1.15,0,2.24,0.13,3.26,0.4c1.02,0.27,1.94,0.69,2.74,1.27
		c0.8,0.58,1.48,1.31,2.03,2.19c0.55,0.88,0.92,1.95,1.12,3.2h-2.83c-0.14-0.81-0.4-1.52-0.77-2.1c-0.38-0.59-0.85-1.07-1.4-1.45
		c-0.56-0.38-1.19-0.66-1.89-0.85c-0.71-0.19-1.46-0.28-2.25-0.28c-1.29,0-2.4,0.26-3.32,0.78c-0.92,0.52-1.68,1.2-2.27,2.04
		c-0.59,0.85-1.02,1.81-1.3,2.89c-0.28,1.08-0.42,2.19-0.42,3.32c0,1.11,0.16,2.18,0.48,3.2c0.32,1.02,0.79,1.93,1.4,2.71
		c0.62,0.79,1.38,1.41,2.28,1.88c0.9,0.47,1.95,0.7,3.14,0.7c1.11,0,2.1-0.18,2.95-0.54c0.85-0.36,1.58-0.85,2.16-1.48
		c0.59-0.63,1.03-1.36,1.33-2.21c0.3-0.84,0.43-1.75,0.39-2.73h-6.8V20.4h9.33v11.21h-1.79l-0.74-2.65
		C752.03,30.07,750.99,30.87,749.76,31.35z"/>
	<path class="st0" d="M774.95,31.35c-1.23,0.49-2.47,0.73-3.73,0.73c-1.59,0-3.01-0.29-4.26-0.88c-1.25-0.59-2.32-1.38-3.19-2.37
		c-0.88-0.99-1.54-2.14-2-3.43c-0.46-1.29-0.69-2.63-0.69-4.02c0-1.55,0.21-3.03,0.64-4.43c0.43-1.4,1.06-2.63,1.91-3.68
		c0.84-1.05,1.9-1.89,3.16-2.52c1.26-0.63,2.74-0.94,4.43-0.94c1.15,0,2.24,0.13,3.26,0.4c1.02,0.27,1.94,0.69,2.74,1.27
		c0.8,0.58,1.48,1.31,2.03,2.19c0.55,0.88,0.92,1.95,1.12,3.2h-2.83c-0.14-0.81-0.4-1.52-0.77-2.1c-0.38-0.59-0.85-1.07-1.4-1.45
		c-0.56-0.38-1.19-0.66-1.89-0.85c-0.71-0.19-1.46-0.28-2.25-0.28c-1.29,0-2.4,0.26-3.32,0.78c-0.92,0.52-1.68,1.2-2.27,2.04
		c-0.59,0.85-1.02,1.81-1.3,2.89c-0.28,1.08-0.42,2.19-0.42,3.32c0,1.11,0.16,2.18,0.48,3.2c0.32,1.02,0.79,1.93,1.4,2.71
		c0.62,0.79,1.38,1.41,2.28,1.88c0.9,0.47,1.95,0.7,3.14,0.7c1.11,0,2.1-0.18,2.95-0.54c0.85-0.36,1.58-0.85,2.16-1.48
		c0.59-0.63,1.03-1.36,1.33-2.21c0.3-0.84,0.43-1.75,0.39-2.73h-6.8V20.4h9.33v11.21h-1.79l-0.74-2.65
		C777.21,30.07,776.18,30.87,774.95,31.35z"/>
	<path class="st0" d="M802.02,10.32v2.38h-11.86v6.77h11.06v2.38h-11.06v7.36h11.95v2.38h-14.79V10.32H802.02z"/>
	<path class="st0" d="M818.11,10.32c2.03,0,3.61,0.5,4.75,1.49c1.14,0.99,1.71,2.35,1.71,4.08c0,1.29-0.29,2.43-0.88,3.4
		c-0.59,0.97-1.53,1.64-2.82,2v0.06c0.62,0.12,1.12,0.32,1.51,0.6c0.39,0.28,0.7,0.61,0.92,1c0.23,0.39,0.4,0.82,0.51,1.3
		c0.11,0.48,0.19,0.97,0.25,1.49c0.04,0.52,0.07,1.04,0.09,1.58c0.02,0.54,0.07,1.06,0.15,1.58c0.08,0.52,0.19,1.01,0.34,1.48
		c0.15,0.47,0.37,0.88,0.67,1.24h-3.16c-0.2-0.22-0.33-0.52-0.4-0.89c-0.07-0.38-0.11-0.8-0.13-1.27c-0.02-0.47-0.04-0.97-0.06-1.51
		c-0.02-0.54-0.08-1.06-0.18-1.58c-0.08-0.52-0.18-1.01-0.3-1.48c-0.12-0.47-0.31-0.87-0.57-1.22c-0.26-0.35-0.6-0.63-1.01-0.83
		c-0.42-0.21-0.97-0.31-1.67-0.31h-6.92v9.09h-2.83V10.32H818.11z M818.71,19.98c0.6-0.1,1.12-0.29,1.56-0.58
		c0.45-0.29,0.81-0.68,1.07-1.16c0.27-0.49,0.4-1.12,0.4-1.89c0-1.07-0.3-1.95-0.89-2.62c-0.6-0.68-1.56-1.01-2.89-1.01h-7.04v7.42
		h5.9C817.49,20.13,818.11,20.08,818.71,19.98z"/>
</g>
<g>
	<path class="st0" d="M179.26,48.77c1.97,0,3.51,0.48,4.62,1.45c1.11,0.97,1.67,2.29,1.67,3.97c0,1.26-0.29,2.36-0.85,3.3
		c-0.57,0.95-1.48,1.59-2.74,1.94v0.06c0.6,0.12,1.09,0.31,1.46,0.58c0.38,0.27,0.68,0.59,0.9,0.97c0.22,0.38,0.39,0.8,0.49,1.26
		c0.11,0.46,0.19,0.95,0.25,1.45c0.04,0.5,0.07,1.01,0.09,1.54c0.02,0.52,0.07,1.03,0.14,1.54c0.08,0.5,0.19,0.98,0.33,1.43
		c0.15,0.45,0.36,0.85,0.65,1.2h-3.07c-0.19-0.21-0.32-0.5-0.39-0.87c-0.07-0.37-0.11-0.78-0.13-1.23
		c-0.02-0.45-0.04-0.94-0.06-1.46c-0.02-0.52-0.08-1.03-0.17-1.54c-0.08-0.5-0.17-0.98-0.29-1.43c-0.12-0.45-0.3-0.85-0.55-1.19
		c-0.25-0.34-0.58-0.61-0.99-0.81c-0.41-0.2-0.95-0.3-1.62-0.3h-6.72v8.84h-2.75V48.77H179.26z M179.83,58.16
		c0.58-0.1,1.09-0.29,1.52-0.57c0.44-0.28,0.78-0.66,1.04-1.13s0.39-1.09,0.39-1.84c0-1.04-0.29-1.89-0.87-2.55
		c-0.58-0.66-1.52-0.99-2.81-0.99h-6.84v7.22h5.74C178.65,58.31,179.26,58.26,179.83,58.16z"/>
	<path class="st0" d="M201.69,56.46v1.46h-7.25v4.14h6.76v1.46h-6.76v4.5h7.31v1.46h-9.04V56.46H201.69z"/>
	<path class="st0" d="M214.32,58.3c-0.66-0.46-1.45-0.69-2.36-0.69c-0.78,0-1.44,0.15-1.99,0.44c-0.55,0.29-1.01,0.68-1.37,1.17
		c-0.36,0.49-0.62,1.05-0.79,1.69c-0.17,0.63-0.26,1.29-0.26,1.97c0,0.74,0.08,1.44,0.26,2.1c0.17,0.66,0.43,1.24,0.79,1.73
		c0.36,0.49,0.82,0.88,1.38,1.17c0.56,0.29,1.23,0.44,2,0.44c0.57,0,1.08-0.09,1.52-0.28c0.44-0.19,0.83-0.45,1.15-0.78
		c0.32-0.33,0.57-0.73,0.76-1.19c0.18-0.46,0.29-0.96,0.33-1.49h1.73c-0.17,1.64-0.74,2.92-1.69,3.83
		c-0.96,0.91-2.27,1.37-3.93,1.37c-1.01,0-1.89-0.17-2.64-0.52c-0.75-0.35-1.38-0.82-1.88-1.43c-0.5-0.61-0.87-1.32-1.12-2.15
		c-0.25-0.83-0.37-1.71-0.37-2.66c0-0.95,0.13-1.84,0.4-2.67c0.27-0.83,0.66-1.56,1.18-2.18c0.52-0.62,1.16-1.11,1.93-1.47
		c0.77-0.36,1.65-0.54,2.65-0.54c0.68,0,1.32,0.09,1.93,0.27c0.61,0.18,1.15,0.45,1.62,0.8c0.47,0.35,0.87,0.79,1.18,1.32
		c0.32,0.53,0.52,1.14,0.62,1.83h-1.73C215.41,59.45,214.98,58.76,214.32,58.3z"/>
	<path class="st0" d="M223.96,56.46v5.59h6.85v-5.59h1.73v13.01h-1.73v-5.96h-6.85v5.96h-1.73V56.46H223.96z"/>
	<path class="st0" d="M236.63,57.91v-1.46h10.4v1.46h-4.34v11.55h-1.73V57.91H236.63z"/>
	<path class="st0" d="M257.6,58.23c-0.58-0.42-1.31-0.63-2.21-0.63c-0.36,0-0.72,0.04-1.08,0.11c-0.35,0.07-0.66,0.19-0.94,0.36
		c-0.27,0.17-0.49,0.4-0.66,0.68c-0.16,0.29-0.25,0.64-0.25,1.07c0,0.4,0.12,0.73,0.36,0.97c0.24,0.25,0.55,0.45,0.95,0.61
		c0.39,0.16,0.84,0.29,1.34,0.39c0.5,0.1,1,0.22,1.52,0.34c0.52,0.12,1.02,0.26,1.52,0.43c0.5,0.16,0.94,0.39,1.34,0.67
		c0.39,0.28,0.71,0.63,0.95,1.06c0.24,0.43,0.35,0.96,0.35,1.6c0,0.69-0.15,1.28-0.46,1.78s-0.71,0.89-1.19,1.2
		c-0.49,0.31-1.03,0.53-1.63,0.67c-0.6,0.14-1.2,0.21-1.79,0.21c-0.73,0-1.42-0.09-2.07-0.27c-0.65-0.18-1.22-0.46-1.71-0.83
		c-0.49-0.37-0.88-0.84-1.17-1.42c-0.29-0.58-0.43-1.26-0.43-2.05h1.64c0,0.55,0.11,1.02,0.32,1.41c0.21,0.39,0.49,0.72,0.84,0.97
		c0.35,0.26,0.75,0.44,1.21,0.57c0.46,0.12,0.94,0.18,1.42,0.18c0.39,0,0.78-0.04,1.17-0.11c0.39-0.07,0.75-0.2,1.07-0.37
		c0.32-0.18,0.57-0.42,0.76-0.72c0.19-0.3,0.29-0.69,0.29-1.17c0-0.45-0.12-0.81-0.36-1.09c-0.24-0.28-0.55-0.51-0.95-0.68
		c-0.39-0.18-0.84-0.32-1.34-0.43c-0.5-0.11-1.01-0.22-1.52-0.34c-0.52-0.12-1.02-0.25-1.52-0.4c-0.5-0.15-0.94-0.35-1.34-0.6
		c-0.4-0.25-0.71-0.57-0.95-0.97c-0.24-0.39-0.36-0.89-0.36-1.48c0-0.66,0.13-1.22,0.4-1.7c0.27-0.48,0.62-0.87,1.07-1.18
		c0.44-0.31,0.95-0.54,1.51-0.69c0.56-0.15,1.14-0.23,1.74-0.23c0.67,0,1.29,0.08,1.86,0.24c0.57,0.16,1.07,0.41,1.5,0.75
		c0.43,0.34,0.77,0.77,1.02,1.28c0.25,0.52,0.39,1.13,0.41,1.85h-1.64C258.52,59.33,258.18,58.65,257.6,58.23z"/>
	<path class="st0" d="M270.97,56.46l5.08,13.01h-1.91l-1.42-3.92h-5.5l-1.46,3.92h-1.77l5.06-13.01H270.97z M272.17,64.09L270,58.02
		h-0.04l-2.2,6.07H272.17z"/>
	<path class="st0" d="M281.77,56.46L288.62,67h0.04V56.46h1.64v13.01h-1.89l-6.8-10.44h-0.04v10.44h-1.64V56.46H281.77z"/>
	<path class="st0" d="M305.67,69.46l-2.97-10.93h-0.04l-3.01,10.93h-1.8l-3.33-13.01h1.77l2.55,10.82h0.04l2.91-10.82h1.88
		l2.88,10.82h0.04l2.64-10.82h1.73l-3.48,13.01H305.67z"/>
	<path class="st0" d="M320.66,56.46l5.08,13.01h-1.91l-1.42-3.92h-5.5l-1.46,3.92h-1.77l5.06-13.01H320.66z M318.8,53.56v1.89h-1.64
		v-1.89H318.8z M321.87,64.09l-2.17-6.07h-0.04l-2.2,6.07H321.87z M322.23,53.56v1.89h-1.64v-1.89H322.23z"/>
	<path class="st0" d="M331.38,56.46v11.55h6.89v1.46h-8.62V56.46H331.38z"/>
	<path class="st0" d="M339.34,57.91v-1.46h10.4v1.46h-4.34v11.55h-1.73V57.91H339.34z"/>
	<path class="st0" d="M362.78,56.46v1.46h-7.25v4.14h6.76v1.46h-6.76v4.5h7.31v1.46h-9.04V56.46H362.78z"/>
	<path class="st0" d="M390.41,60.25v2.32h-14.49v-2.32H390.41z"/>
	<path class="st0" d="M420.89,48.77l8.09,20.69h-3.04l-2.26-6.23h-8.75l-2.32,6.23h-2.81l8.06-20.69H420.89z M422.8,60.91
		l-3.45-9.65h-0.06l-3.51,9.65H422.8z"/>
	<path class="st0" d="M432.95,57.91v-1.46h10.4v1.46h-4.34v11.55h-1.73V57.91H432.95z"/>
	<path class="st0" d="M446.03,57.91v-1.46h10.4v1.46h-4.34v11.55h-1.73V57.91H446.03z"/>
	<path class="st0" d="M460.16,60.4c0.26-0.82,0.65-1.55,1.17-2.18c0.52-0.63,1.17-1.14,1.95-1.51c0.78-0.38,1.68-0.56,2.71-0.56
		c1.03,0,1.94,0.19,2.71,0.56s1.43,0.88,1.95,1.51c0.52,0.63,0.91,1.36,1.18,2.18c0.26,0.82,0.39,1.67,0.39,2.56
		c0,0.89-0.13,1.74-0.39,2.56c-0.26,0.82-0.65,1.55-1.18,2.18c-0.52,0.63-1.17,1.13-1.95,1.5s-1.68,0.56-2.71,0.56
		c-1.03,0-1.94-0.19-2.71-0.56c-0.78-0.37-1.43-0.87-1.95-1.5c-0.52-0.63-0.91-1.36-1.17-2.18c-0.26-0.82-0.39-1.67-0.39-2.56
		C459.77,62.07,459.9,61.22,460.16,60.4z M461.75,64.9c0.17,0.64,0.44,1.21,0.8,1.72c0.36,0.51,0.83,0.92,1.4,1.23
		c0.57,0.31,1.25,0.46,2.04,0.46s1.47-0.16,2.04-0.46c0.57-0.31,1.04-0.72,1.4-1.23c0.36-0.51,0.63-1.08,0.8-1.72
		c0.17-0.64,0.26-1.28,0.26-1.94c0-0.66-0.08-1.3-0.26-1.94c-0.17-0.64-0.44-1.21-0.8-1.72c-0.36-0.51-0.83-0.92-1.4-1.23
		c-0.57-0.31-1.25-0.46-2.04-0.46s-1.47,0.15-2.04,0.46c-0.57,0.31-1.04,0.72-1.4,1.23c-0.36,0.51-0.63,1.08-0.8,1.72
		c-0.17,0.64-0.25,1.28-0.25,1.94C461.5,63.62,461.58,64.26,461.75,64.9z"/>
	<path class="st0" d="M483.08,56.46c1.24,0,2.21,0.3,2.91,0.91c0.7,0.61,1.05,1.44,1.05,2.5c0,0.79-0.18,1.48-0.54,2.08
		c-0.36,0.6-0.93,1-1.72,1.22v0.04c0.38,0.07,0.68,0.19,0.92,0.36c0.24,0.17,0.43,0.37,0.56,0.61c0.14,0.24,0.24,0.5,0.31,0.79
		c0.07,0.29,0.12,0.6,0.16,0.91c0.02,0.32,0.04,0.64,0.05,0.97c0.01,0.33,0.04,0.65,0.09,0.97c0.05,0.32,0.12,0.62,0.21,0.9
		c0.09,0.29,0.23,0.54,0.41,0.76h-1.93c-0.12-0.13-0.2-0.32-0.25-0.55c-0.04-0.23-0.07-0.49-0.08-0.77
		c-0.01-0.29-0.03-0.59-0.04-0.92c-0.01-0.33-0.05-0.65-0.11-0.97c-0.05-0.32-0.11-0.62-0.18-0.9s-0.19-0.53-0.35-0.75
		c-0.16-0.21-0.36-0.38-0.62-0.51c-0.25-0.13-0.6-0.19-1.02-0.19h-4.23v5.56h-1.73V56.46H483.08z M483.45,62.36
		c0.36-0.06,0.68-0.18,0.96-0.36c0.27-0.18,0.49-0.41,0.66-0.71c0.16-0.3,0.25-0.68,0.25-1.16c0-0.66-0.18-1.19-0.55-1.6
		c-0.36-0.41-0.95-0.62-1.77-0.62h-4.3v4.54h3.61C482.7,62.45,483.08,62.42,483.45,62.36z"/>
	<path class="st0" d="M493.89,56.46L500.74,67h0.04V56.46h1.64v13.01h-1.89l-6.8-10.44h-0.04v10.44h-1.64V56.46H493.89z"/>
	<path class="st0" d="M516.82,56.46v1.46h-7.25v4.14h6.76v1.46h-6.76v4.5h7.3v1.46h-9.04V56.46H516.82z"/>
	<path class="st0" d="M526.97,69.46h-1.73v-5.32l-5.03-7.69h2.06l3.9,6.19l3.81-6.19h1.97l-4.97,7.69V69.46z"/>
	<path class="st0" d="M542.54,58.23c-0.58-0.42-1.31-0.63-2.21-0.63c-0.36,0-0.72,0.04-1.08,0.11c-0.35,0.07-0.66,0.19-0.94,0.36
		c-0.27,0.17-0.49,0.4-0.66,0.68c-0.16,0.29-0.25,0.64-0.25,1.07c0,0.4,0.12,0.73,0.35,0.97c0.24,0.25,0.55,0.45,0.95,0.61
		c0.39,0.16,0.84,0.29,1.34,0.39c0.5,0.1,1,0.22,1.52,0.34c0.52,0.12,1.02,0.26,1.52,0.43c0.5,0.16,0.94,0.39,1.34,0.67
		c0.39,0.28,0.71,0.63,0.95,1.06c0.24,0.43,0.35,0.96,0.35,1.6c0,0.69-0.15,1.28-0.46,1.78c-0.31,0.49-0.71,0.89-1.19,1.2
		c-0.49,0.31-1.03,0.53-1.63,0.67c-0.6,0.14-1.2,0.21-1.79,0.21c-0.73,0-1.42-0.09-2.07-0.27c-0.65-0.18-1.22-0.46-1.71-0.83
		c-0.49-0.37-0.88-0.84-1.17-1.42c-0.29-0.58-0.43-1.26-0.43-2.05h1.64c0,0.55,0.11,1.02,0.32,1.41c0.21,0.39,0.49,0.72,0.84,0.97
		c0.35,0.26,0.75,0.44,1.21,0.57c0.46,0.12,0.94,0.18,1.42,0.18c0.39,0,0.78-0.04,1.17-0.11c0.39-0.07,0.75-0.2,1.07-0.37
		c0.32-0.18,0.57-0.42,0.77-0.72c0.19-0.3,0.29-0.69,0.29-1.17c0-0.45-0.12-0.81-0.36-1.09c-0.24-0.28-0.55-0.51-0.95-0.68
		c-0.39-0.18-0.84-0.32-1.34-0.43c-0.5-0.11-1.01-0.22-1.52-0.34c-0.52-0.12-1.02-0.25-1.52-0.4c-0.5-0.15-0.94-0.35-1.34-0.6
		c-0.4-0.25-0.71-0.57-0.95-0.97c-0.24-0.39-0.35-0.89-0.35-1.48c0-0.66,0.13-1.22,0.4-1.7c0.27-0.48,0.62-0.87,1.07-1.18
		c0.44-0.31,0.95-0.54,1.51-0.69c0.57-0.15,1.15-0.23,1.74-0.23c0.67,0,1.29,0.08,1.86,0.24c0.57,0.16,1.07,0.41,1.5,0.75
		c0.43,0.34,0.77,0.77,1.02,1.28c0.25,0.52,0.38,1.13,0.41,1.85h-1.64C543.45,59.33,543.11,58.65,542.54,58.23z"/>
	<path class="st0" d="M571.97,56.46l5.08,13.01h-1.91l-1.42-3.92h-5.5l-1.46,3.92H565l5.06-13.01H571.97z M573.18,64.09l-2.17-6.07
		h-0.04l-2.2,6.07H573.18z"/>
	<path class="st0" d="M577.9,57.91v-1.46h10.4v1.46h-4.34v11.55h-1.73V57.91H577.9z"/>
	<path class="st0" d="M612.03,48.77v18.37h10.96v2.32h-13.71V48.77H612.03z"/>
	<path class="st0" d="M634.17,56.46l5.08,13.01h-1.91l-1.42-3.92h-5.5l-1.46,3.92h-1.77l5.06-13.01H634.17z M635.37,64.09
		l-2.17-6.07h-0.04l-2.2,6.07H635.37z"/>
	<path class="st0" d="M652.66,69.46l-2.97-10.93h-0.04l-3.01,10.93h-1.8l-3.33-13.01h1.77l2.55,10.82h0.04l2.91-10.82h1.88
		l2.88,10.82h0.04l2.64-10.82h1.73l-3.48,13.01H652.66z"/>
</g>
</svg>
