<?xml version="1.0" encoding="utf-8"?>
<!-- Generator: Adobe Illustrator 24.0.1, SVG Export Plug-In . SVG Version: 6.00 Build 0)  -->
<svg version="1.1" id="Layer_1" xmlns="http://www.w3.org/2000/svg" xmlns:xlink="http://www.w3.org/1999/xlink" x="0px" y="0px"
	 viewBox="0 0 470 63" style="enable-background:new 0 0 470 63;" xml:space="preserve">
<style type="text/css">
	.st0{fill:#FFFFFF;}
	.st1{fill:url(#SVGID_1_);}
</style>
<g>
	<g>
		<g>
			<path class="st0" d="M15.56,17.61L11.48,2.85h-0.05L7.29,17.61H4.81L0.22,0.05h2.43l3.51,14.61h0.05l4.01-14.61h2.58l3.96,14.61
				h0.05l3.64-14.61h2.38l-4.79,17.57H15.56z"/>
			<path class="st0" d="M26.3,9.38c0.24-0.75,0.6-1.4,1.09-1.98c0.48-0.57,1.09-1.03,1.81-1.37c0.72-0.34,1.56-0.51,2.51-0.51
				c0.96,0,1.79,0.17,2.51,0.51c0.72,0.34,1.32,0.8,1.81,1.37c0.48,0.57,0.85,1.23,1.09,1.98c0.24,0.75,0.36,1.52,0.36,2.33
				c0,0.81-0.12,1.58-0.36,2.33c-0.24,0.75-0.6,1.41-1.09,1.98c-0.48,0.57-1.09,1.03-1.81,1.37c-0.72,0.34-1.56,0.51-2.51,0.51
				c-0.96,0-1.79-0.17-2.51-0.51c-0.72-0.34-1.32-0.79-1.81-1.37c-0.48-0.57-0.85-1.23-1.09-1.98c-0.24-0.75-0.36-1.52-0.36-2.33
				C25.93,10.9,26.05,10.12,26.3,9.38z M27.77,13.47c0.16,0.58,0.4,1.1,0.74,1.56c0.34,0.46,0.77,0.84,1.3,1.12
				c0.53,0.28,1.16,0.42,1.89,0.42c0.73,0,1.36-0.14,1.89-0.42c0.53-0.28,0.96-0.65,1.3-1.12s0.58-0.99,0.74-1.56
				c0.16-0.58,0.24-1.17,0.24-1.76c0-0.6-0.08-1.18-0.24-1.76c-0.16-0.58-0.4-1.1-0.74-1.56c-0.34-0.46-0.77-0.84-1.3-1.12
				c-0.53-0.28-1.16-0.42-1.89-0.42c-0.73,0-1.36,0.14-1.89,0.42c-0.53,0.28-0.96,0.65-1.3,1.12c-0.34,0.46-0.59,0.99-0.74,1.56
				c-0.16,0.58-0.24,1.17-0.24,1.76C27.54,12.3,27.61,12.89,27.77,13.47z"/>
			<path class="st0" d="M42.49,5.79v5.08h6.35V5.79h1.6v11.82h-1.6V12.2h-6.35v5.42h-1.6V5.79H42.49z"/>
			<path class="st0" d="M56.12,5.79v10.5h6.38v1.32h-7.98V5.79H56.12z"/>
			<path class="st0" d="M67.58,5.79l3.8,9.94l3.81-9.94h2.19v11.82h-1.52V7.78h-0.03l-3.76,9.84H70.7l-3.76-9.84h-0.03v9.84h-1.52
				V5.79H67.58z"/>
			<path class="st0" d="M86.55,5.79l4.71,11.82h-1.77l-1.32-3.56h-5.1l-1.35,3.56h-1.64l4.69-11.82H86.55z M87.66,12.73l-2.01-5.51
				h-0.03l-2.04,5.51H87.66z"/>
			<path class="st0" d="M101.17,7.46c-0.61-0.42-1.34-0.63-2.19-0.63c-0.72,0-1.34,0.13-1.85,0.4c-0.51,0.26-0.93,0.62-1.27,1.07
				c-0.33,0.45-0.58,0.96-0.73,1.53c-0.16,0.57-0.24,1.17-0.24,1.79c0,0.67,0.08,1.31,0.24,1.91c0.16,0.6,0.4,1.13,0.73,1.57
				c0.33,0.45,0.76,0.8,1.27,1.07c0.52,0.26,1.14,0.4,1.86,0.4c0.53,0,1-0.09,1.41-0.26c0.41-0.17,0.76-0.41,1.06-0.71
				c0.3-0.3,0.53-0.67,0.7-1.08c0.17-0.42,0.27-0.87,0.3-1.36h1.6c-0.16,1.49-0.68,2.65-1.57,3.48c-0.89,0.83-2.1,1.24-3.65,1.24
				c-0.93,0-1.75-0.16-2.45-0.47c-0.7-0.31-1.28-0.75-1.74-1.3c-0.46-0.55-0.81-1.2-1.04-1.95c-0.23-0.75-0.35-1.56-0.35-2.42
				c0-0.86,0.12-1.67,0.37-2.43c0.25-0.76,0.61-1.42,1.09-1.98c0.48-0.56,1.07-1.01,1.79-1.33c0.71-0.33,1.53-0.49,2.46-0.49
				c0.63,0,1.23,0.08,1.79,0.25c0.56,0.17,1.06,0.41,1.5,0.73c0.44,0.32,0.8,0.72,1.1,1.2c0.29,0.48,0.48,1.04,0.57,1.66h-1.6
				C102.18,8.51,101.79,7.88,101.17,7.46z"/>
			<path class="st0" d="M109.13,5.79v5.08h6.35V5.79h1.6v11.82h-1.6V12.2h-6.35v5.42h-1.6V5.79H109.13z"/>
			<path class="st0" d="M129.48,5.79v1.32h-6.72v3.76h6.26v1.32h-6.26v4.09h6.77v1.32h-8.37V5.79H129.48z"/>
			<path class="st0" d="M138.59,5.79c1.15,0,2.04,0.28,2.69,0.83c0.65,0.55,0.97,1.31,0.97,2.27c0,0.72-0.17,1.35-0.5,1.89
				c-0.33,0.54-0.86,0.91-1.59,1.11v0.03c0.35,0.07,0.63,0.18,0.85,0.33c0.22,0.15,0.39,0.34,0.52,0.55
				c0.13,0.22,0.22,0.46,0.29,0.72c0.06,0.26,0.11,0.54,0.14,0.83c0.02,0.29,0.04,0.58,0.05,0.88c0.01,0.3,0.04,0.59,0.08,0.88
				c0.04,0.29,0.11,0.56,0.19,0.82c0.08,0.26,0.21,0.49,0.38,0.69h-1.79c-0.11-0.12-0.19-0.29-0.23-0.5
				c-0.04-0.21-0.06-0.44-0.08-0.7c-0.01-0.26-0.02-0.54-0.03-0.84c-0.01-0.3-0.04-0.59-0.1-0.88c-0.04-0.29-0.1-0.56-0.17-0.82
				c-0.07-0.26-0.17-0.49-0.32-0.68c-0.15-0.19-0.34-0.35-0.57-0.46c-0.24-0.12-0.55-0.17-0.95-0.17h-3.92v5.05h-1.6V5.79H138.59z
				 M138.93,11.16c0.34-0.06,0.63-0.16,0.89-0.32c0.25-0.16,0.46-0.38,0.61-0.65s0.23-0.62,0.23-1.05c0-0.6-0.17-1.08-0.51-1.46
				c-0.34-0.38-0.88-0.56-1.64-0.56h-3.98v4.12h3.34C138.24,11.24,138.59,11.21,138.93,11.16z"/>
			<path class="st0" d="M158.08,0.05v8.76l9.08-8.76h3.08l-7.55,7.09l7.85,10.48h-3.01l-6.47-8.88l-2.98,2.73v6.15h-2.38V0.05
				H158.08z"/>
			<path class="st0" d="M178.99,5.79l4.71,11.82h-1.77l-1.32-3.56h-5.1l-1.35,3.56h-1.64l4.69-11.82H178.99z M180.1,12.73
				l-2.01-5.51h-0.03l-2.04,5.51H180.1z"/>
			<path class="st0" d="M188,5.79v11.82h-1.6V5.79H188z"/>
			<path class="st0" d="M198.18,7.41c-0.53-0.38-1.22-0.57-2.05-0.57c-0.34,0-0.67,0.03-1,0.1c-0.33,0.07-0.62,0.18-0.87,0.33
				c-0.25,0.15-0.46,0.36-0.61,0.62c-0.15,0.26-0.23,0.58-0.23,0.97c0,0.36,0.11,0.66,0.33,0.89c0.22,0.23,0.51,0.41,0.88,0.55
				c0.37,0.14,0.78,0.26,1.24,0.36c0.46,0.09,0.93,0.2,1.41,0.31c0.48,0.11,0.95,0.24,1.41,0.39c0.46,0.15,0.87,0.35,1.24,0.6
				c0.37,0.25,0.66,0.57,0.88,0.96c0.22,0.39,0.33,0.87,0.33,1.46c0,0.63-0.14,1.17-0.43,1.61c-0.29,0.45-0.66,0.81-1.11,1.09
				c-0.45,0.28-0.95,0.49-1.51,0.61c-0.56,0.13-1.11,0.19-1.66,0.19c-0.67,0-1.31-0.08-1.92-0.25c-0.6-0.17-1.13-0.42-1.59-0.75
				c-0.46-0.34-0.82-0.77-1.08-1.29c-0.26-0.52-0.4-1.15-0.4-1.86h1.52c0,0.5,0.1,0.92,0.3,1.28c0.2,0.36,0.46,0.65,0.78,0.89
				c0.32,0.23,0.69,0.4,1.12,0.51c0.43,0.11,0.87,0.17,1.32,0.17c0.36,0,0.72-0.03,1.09-0.1c0.37-0.07,0.69-0.18,0.99-0.34
				c0.29-0.16,0.53-0.38,0.71-0.65c0.18-0.28,0.27-0.63,0.27-1.06c0-0.41-0.11-0.74-0.33-0.99c-0.22-0.25-0.51-0.46-0.88-0.62
				c-0.37-0.16-0.78-0.29-1.24-0.39c-0.46-0.1-0.93-0.2-1.41-0.31c-0.48-0.1-0.95-0.23-1.41-0.36c-0.46-0.14-0.87-0.32-1.24-0.55
				c-0.37-0.23-0.66-0.52-0.88-0.88c-0.22-0.36-0.33-0.81-0.33-1.35c0-0.6,0.12-1.11,0.37-1.55c0.25-0.44,0.58-0.79,0.99-1.08
				c0.41-0.28,0.88-0.49,1.4-0.63c0.52-0.14,1.06-0.21,1.61-0.21c0.62,0,1.19,0.07,1.72,0.22c0.53,0.14,0.99,0.37,1.39,0.68
				c0.4,0.31,0.71,0.7,0.95,1.17c0.23,0.47,0.36,1.03,0.38,1.68h-1.52C199.03,8.4,198.72,7.79,198.18,7.41z"/>
			<path class="st0" d="M212.86,5.79v1.32h-6.72v3.76h6.26v1.32h-6.26v4.09h6.77v1.32h-8.37V5.79H212.86z"/>
			<path class="st0" d="M221.97,5.79c1.15,0,2.04,0.28,2.69,0.83c0.65,0.55,0.97,1.31,0.97,2.27c0,0.72-0.17,1.35-0.5,1.89
				c-0.33,0.54-0.86,0.91-1.59,1.11v0.03c0.35,0.07,0.63,0.18,0.85,0.33c0.22,0.15,0.39,0.34,0.52,0.55
				c0.13,0.22,0.22,0.46,0.29,0.72c0.06,0.26,0.11,0.54,0.14,0.83c0.02,0.29,0.04,0.58,0.05,0.88c0.01,0.3,0.04,0.59,0.08,0.88
				c0.04,0.29,0.11,0.56,0.19,0.82c0.08,0.26,0.21,0.49,0.38,0.69h-1.79c-0.11-0.12-0.19-0.29-0.23-0.5
				c-0.04-0.21-0.06-0.44-0.08-0.7c-0.01-0.26-0.02-0.54-0.03-0.84c-0.01-0.3-0.04-0.59-0.1-0.88c-0.04-0.29-0.1-0.56-0.17-0.82
				c-0.07-0.26-0.17-0.49-0.32-0.68c-0.15-0.19-0.34-0.35-0.57-0.46c-0.24-0.12-0.55-0.17-0.95-0.17h-3.92v5.05h-1.6V5.79H221.97z
				 M222.31,11.16c0.34-0.06,0.63-0.16,0.89-0.32c0.25-0.16,0.46-0.38,0.61-0.65s0.23-0.62,0.23-1.05c0-0.6-0.17-1.08-0.51-1.46
				c-0.34-0.38-0.88-0.56-1.64-0.56h-3.98v4.12h3.34C221.62,11.24,221.97,11.21,222.31,11.16z"/>
			<path class="st0" d="M245.57,0.05c0.38,0,0.8,0,1.24,0.01c0.44,0.01,0.88,0.03,1.32,0.07c0.43,0.04,0.84,0.1,1.22,0.18
				c0.38,0.08,0.7,0.21,0.97,0.37c0.58,0.34,1.08,0.82,1.49,1.43c0.41,0.61,0.61,1.35,0.61,2.24c0,0.93-0.23,1.74-0.69,2.42
				c-0.46,0.68-1.12,1.19-1.97,1.51v0.05c1.1,0.23,1.95,0.72,2.53,1.48c0.58,0.75,0.88,1.67,0.88,2.76c0,0.64-0.12,1.26-0.35,1.87
				c-0.23,0.61-0.58,1.14-1.04,1.61c-0.46,0.47-1.03,0.84-1.71,1.13c-0.68,0.29-1.46,0.43-2.34,0.43h-8.65V0.05H245.57z M246.22,7.6
				c1.35,0,2.33-0.23,2.92-0.7c0.59-0.47,0.89-1.17,0.89-2.1c0-0.62-0.1-1.12-0.3-1.48c-0.2-0.36-0.48-0.64-0.83-0.84
				c-0.35-0.2-0.76-0.32-1.22-0.38c-0.46-0.06-0.95-0.09-1.47-0.09h-4.76V7.6H246.22z M247.43,15.65c1.05,0,1.88-0.28,2.47-0.84
				c0.59-0.56,0.89-1.33,0.89-2.31c0-0.57-0.11-1.05-0.33-1.43c-0.22-0.38-0.51-0.68-0.86-0.9c-0.36-0.22-0.77-0.38-1.24-0.47
				c-0.47-0.09-0.95-0.14-1.45-0.14h-5.44v6.08H247.43z"/>
			<path class="st0" d="M266.09,5.79v1.32h-6.72v3.76h6.26v1.32h-6.26v4.09h6.77v1.32h-8.37V5.79H266.09z"/>
			<path class="st0" d="M276.81,7.46c-0.61-0.42-1.34-0.63-2.19-0.63c-0.72,0-1.34,0.13-1.85,0.4c-0.51,0.26-0.93,0.62-1.27,1.07
				c-0.33,0.45-0.58,0.96-0.73,1.53c-0.16,0.57-0.24,1.17-0.24,1.79c0,0.67,0.08,1.31,0.24,1.91c0.16,0.6,0.4,1.13,0.73,1.57
				c0.33,0.45,0.76,0.8,1.27,1.07c0.52,0.26,1.14,0.4,1.86,0.4c0.53,0,1-0.09,1.41-0.26c0.41-0.17,0.76-0.41,1.06-0.71
				c0.3-0.3,0.53-0.67,0.7-1.08s0.27-0.87,0.3-1.36h1.6c-0.16,1.49-0.68,2.65-1.57,3.48c-0.89,0.83-2.1,1.24-3.65,1.24
				c-0.93,0-1.75-0.16-2.45-0.47c-0.7-0.31-1.28-0.75-1.74-1.3c-0.46-0.55-0.81-1.2-1.04-1.95c-0.23-0.75-0.35-1.56-0.35-2.42
				c0-0.86,0.12-1.67,0.37-2.43c0.25-0.76,0.61-1.42,1.09-1.98c0.48-0.56,1.07-1.01,1.79-1.33c0.71-0.33,1.53-0.49,2.46-0.49
				c0.63,0,1.23,0.08,1.79,0.25s1.06,0.41,1.5,0.73c0.44,0.32,0.8,0.72,1.1,1.2c0.29,0.48,0.48,1.04,0.57,1.66H278
				C277.82,8.51,277.42,7.88,276.81,7.46z"/>
			<path class="st0" d="M284.77,5.79v5.9l6.11-5.9h2.08l-5.08,4.77l5.28,7.05h-2.03l-4.35-5.98l-2.01,1.84v4.14h-1.6V5.79H284.77z"
				/>
			<path class="st0" d="M304.19,5.79v1.32h-6.72v3.76h6.26v1.32h-6.26v4.09h6.77v1.32h-8.37V5.79H304.19z"/>
			<path class="st0" d="M313.31,5.79c1.15,0,2.04,0.28,2.69,0.83c0.65,0.55,0.97,1.31,0.97,2.27c0,0.72-0.17,1.35-0.5,1.89
				c-0.33,0.54-0.86,0.91-1.59,1.11v0.03c0.35,0.07,0.63,0.18,0.85,0.33c0.22,0.15,0.39,0.34,0.52,0.55
				c0.13,0.22,0.23,0.46,0.29,0.72c0.06,0.26,0.11,0.54,0.14,0.83c0.02,0.29,0.04,0.58,0.05,0.88c0.01,0.3,0.04,0.59,0.08,0.88
				c0.05,0.29,0.11,0.56,0.19,0.82c0.08,0.26,0.21,0.49,0.38,0.69h-1.79c-0.11-0.12-0.19-0.29-0.23-0.5
				c-0.04-0.21-0.06-0.44-0.08-0.7c-0.01-0.26-0.02-0.54-0.03-0.84c-0.01-0.3-0.05-0.59-0.1-0.88c-0.05-0.29-0.1-0.56-0.17-0.82
				c-0.07-0.26-0.17-0.49-0.32-0.68c-0.15-0.19-0.34-0.35-0.57-0.46c-0.24-0.12-0.55-0.17-0.95-0.17h-3.92v5.05h-1.6V5.79H313.31z
				 M313.64,11.16c0.34-0.06,0.63-0.16,0.89-0.32c0.25-0.16,0.46-0.38,0.61-0.65c0.15-0.27,0.23-0.62,0.23-1.05
				c0-0.6-0.17-1.08-0.51-1.46c-0.34-0.38-0.88-0.56-1.64-0.56h-3.98v4.12h3.34C312.95,11.24,313.31,11.21,313.64,11.16z"/>
			<path class="st0" d="M333.72,0.05l5.64,14.76l5.67-14.76h3.26v17.57h-2.26V3h-0.05l-5.59,14.61h-2.03L332.77,3h-0.05v14.61h-2.26
				V0.05H333.72z"/>
			<path class="st0" d="M353.45,9.38c0.24-0.75,0.61-1.4,1.09-1.98c0.48-0.57,1.09-1.03,1.81-1.37c0.72-0.34,1.56-0.51,2.51-0.51
				s1.79,0.17,2.51,0.51c0.72,0.34,1.32,0.8,1.81,1.37c0.48,0.57,0.85,1.23,1.09,1.98c0.24,0.75,0.36,1.52,0.36,2.33
				c0,0.81-0.12,1.58-0.36,2.33c-0.24,0.75-0.61,1.41-1.09,1.98c-0.48,0.57-1.09,1.03-1.81,1.37c-0.72,0.34-1.56,0.51-2.51,0.51
				s-1.79-0.17-2.51-0.51c-0.72-0.34-1.32-0.79-1.81-1.37c-0.48-0.57-0.85-1.23-1.09-1.98c-0.24-0.75-0.36-1.52-0.36-2.33
				C353.09,10.9,353.21,10.12,353.45,9.38z M354.93,13.47c0.16,0.58,0.41,1.1,0.74,1.56c0.34,0.46,0.77,0.84,1.3,1.12
				c0.53,0.28,1.16,0.42,1.89,0.42s1.36-0.14,1.89-0.42c0.53-0.28,0.96-0.65,1.3-1.12s0.58-0.99,0.74-1.56
				c0.16-0.58,0.24-1.17,0.24-1.76c0-0.6-0.08-1.18-0.24-1.76c-0.16-0.58-0.4-1.1-0.74-1.56c-0.34-0.46-0.77-0.84-1.3-1.12
				c-0.53-0.28-1.16-0.42-1.89-0.42s-1.36,0.14-1.89,0.42c-0.53,0.28-0.96,0.65-1.3,1.12c-0.34,0.46-0.58,0.99-0.74,1.56
				c-0.16,0.58-0.24,1.17-0.24,1.76C354.7,12.3,354.77,12.89,354.93,13.47z"/>
			<path class="st0" d="M369.65,5.79v5.08h6.35V5.79h1.6v11.82h-1.6V12.2h-6.35v5.42h-1.6V5.79H369.65z"/>
			<path class="st0" d="M387.35,5.79c1.15,0,2.04,0.28,2.69,0.83c0.65,0.55,0.97,1.31,0.97,2.27c0,0.72-0.17,1.35-0.5,1.89
				c-0.33,0.54-0.86,0.91-1.59,1.11v0.03c0.35,0.07,0.63,0.18,0.85,0.33c0.22,0.15,0.39,0.34,0.52,0.55
				c0.13,0.22,0.23,0.46,0.29,0.72c0.06,0.26,0.11,0.54,0.14,0.83c0.02,0.29,0.04,0.58,0.05,0.88c0.01,0.3,0.04,0.59,0.08,0.88
				c0.05,0.29,0.11,0.56,0.19,0.82c0.08,0.26,0.21,0.49,0.38,0.69h-1.79c-0.11-0.12-0.19-0.29-0.23-0.5
				c-0.04-0.21-0.06-0.44-0.08-0.7c-0.01-0.26-0.02-0.54-0.03-0.84c-0.01-0.3-0.05-0.59-0.1-0.88c-0.05-0.29-0.1-0.56-0.17-0.82
				c-0.07-0.26-0.17-0.49-0.32-0.68c-0.15-0.19-0.34-0.35-0.57-0.46c-0.24-0.12-0.55-0.17-0.95-0.17h-3.92v5.05h-1.6V5.79H387.35z
				 M387.69,11.16c0.34-0.06,0.63-0.16,0.89-0.32c0.25-0.16,0.46-0.38,0.61-0.65c0.15-0.27,0.23-0.62,0.23-1.05
				c0-0.6-0.17-1.08-0.51-1.46c-0.34-0.38-0.88-0.56-1.64-0.56h-3.98v4.12h3.34C387,11.24,387.35,11.21,387.69,11.16z"/>
			<path class="st0" d="M399.1,12.35v1.32h-4.88v-1.32H399.1z"/>
			<path class="st0" d="M415.71,0.05v1.97h-9.98V7.6h9.3v1.97h-9.3v6.08h10.05v1.97h-12.44V0.05H415.71z"/>
			<path class="st0" d="M427.44,17.47c-0.7,0.27-1.4,0.41-2.11,0.41c-0.9,0-1.7-0.16-2.41-0.49c-0.71-0.33-1.31-0.76-1.81-1.32
				c-0.5-0.55-0.87-1.19-1.13-1.9c-0.26-0.72-0.39-1.46-0.39-2.24c0-0.86,0.12-1.68,0.36-2.46c0.24-0.78,0.6-1.46,1.08-2.05
				c0.48-0.59,1.07-1.05,1.79-1.4c0.71-0.35,1.55-0.52,2.51-0.52c0.65,0,1.27,0.07,1.85,0.22c0.58,0.15,1.1,0.38,1.55,0.7
				c0.46,0.32,0.84,0.73,1.15,1.22c0.31,0.49,0.52,1.08,0.63,1.78h-1.6c-0.08-0.45-0.23-0.84-0.44-1.17
				c-0.21-0.33-0.48-0.59-0.79-0.8c-0.32-0.21-0.67-0.37-1.07-0.47c-0.4-0.1-0.82-0.16-1.27-0.16c-0.73,0-1.36,0.14-1.88,0.43
				c-0.52,0.29-0.95,0.67-1.28,1.13c-0.33,0.47-0.58,1-0.73,1.61c-0.16,0.6-0.24,1.22-0.24,1.85c0,0.62,0.09,1.21,0.27,1.78
				c0.18,0.57,0.44,1.07,0.79,1.51c0.35,0.44,0.78,0.78,1.29,1.04c0.51,0.26,1.11,0.39,1.78,0.39c0.63,0,1.19-0.1,1.67-0.3
				c0.48-0.2,0.89-0.47,1.22-0.82c0.33-0.35,0.58-0.76,0.75-1.23c0.17-0.47,0.24-0.97,0.22-1.52h-3.85v-1.32h5.28v6.23h-1.01
				l-0.42-1.47C428.72,16.76,428.14,17.2,427.44,17.47z"/>
			<path class="st0" d="M441.7,17.47c-0.7,0.27-1.4,0.41-2.11,0.41c-0.9,0-1.7-0.16-2.41-0.49c-0.71-0.33-1.31-0.76-1.81-1.32
				c-0.5-0.55-0.87-1.19-1.13-1.9c-0.26-0.72-0.39-1.46-0.39-2.24c0-0.86,0.12-1.68,0.36-2.46c0.24-0.78,0.6-1.46,1.08-2.05
				c0.48-0.59,1.07-1.05,1.79-1.4c0.71-0.35,1.55-0.52,2.51-0.52c0.65,0,1.27,0.07,1.85,0.22c0.58,0.15,1.1,0.38,1.55,0.7
				c0.46,0.32,0.84,0.73,1.15,1.22c0.31,0.49,0.52,1.08,0.63,1.78h-1.6c-0.08-0.45-0.23-0.84-0.44-1.17
				c-0.21-0.33-0.48-0.59-0.79-0.8c-0.32-0.21-0.67-0.37-1.07-0.47c-0.4-0.1-0.82-0.16-1.27-0.16c-0.73,0-1.36,0.14-1.88,0.43
				c-0.52,0.29-0.95,0.67-1.28,1.13c-0.33,0.47-0.58,1-0.73,1.61c-0.16,0.6-0.24,1.22-0.24,1.85c0,0.62,0.09,1.21,0.27,1.78
				c0.18,0.57,0.44,1.07,0.79,1.51c0.35,0.44,0.78,0.78,1.29,1.04c0.51,0.26,1.11,0.39,1.78,0.39c0.63,0,1.19-0.1,1.67-0.3
				c0.48-0.2,0.89-0.47,1.22-0.82c0.33-0.35,0.58-0.76,0.75-1.23c0.17-0.47,0.24-0.97,0.22-1.52h-3.85v-1.32h5.28v6.23h-1.01
				l-0.42-1.47C442.98,16.76,442.4,17.2,441.7,17.47z"/>
			<path class="st0" d="M457.02,5.79v1.32h-6.72v3.76h6.26v1.32h-6.26v4.09h6.77v1.32h-8.37V5.79H457.02z"/>
			<path class="st0" d="M466.13,5.79c1.15,0,2.04,0.28,2.69,0.83c0.65,0.55,0.97,1.31,0.97,2.27c0,0.72-0.17,1.35-0.5,1.89
				c-0.33,0.54-0.86,0.91-1.59,1.11v0.03c0.35,0.07,0.63,0.18,0.85,0.33c0.22,0.15,0.39,0.34,0.52,0.55
				c0.13,0.22,0.23,0.46,0.29,0.72s0.11,0.54,0.14,0.83c0.02,0.29,0.04,0.58,0.05,0.88s0.04,0.59,0.08,0.88
				c0.05,0.29,0.11,0.56,0.19,0.82c0.08,0.26,0.21,0.49,0.38,0.69h-1.79c-0.11-0.12-0.19-0.29-0.23-0.5
				c-0.04-0.21-0.06-0.44-0.08-0.7c-0.01-0.26-0.02-0.54-0.03-0.84c-0.01-0.3-0.05-0.59-0.1-0.88c-0.05-0.29-0.1-0.56-0.17-0.82
				c-0.07-0.26-0.17-0.49-0.32-0.68c-0.15-0.19-0.34-0.35-0.57-0.46c-0.24-0.12-0.55-0.17-0.95-0.17h-3.92v5.05h-1.6V5.79H466.13z
				 M466.47,11.16c0.34-0.06,0.63-0.16,0.89-0.32c0.25-0.16,0.46-0.38,0.61-0.65c0.15-0.27,0.23-0.62,0.23-1.05
				c0-0.6-0.17-1.08-0.51-1.46c-0.34-0.38-0.88-0.56-1.64-0.56h-3.98v4.12h3.34C465.78,11.24,466.13,11.21,466.47,11.16z"/>
		</g>
		<g>
			<path class="st0" d="M19.84,33.48c1.44,0,2.57,0.35,3.38,1.04c0.81,0.69,1.22,1.64,1.22,2.85c0,0.9-0.21,1.69-0.63,2.37
				c-0.42,0.68-1.09,1.14-2,1.39v0.04c0.44,0.08,0.8,0.22,1.07,0.42c0.28,0.19,0.5,0.43,0.66,0.7c0.16,0.27,0.28,0.57,0.36,0.91
				c0.08,0.33,0.14,0.68,0.18,1.04c0.03,0.36,0.05,0.73,0.06,1.1c0.01,0.37,0.05,0.74,0.11,1.1c0.06,0.36,0.14,0.7,0.24,1.03
				c0.11,0.33,0.27,0.61,0.48,0.86h-2.25c-0.14-0.15-0.24-0.36-0.29-0.62c-0.05-0.26-0.08-0.56-0.1-0.88
				c-0.01-0.33-0.03-0.68-0.04-1.05c-0.01-0.37-0.06-0.74-0.13-1.1c-0.06-0.36-0.13-0.7-0.21-1.03c-0.08-0.33-0.22-0.61-0.4-0.85
				c-0.18-0.24-0.42-0.44-0.72-0.58c-0.3-0.15-0.69-0.22-1.19-0.22h-4.92v6.35h-2.02V33.48H19.84z M20.26,40.23
				c0.42-0.07,0.8-0.2,1.11-0.41c0.32-0.2,0.57-0.47,0.76-0.81c0.19-0.34,0.29-0.78,0.29-1.32c0-0.75-0.21-1.36-0.64-1.83
				c-0.42-0.47-1.11-0.71-2.06-0.71h-5.01v5.18h4.2C19.39,40.33,19.84,40.3,20.26,40.23z"/>
			<path class="st0" d="M41.1,38.89v1.06h-5.37v3.01h5.01v1.06h-5.01v3.27h5.41v1.06h-6.7v-9.46H41.1z"/>
			<path class="st0" d="M53.49,40.23c-0.49-0.34-1.07-0.5-1.75-0.5c-0.58,0-1.07,0.11-1.48,0.32c-0.41,0.21-0.75,0.5-1.01,0.85
				c-0.27,0.36-0.46,0.77-0.59,1.23c-0.13,0.46-0.19,0.94-0.19,1.43c0,0.54,0.06,1.05,0.19,1.53c0.13,0.48,0.32,0.9,0.59,1.26
				c0.27,0.36,0.61,0.64,1.02,0.85c0.41,0.21,0.91,0.32,1.49,0.32c0.42,0,0.8-0.07,1.13-0.21c0.33-0.14,0.61-0.33,0.85-0.57
				c0.24-0.24,0.43-0.53,0.56-0.87c0.13-0.34,0.22-0.7,0.24-1.09h1.28c-0.13,1.19-0.54,2.12-1.26,2.78
				c-0.71,0.66-1.68,0.99-2.92,0.99c-0.75,0-1.4-0.13-1.96-0.38c-0.56-0.25-1.02-0.6-1.39-1.04c-0.37-0.44-0.65-0.96-0.83-1.56
				c-0.18-0.6-0.28-1.25-0.28-1.93s0.1-1.34,0.3-1.94c0.2-0.6,0.49-1.13,0.87-1.58c0.38-0.45,0.86-0.81,1.43-1.07
				c0.57-0.26,1.23-0.39,1.96-0.39c0.5,0,0.98,0.07,1.43,0.2c0.45,0.13,0.85,0.33,1.2,0.58s0.64,0.58,0.88,0.96
				c0.23,0.38,0.39,0.83,0.46,1.33h-1.28C54.3,41.07,53.98,40.56,53.49,40.23z"/>
			<path class="st0" d="M63.66,38.89v4.07h5.08v-4.07h1.28v9.46h-1.28v-4.33h-5.08v4.33h-1.28v-9.46H63.66z"/>
			<path class="st0" d="M76.07,39.95v-1.06h7.71v1.06h-3.21v8.4h-1.28v-8.4H76.07z"/>
			<path class="st0" d="M94.64,40.18c-0.43-0.3-0.97-0.46-1.64-0.46c-0.27,0-0.54,0.03-0.8,0.08c-0.26,0.05-0.49,0.14-0.7,0.26
				c-0.2,0.12-0.36,0.29-0.49,0.5c-0.12,0.21-0.18,0.47-0.18,0.78c0,0.29,0.09,0.53,0.26,0.71c0.18,0.18,0.41,0.33,0.7,0.44
				c0.29,0.11,0.62,0.21,0.99,0.28c0.37,0.08,0.74,0.16,1.13,0.25c0.38,0.09,0.76,0.19,1.13,0.31c0.37,0.12,0.7,0.28,0.99,0.48
				c0.29,0.2,0.53,0.46,0.7,0.77c0.18,0.31,0.26,0.7,0.26,1.17c0,0.5-0.11,0.93-0.34,1.29c-0.23,0.36-0.52,0.65-0.88,0.87
				c-0.36,0.23-0.76,0.39-1.21,0.49c-0.45,0.1-0.89,0.15-1.33,0.15c-0.54,0-1.05-0.07-1.53-0.2c-0.48-0.13-0.9-0.33-1.27-0.6
				c-0.36-0.27-0.65-0.61-0.86-1.03c-0.21-0.42-0.32-0.92-0.32-1.49h1.22c0,0.4,0.08,0.74,0.24,1.03c0.16,0.29,0.36,0.52,0.62,0.71
				s0.56,0.32,0.9,0.41s0.69,0.13,1.05,0.13c0.29,0,0.58-0.03,0.87-0.08c0.29-0.05,0.56-0.14,0.79-0.27
				c0.23-0.13,0.42-0.3,0.57-0.52c0.14-0.22,0.22-0.5,0.22-0.85c0-0.33-0.09-0.59-0.26-0.79c-0.18-0.2-0.41-0.37-0.7-0.5
				c-0.29-0.13-0.62-0.23-0.99-0.31c-0.37-0.08-0.74-0.16-1.13-0.25c-0.38-0.08-0.76-0.18-1.13-0.29c-0.37-0.11-0.7-0.26-0.99-0.44
				c-0.29-0.18-0.53-0.41-0.7-0.7c-0.18-0.29-0.26-0.65-0.26-1.08c0-0.48,0.1-0.89,0.3-1.24c0.2-0.35,0.46-0.64,0.79-0.86
				c0.33-0.23,0.7-0.39,1.12-0.5c0.42-0.11,0.85-0.17,1.29-0.17c0.49,0,0.95,0.06,1.38,0.17c0.42,0.11,0.79,0.3,1.11,0.54
				c0.32,0.25,0.57,0.56,0.76,0.93c0.18,0.38,0.29,0.82,0.3,1.34h-1.22C95.32,40.98,95.07,40.48,94.64,40.18z"/>
			<path class="st0" d="M107.57,38.89l3.77,9.46h-1.42l-1.05-2.85h-4.08l-1.08,2.85h-1.31l3.75-9.46H107.57z M108.46,44.44
				l-1.61-4.41h-0.03l-1.63,4.41H108.46z"/>
			<path class="st0" d="M118.6,38.89l5.08,7.67h0.03v-7.67h1.22v9.46h-1.4l-5.04-7.59h-0.03v7.59h-1.22v-9.46H118.6z"/>
			<path class="st0" d="M139.33,48.35l-2.2-7.95h-0.03l-2.23,7.95h-1.34l-2.47-9.46h1.31l1.89,7.87h0.03l2.16-7.87h1.39l2.13,7.87
				h0.03l1.96-7.87h1.28l-2.58,9.46H139.33z"/>
			<path class="st0" d="M153.47,38.89l3.77,9.46h-1.42l-1.05-2.85h-4.08l-1.08,2.85h-1.31l3.75-9.46H153.47z M152.09,36.78v1.38
				h-1.22v-1.38H152.09z M154.36,44.44l-1.61-4.41h-0.03l-1.63,4.41H154.36z M154.63,36.78v1.38h-1.22v-1.38H154.63z"/>
			<path class="st0" d="M164.43,38.89v8.4h5.1v1.06h-6.39v-9.46H164.43z"/>
			<path class="st0" d="M173.36,39.95v-1.06h7.71v1.06h-3.21v8.4h-1.28v-8.4H173.36z"/>
			<path class="st0" d="M193.76,38.89v1.06h-5.37v3.01h5.01v1.06h-5.01v3.27h5.41v1.06h-6.7v-9.46H193.76z"/>
			<path class="st0" d="M214.74,44.13v1.06h-6.75v-1.06H214.74z"/>
			<path class="st0" d="M236.42,33.48l5.92,14.86h-2.23l-1.66-4.48h-6.41l-1.7,4.48h-2.06l5.9-14.86H236.42z M237.82,42.21
				l-2.52-6.93h-0.04l-2.57,6.93H237.82z"/>
			<path class="st0" d="M250.01,39.95v-1.06h7.71v1.06h-3.21v8.4h-1.28v-8.4H250.01z"/>
			<path class="st0" d="M262.72,39.95v-1.06h7.71v1.06h-3.21v8.4h-1.28v-8.4H262.72z"/>
			<path class="st0" d="M276.22,41.76c0.19-0.6,0.48-1.12,0.87-1.58s0.87-0.83,1.44-1.1c0.58-0.27,1.25-0.41,2.01-0.41
				s1.44,0.14,2.01,0.41c0.58,0.27,1.06,0.64,1.44,1.1c0.39,0.46,0.68,0.99,0.87,1.58c0.19,0.6,0.29,1.22,0.29,1.86
				c0,0.64-0.1,1.27-0.29,1.86c-0.19,0.6-0.48,1.12-0.87,1.58c-0.39,0.46-0.87,0.82-1.44,1.09c-0.58,0.27-1.25,0.4-2.01,0.4
				s-1.44-0.13-2.01-0.4c-0.58-0.27-1.06-0.63-1.44-1.09c-0.39-0.46-0.68-0.99-0.87-1.58c-0.19-0.6-0.29-1.22-0.29-1.86
				C275.93,42.97,276.02,42.35,276.22,41.76z M277.4,45.03c0.13,0.46,0.32,0.88,0.59,1.25c0.27,0.37,0.62,0.67,1.04,0.89
				c0.42,0.23,0.93,0.34,1.51,0.34c0.58,0,1.09-0.11,1.51-0.34c0.42-0.23,0.77-0.52,1.04-0.89c0.27-0.37,0.47-0.79,0.59-1.25
				c0.13-0.46,0.19-0.93,0.19-1.41c0-0.48-0.06-0.95-0.19-1.41c-0.13-0.46-0.32-0.88-0.59-1.25c-0.27-0.37-0.62-0.67-1.04-0.89
				c-0.42-0.23-0.93-0.34-1.51-0.34c-0.59,0-1.09,0.11-1.51,0.34c-0.42,0.23-0.77,0.52-1.04,0.89c-0.27,0.37-0.47,0.79-0.59,1.25
				c-0.13,0.46-0.19,0.93-0.19,1.41C277.21,44.1,277.27,44.57,277.4,45.03z"/>
			<path class="st0" d="M296.23,38.89c0.92,0,1.64,0.22,2.15,0.66c0.52,0.44,0.78,1.05,0.78,1.81c0,0.57-0.13,1.08-0.4,1.51
				c-0.27,0.43-0.69,0.73-1.28,0.89v0.03c0.28,0.05,0.51,0.14,0.68,0.26c0.18,0.12,0.32,0.27,0.42,0.44
				c0.1,0.17,0.18,0.36,0.23,0.58c0.05,0.21,0.09,0.43,0.11,0.66c0.02,0.23,0.03,0.46,0.04,0.7c0.01,0.24,0.03,0.47,0.07,0.7
				c0.04,0.23,0.09,0.45,0.16,0.66c0.07,0.21,0.17,0.39,0.3,0.55h-1.43c-0.09-0.1-0.15-0.23-0.18-0.4
				c-0.03-0.17-0.05-0.36-0.06-0.56c-0.01-0.21-0.02-0.43-0.03-0.67c-0.01-0.24-0.04-0.47-0.08-0.7c-0.04-0.23-0.08-0.45-0.14-0.66
				c-0.05-0.21-0.14-0.39-0.26-0.54c-0.12-0.15-0.27-0.28-0.46-0.37c-0.19-0.09-0.44-0.14-0.76-0.14h-3.13v4.04h-1.28v-9.46H296.23z
				 M296.5,43.18c0.27-0.04,0.51-0.13,0.71-0.26c0.2-0.13,0.36-0.3,0.49-0.52c0.12-0.22,0.18-0.5,0.18-0.84
				c0-0.48-0.14-0.87-0.4-1.17s-0.71-0.45-1.31-0.45h-3.19v3.3h2.67C295.95,43.25,296.23,43.23,296.5,43.18z"/>
			<path class="st0" d="M307.26,38.89l5.08,7.67h0.03v-7.67h1.21v9.46h-1.4l-5.04-7.59h-0.03v7.59h-1.21v-9.46H307.26z"/>
			<path class="st0" d="M327.28,38.89v1.06h-5.37v3.01h5.01v1.06h-5.01v3.27h5.41v1.06h-6.7v-9.46H327.28z"/>
			<path class="st0" d="M337.83,48.35h-1.28v-3.87l-3.73-5.59h1.53l2.89,4.5l2.82-4.5h1.46l-3.69,5.59V48.35z"/>
			<path class="st0" d="M352.39,40.18c-0.43-0.3-0.97-0.46-1.64-0.46c-0.27,0-0.54,0.03-0.8,0.08c-0.26,0.05-0.49,0.14-0.7,0.26
				c-0.2,0.12-0.36,0.29-0.49,0.5c-0.12,0.21-0.18,0.47-0.18,0.78c0,0.29,0.09,0.53,0.26,0.71c0.18,0.18,0.41,0.33,0.7,0.44
				c0.29,0.11,0.62,0.21,0.99,0.28c0.37,0.08,0.74,0.16,1.13,0.25c0.38,0.09,0.76,0.19,1.13,0.31c0.37,0.12,0.7,0.28,0.99,0.48
				c0.29,0.2,0.53,0.46,0.7,0.77c0.18,0.31,0.26,0.7,0.26,1.17c0,0.5-0.11,0.93-0.34,1.29c-0.23,0.36-0.52,0.65-0.88,0.87
				c-0.36,0.23-0.76,0.39-1.21,0.49s-0.89,0.15-1.33,0.15c-0.54,0-1.05-0.07-1.53-0.2c-0.48-0.13-0.9-0.33-1.27-0.6
				c-0.36-0.27-0.65-0.61-0.86-1.03c-0.21-0.42-0.32-0.92-0.32-1.49h1.21c0,0.4,0.08,0.74,0.24,1.03c0.16,0.29,0.36,0.52,0.62,0.71
				s0.56,0.32,0.9,0.41c0.34,0.09,0.69,0.13,1.05,0.13c0.29,0,0.58-0.03,0.87-0.08c0.29-0.05,0.56-0.14,0.79-0.27
				c0.23-0.13,0.42-0.3,0.57-0.52c0.14-0.22,0.22-0.5,0.22-0.85c0-0.33-0.09-0.59-0.26-0.79c-0.18-0.2-0.41-0.37-0.7-0.5
				c-0.29-0.13-0.62-0.23-0.99-0.31c-0.37-0.08-0.74-0.16-1.13-0.25c-0.38-0.08-0.76-0.18-1.13-0.29c-0.37-0.11-0.7-0.26-0.99-0.44
				c-0.29-0.18-0.53-0.41-0.7-0.7c-0.18-0.29-0.26-0.65-0.26-1.08c0-0.48,0.1-0.89,0.3-1.24c0.2-0.35,0.46-0.64,0.79-0.86
				c0.33-0.23,0.7-0.39,1.12-0.5c0.42-0.11,0.85-0.17,1.29-0.17c0.49,0,0.95,0.06,1.38,0.17c0.42,0.11,0.79,0.3,1.11,0.54
				c0.32,0.25,0.57,0.56,0.76,0.93c0.18,0.38,0.29,0.82,0.3,1.34h-1.21C353.07,40.98,352.82,40.48,352.39,40.18z"/>
			<path class="st0" d="M379.64,38.89l3.77,9.46h-1.42l-1.05-2.85h-4.08l-1.08,2.85h-1.31l3.75-9.46H379.64z M380.53,44.44
				l-1.61-4.41h-0.03l-1.63,4.41H380.53z"/>
			<path class="st0" d="M387.05,39.95v-1.06h7.71v1.06h-3.21v8.4h-1.28v-8.4H387.05z"/>
			<path class="st0" d="M417.74,33.48v13.2h8.02v1.67h-10.04V33.48H417.74z"/>
			<path class="st0" d="M438.77,38.89l3.77,9.46h-1.42l-1.05-2.85h-4.08l-1.08,2.85h-1.31l3.75-9.46H438.77z M439.66,44.44
				l-1.61-4.41h-0.03l-1.63,4.41H439.66z"/>
			<path class="st0" d="M455.49,48.35l-2.2-7.95h-0.03l-2.23,7.95h-1.34l-2.47-9.46h1.31l1.89,7.87h0.03l2.16-7.87h1.39l2.13,7.87
				h0.03l1.96-7.87h1.28l-2.58,9.46H455.49z"/>
		</g>
	</g>
	
		<radialGradient id="SVGID_1_" cx="238.795" cy="-35.6095" r="131.9512" gradientTransform="matrix(1.2476 0 0 1.3481 -64.8956 109.5552)" gradientUnits="userSpaceOnUse">
		<stop  offset="0" style="stop-color:#FFFFFF"/>
		<stop  offset="1" style="stop-color:#FFFFFF;stop-opacity:0"/>
	</radialGradient>
	<path class="st1" d="M465.84,61.55c-151.87,1.84-312.82,1.99-465.62-0.03C152.12,59.66,312.95,59.63,465.84,61.55z"/>
</g>
</svg>
