<svg xmlns="http://www.w3.org/2000/svg" viewBox="0 0 994.17 104.14"><defs><style>.cls-1{fill:#f0c879;}</style></defs><title>Artboard 7</title><g id="Layer_2" data-name="Layer 2"><path class="cls-1" d="M32.46,37.71,23.81,6h-.1L15,37.71H9.71L0,0H5.14l7.43,31.37h.11L21.16,0h5.46L35,31.37h.11L42.8,0h5L37.71,37.71Z"/><path class="cls-1" d="M55.16,20a12.58,12.58,0,0,1,2.3-4.25,11.2,11.2,0,0,1,3.82-2.95,13.3,13.3,0,0,1,10.64,0,11.3,11.3,0,0,1,3.82,2.95A12.58,12.58,0,0,1,78,20a16.59,16.59,0,0,1,0,10,12.53,12.53,0,0,1-2.3,4.24,11.15,11.15,0,0,1-3.82,2.94,13.64,13.64,0,0,1-10.64,0,11.05,11.05,0,0,1-3.82-2.94A12.53,12.53,0,0,1,55.16,30a16.59,16.59,0,0,1,0-10Zm3.12,8.78a10.58,10.58,0,0,0,1.57,3.36,8.19,8.19,0,0,0,2.75,2.4,9.34,9.34,0,0,0,8,0,8.19,8.19,0,0,0,2.75-2.4,10.58,10.58,0,0,0,1.57-3.36,14.61,14.61,0,0,0,0-7.58,10.42,10.42,0,0,0-1.57-3.35,8,8,0,0,0-2.75-2.4,9.25,9.25,0,0,0-8,0,8,8,0,0,0-2.75,2.4,10.42,10.42,0,0,0-1.57,3.35,14.61,14.61,0,0,0,0,7.58Z"/><path class="cls-1" d="M89.41,12.33V23.24h13.42V12.33h3.39V37.71h-3.39V26.09H89.41V37.71H86V12.33Z"/><path class="cls-1" d="M118.25,12.33V34.87h13.5v2.84H114.86V12.33Z"/><path class="cls-1" d="M142.49,12.33l8,21.33,8.07-21.33h4.64V37.71H160V16.6H160l-8,21.11h-2.9l-8-21.11h-.07V37.71h-3.21V12.33Z"/><path class="cls-1" d="M182.61,12.33l10,25.38h-3.75L186,30.07H175.26l-2.86,7.64h-3.46l9.92-25.38ZM185,27.22l-4.25-11.83h-.07l-4.32,11.83Z"/><path class="cls-1" d="M213.54,15.92a7.87,7.87,0,0,0-4.62-1.35,8.3,8.3,0,0,0-3.91.85,7.93,7.93,0,0,0-2.68,2.29A9.88,9.88,0,0,0,200.78,21a14.87,14.87,0,0,0-.5,3.84,16.53,16.53,0,0,0,.5,4.11,9.81,9.81,0,0,0,1.55,3.38,7.7,7.7,0,0,0,2.7,2.29,8.38,8.38,0,0,0,3.93.85,7.58,7.58,0,0,0,3-.55,6.75,6.75,0,0,0,2.25-1.53,7,7,0,0,0,1.48-2.33,9.8,9.8,0,0,0,.64-2.91h3.39a11.46,11.46,0,0,1-3.32,7.46,10.76,10.76,0,0,1-7.71,2.67,12.47,12.47,0,0,1-5.18-1,10.24,10.24,0,0,1-3.67-2.79,12,12,0,0,1-2.2-4.2,17.74,17.74,0,0,1-.73-5.19,16.72,16.72,0,0,1,.79-5.21,12.4,12.4,0,0,1,2.3-4.24,10.73,10.73,0,0,1,3.78-2.87,12.22,12.22,0,0,1,5.2-1,13,13,0,0,1,3.78.54,10.25,10.25,0,0,1,3.18,1.56,8.85,8.85,0,0,1,2.32,2.58A9.37,9.37,0,0,1,219.45,20h-3.39A6.26,6.26,0,0,0,213.54,15.92Z"/><path class="cls-1" d="M230.37,12.33V23.24H243.8V12.33h3.39V37.71H243.8V26.09H230.37V37.71H227V12.33Z"/><path class="cls-1" d="M273.42,12.33v2.84h-14.2v8.07h13.24v2.85H259.22v8.78h14.31v2.84h-17.7V12.33Z"/><path class="cls-1" d="M292.7,12.33a8.38,8.38,0,0,1,5.69,1.78A6.09,6.09,0,0,1,300.45,19,7.69,7.69,0,0,1,299.39,23,5.38,5.38,0,0,1,296,25.41v.07a4.64,4.64,0,0,1,1.8.71,3.91,3.91,0,0,1,1.11,1.19,5.9,5.9,0,0,1,.61,1.55,16.11,16.11,0,0,1,.3,1.78c.05.62.08,1.24.11,1.88a16.8,16.8,0,0,0,.17,1.89,12.22,12.22,0,0,0,.42,1.76,4.12,4.12,0,0,0,.8,1.47h-3.79a2.22,2.22,0,0,1-.48-1.06,12.69,12.69,0,0,1-.16-1.52c0-.55-.05-1.15-.07-1.79a11.63,11.63,0,0,0-.21-1.88c-.1-.62-.22-1.21-.36-1.76a4,4,0,0,0-.68-1.46,3.3,3.3,0,0,0-1.21-1,4.52,4.52,0,0,0-2-.37H284.1V37.71h-3.39V12.33Zm.71,11.52a4.87,4.87,0,0,0,1.88-.7,3.78,3.78,0,0,0,1.28-1.38,4.68,4.68,0,0,0,.48-2.26A4.52,4.52,0,0,0,296,16.38a4.41,4.41,0,0,0-3.46-1.21H284.1V24h7.06A13.5,13.5,0,0,0,293.41,23.85Z"/><path class="cls-1" d="M333.92,0V18.8L353.12,0h6.53l-16,15.21,16.6,22.5h-6.36L340.23,18.64l-6.31,5.87v13.2h-5V0Z"/><path class="cls-1" d="M378.14,12.33l10,25.38h-3.75l-2.78-7.64H370.79l-2.86,7.64h-3.46l9.92-25.38Zm2.36,14.89-4.25-11.83h-.07l-4.32,11.83Z"/><path class="cls-1" d="M397.2,12.33V37.71h-3.39V12.33Z"/><path class="cls-1" d="M418.75,15.8a7.23,7.23,0,0,0-4.34-1.23,10.56,10.56,0,0,0-2.11.21,5.65,5.65,0,0,0-1.84.71,3.82,3.82,0,0,0-1.28,1.34,4.1,4.1,0,0,0-.48,2.08,2.66,2.66,0,0,0,.69,1.9A5.28,5.28,0,0,0,411.25,22a15.37,15.37,0,0,0,2.62.76c1,.2,2,.42,3,.66s2,.52,3,.84a10.06,10.06,0,0,1,2.63,1.29A5.94,5.94,0,0,1,425,30.74a6.32,6.32,0,0,1-.91,3.47,7.61,7.61,0,0,1-2.34,2.35,10.26,10.26,0,0,1-3.19,1.31,15.73,15.73,0,0,1-3.52.41,15.18,15.18,0,0,1-4.05-.53,10.28,10.28,0,0,1-3.36-1.62,7.72,7.72,0,0,1-2.28-2.77,8.9,8.9,0,0,1-.84-4h3.21a5.67,5.67,0,0,0,.63,2.75A5.49,5.49,0,0,0,410,34a7,7,0,0,0,2.37,1.11,11.35,11.35,0,0,0,2.79.35,12.86,12.86,0,0,0,2.3-.21,6.9,6.9,0,0,0,2.09-.73,4.11,4.11,0,0,0,1.5-1.4,4.17,4.17,0,0,0,.57-2.28,3.13,3.13,0,0,0-.7-2.13,5.11,5.11,0,0,0-1.85-1.34,13.78,13.78,0,0,0-2.63-.83l-3-.66c-1-.22-2-.48-3-.78a11.2,11.2,0,0,1-2.62-1.17A5.69,5.69,0,0,1,406,22.05a5.56,5.56,0,0,1-.69-2.9,6.53,6.53,0,0,1,2.87-5.63,9.64,9.64,0,0,1,3-1.35,13,13,0,0,1,3.41-.45,13.58,13.58,0,0,1,3.64.47,8.23,8.23,0,0,1,2.95,1.45,7.16,7.16,0,0,1,2,2.51,9.1,9.1,0,0,1,.8,3.61h-3.21A5.25,5.25,0,0,0,418.75,15.8Z"/><path class="cls-1" d="M449.78,12.33v2.84h-14.2v8.07h13.24v2.85H435.58v8.78h14.31v2.84H432.18V12.33Z"/><path class="cls-1" d="M469.06,12.33a8.38,8.38,0,0,1,5.69,1.78A6.08,6.08,0,0,1,476.8,19,7.69,7.69,0,0,1,475.75,23a5.38,5.38,0,0,1-3.37,2.38v.07a4.64,4.64,0,0,1,1.8.71,4,4,0,0,1,1.11,1.19,5.55,5.55,0,0,1,.6,1.55,14,14,0,0,1,.31,1.78c.05.62.08,1.24.11,1.88a16.8,16.8,0,0,0,.17,1.89,13.7,13.7,0,0,0,.41,1.76,4.3,4.3,0,0,0,.81,1.47h-3.79a2.13,2.13,0,0,1-.48-1.06,10.92,10.92,0,0,1-.16-1.52c0-.55,0-1.15-.07-1.79a12.87,12.87,0,0,0-.21-1.88c-.1-.62-.22-1.21-.36-1.76a4,4,0,0,0-.68-1.46,3.3,3.3,0,0,0-1.21-1,4.52,4.52,0,0,0-2-.37h-8.28V37.71h-3.4V12.33Zm.71,11.52a4.87,4.87,0,0,0,1.88-.7,3.78,3.78,0,0,0,1.28-1.38,4.68,4.68,0,0,0,.48-2.26,4.52,4.52,0,0,0-1.07-3.13,4.43,4.43,0,0,0-3.46-1.21h-8.42V24h7.06A13.5,13.5,0,0,0,469.77,23.85Z"/><path class="cls-1" d="M519,0l2.63,0c.93,0,1.86.07,2.78.15a22.76,22.76,0,0,1,2.57.4,6.53,6.53,0,0,1,2,.79,9.83,9.83,0,0,1,3.16,3.07,8.44,8.44,0,0,1,1.3,4.8A9.23,9.23,0,0,1,532,14.45a8.55,8.55,0,0,1-4.16,3.24v.11A8.68,8.68,0,0,1,533.19,21a9.44,9.44,0,0,1,1.86,5.91,11.31,11.31,0,0,1-.74,4,10.25,10.25,0,0,1-2.2,3.46,11.24,11.24,0,0,1-3.61,2.43,12.54,12.54,0,0,1-5,.92h-18.3V0Zm1.38,16.22c2.86,0,4.92-.51,6.18-1.51a5.45,5.45,0,0,0,1.88-4.52A6.6,6.6,0,0,0,527.78,7,4.44,4.44,0,0,0,526,5.23a6.88,6.88,0,0,0-2.57-.82,25.24,25.24,0,0,0-3.1-.18H510.28v12Zm2.55,17.27a7.26,7.26,0,0,0,5.22-1.8,6.55,6.55,0,0,0,1.88-5,6.14,6.14,0,0,0-.69-3.07,5.38,5.38,0,0,0-1.83-1.93,7.9,7.9,0,0,0-2.62-1,16.33,16.33,0,0,0-3.08-.29H510.28V33.49Z"/><path class="cls-1" d="M562.38,12.33v2.84H548.17v8.07h13.25v2.85H548.17v8.78h14.32v2.84H544.78V12.33Z"/><path class="cls-1" d="M585.06,15.92a7.87,7.87,0,0,0-4.62-1.35,8.33,8.33,0,0,0-3.91.85,7.8,7.8,0,0,0-2.67,2.29A9.9,9.9,0,0,0,572.3,21a14.87,14.87,0,0,0-.5,3.84,16.53,16.53,0,0,0,.5,4.11,9.82,9.82,0,0,0,1.56,3.38,7.67,7.67,0,0,0,2.69,2.29,8.38,8.38,0,0,0,3.93.85,7.54,7.54,0,0,0,3-.55,6.65,6.65,0,0,0,2.25-1.53,7,7,0,0,0,1.48-2.33,9.8,9.8,0,0,0,.64-2.91h3.39a11.46,11.46,0,0,1-3.32,7.46,10.76,10.76,0,0,1-7.71,2.67,12.39,12.39,0,0,1-5.17-1,10.19,10.19,0,0,1-3.68-2.79,12,12,0,0,1-2.2-4.2,18.08,18.08,0,0,1-.73-5.19,16.72,16.72,0,0,1,.79-5.21,12.4,12.4,0,0,1,2.3-4.24,10.73,10.73,0,0,1,3.78-2.87,12.26,12.26,0,0,1,5.2-1,13,13,0,0,1,3.78.54,10.25,10.25,0,0,1,3.18,1.56,8.85,8.85,0,0,1,2.32,2.58A9.37,9.37,0,0,1,591,20h-3.39A6.26,6.26,0,0,0,585.06,15.92Z"/><path class="cls-1" d="M601.89,12.33V25l12.93-12.66h4.39L608.46,22.57l11.18,15.14h-4.29l-9.21-12.83-4.25,3.94v8.89H598.5V12.33Z"/><path class="cls-1" d="M643,12.33v2.84H628.77v8.07H642v2.85H628.77v8.78h14.32v2.84H625.38V12.33Z"/><path class="cls-1" d="M662.26,12.33A8.38,8.38,0,0,1,668,14.11,6.08,6.08,0,0,1,670,19,7.69,7.69,0,0,1,669,23a5.4,5.4,0,0,1-3.37,2.38v.07a4.71,4.71,0,0,1,1.8.71,4.17,4.17,0,0,1,1.11,1.19,5.55,5.55,0,0,1,.6,1.55,16.08,16.08,0,0,1,.31,1.78c0,.62.08,1.24.1,1.88s.09,1.27.18,1.89a12.21,12.21,0,0,0,.41,1.76,4.3,4.3,0,0,0,.81,1.47h-3.79a2,2,0,0,1-.48-1.06,10.92,10.92,0,0,1-.16-1.52c0-.55-.05-1.15-.07-1.79a12.88,12.88,0,0,0-.22-1.88,17.12,17.12,0,0,0-.35-1.76,4.18,4.18,0,0,0-.68-1.46,3.3,3.3,0,0,0-1.21-1,4.52,4.52,0,0,0-2-.37h-8.29V37.71h-3.39V12.33ZM663,23.85a4.87,4.87,0,0,0,1.88-.7,3.78,3.78,0,0,0,1.28-1.38,4.68,4.68,0,0,0,.48-2.26,4.52,4.52,0,0,0-1.07-3.13,4.43,4.43,0,0,0-3.46-1.21h-8.43V24h7.07A13.5,13.5,0,0,0,663,23.85Z"/><path class="cls-1" d="M705.44,0l11.94,31.69L729.36,0h6.9V37.71h-4.78V6.34h-.1L719.55,37.71h-4.3L703.43,6.34h-.11V37.71h-4.77V0Z"/><path class="cls-1" d="M747.18,20a12.6,12.6,0,0,1,2.31-4.25,11.11,11.11,0,0,1,3.82-2.95,13.28,13.28,0,0,1,10.63,0,11.11,11.11,0,0,1,3.82,2.95A12.6,12.6,0,0,1,770.07,20a16.79,16.79,0,0,1,0,10,12.55,12.55,0,0,1-2.31,4.24,11,11,0,0,1-3.82,2.94,13.62,13.62,0,0,1-10.63,0,11,11,0,0,1-3.82-2.94A12.55,12.55,0,0,1,747.18,30a16.79,16.79,0,0,1,0-10Zm3.13,8.78a10.16,10.16,0,0,0,1.57,3.36,8.09,8.09,0,0,0,2.75,2.4,9.32,9.32,0,0,0,8,0,8.09,8.09,0,0,0,2.75-2.4,10.16,10.16,0,0,0,1.57-3.36,14.61,14.61,0,0,0,0-7.58,10,10,0,0,0-1.57-3.35,7.88,7.88,0,0,0-2.75-2.4,9.22,9.22,0,0,0-8,0,7.88,7.88,0,0,0-2.75,2.4,10,10,0,0,0-1.57,3.35,14.61,14.61,0,0,0,0,7.58Z"/><path class="cls-1" d="M781.43,12.33V23.24h13.43V12.33h3.39V37.71h-3.39V26.09H781.43V37.71H778V12.33Z"/><path class="cls-1" d="M818.88,12.33a8.38,8.38,0,0,1,5.69,1.78A6.09,6.09,0,0,1,826.63,19,7.69,7.69,0,0,1,825.57,23a5.38,5.38,0,0,1-3.37,2.38v.07a4.64,4.64,0,0,1,1.8.71,4,4,0,0,1,1.11,1.19,5.55,5.55,0,0,1,.6,1.55,14,14,0,0,1,.31,1.78c.05.62.08,1.24.11,1.88a16.8,16.8,0,0,0,.17,1.89,13.7,13.7,0,0,0,.41,1.76,4.3,4.3,0,0,0,.81,1.47h-3.79a2.22,2.22,0,0,1-.48-1.06,10.92,10.92,0,0,1-.16-1.52c0-.55-.05-1.15-.07-1.79a12.87,12.87,0,0,0-.21-1.88c-.1-.62-.22-1.21-.36-1.76a4,4,0,0,0-.68-1.46,3.3,3.3,0,0,0-1.21-1,4.52,4.52,0,0,0-2-.37h-8.28V37.71h-3.39V12.33Zm.71,11.52a4.87,4.87,0,0,0,1.88-.7,3.78,3.78,0,0,0,1.28-1.38,4.68,4.68,0,0,0,.48-2.26,4.52,4.52,0,0,0-1.07-3.13,4.43,4.43,0,0,0-3.46-1.21h-8.42V24h7.06A13.5,13.5,0,0,0,819.59,23.85Z"/><path class="cls-1" d="M843.72,26.41v2.84H833.41V26.41Z"/><path class="cls-1" d="M878.86,0V4.23H857.75v12h19.68v4.22H857.75V33.49H879v4.22H852.71V0Z"/><path class="cls-1" d="M903.68,37.41a12.17,12.17,0,0,1-4.47.87,11.92,11.92,0,0,1-5.1-1.05,11.62,11.62,0,0,1-3.82-2.82,12.41,12.41,0,0,1-2.39-4.09,14.16,14.16,0,0,1-.82-4.8,17.66,17.66,0,0,1,.77-5.28,12.91,12.91,0,0,1,2.28-4.39,11.09,11.09,0,0,1,3.78-3,12,12,0,0,1,5.3-1.12,15.4,15.4,0,0,1,3.91.48,9.92,9.92,0,0,1,3.29,1.52,9,9,0,0,1,2.43,2.61,10.33,10.33,0,0,1,1.33,3.82h-3.39a6.43,6.43,0,0,0-.93-2.51,6.09,6.09,0,0,0-1.67-1.72,7.42,7.42,0,0,0-2.27-1,10.24,10.24,0,0,0-2.7-.34,8.16,8.16,0,0,0-4,.92,8.06,8.06,0,0,0-2.71,2.44A10.62,10.62,0,0,0,891,21.38a15.92,15.92,0,0,0-.5,4,12.75,12.75,0,0,0,.57,3.82,10,10,0,0,0,1.68,3.24,7.93,7.93,0,0,0,6.49,3.07,9.09,9.09,0,0,0,3.54-.64,7.39,7.39,0,0,0,2.59-1.76,7.23,7.23,0,0,0,1.58-2.63,8.46,8.46,0,0,0,.47-3.25h-8.14V24.34h11.17V37.71h-2.14l-.89-3.16A8.47,8.47,0,0,1,903.68,37.41Z"/><path class="cls-1" d="M933.84,37.41a12.11,12.11,0,0,1-4.46.87,11.94,11.94,0,0,1-5.11-1.05,11.62,11.62,0,0,1-3.82-2.82,12.59,12.59,0,0,1-2.39-4.09,14.16,14.16,0,0,1-.82-4.8,18,18,0,0,1,.77-5.28,12.91,12.91,0,0,1,2.28-4.39,11.12,11.12,0,0,1,3.79-3,11.89,11.89,0,0,1,5.3-1.12,15.46,15.46,0,0,1,3.91.48,9.87,9.87,0,0,1,3.28,1.52A9,9,0,0,1,939,16.33a10.33,10.33,0,0,1,1.34,3.82H937a6.76,6.76,0,0,0-.93-2.51,6.12,6.12,0,0,0-1.68-1.72,7.31,7.31,0,0,0-2.27-1,10.17,10.17,0,0,0-2.69-.34,7.76,7.76,0,0,0-6.7,3.36,10.62,10.62,0,0,0-1.55,3.45,15.92,15.92,0,0,0-.5,4,12.75,12.75,0,0,0,.57,3.82,10,10,0,0,0,1.68,3.24,8.38,8.38,0,0,0,2.73,2.24,8.21,8.21,0,0,0,3.77.83,9,9,0,0,0,3.53-.64,7.3,7.3,0,0,0,2.59-1.76,7.39,7.39,0,0,0,1.59-2.63,8.46,8.46,0,0,0,.46-3.25h-8.14V24.34h11.18V37.71h-2.15l-.89-3.16A8.47,8.47,0,0,1,933.84,37.41Z"/><path class="cls-1" d="M966.25,12.33v2.84H952v8.07h13.25v2.85H952v8.78h14.32v2.84H948.65V12.33Z"/><path class="cls-1" d="M985.53,12.33a8.38,8.38,0,0,1,5.69,1.78,6.08,6.08,0,0,1,2,4.87,7.69,7.69,0,0,1-1,4.05,5.4,5.4,0,0,1-3.37,2.38v.07a4.64,4.64,0,0,1,1.8.71,4.17,4.17,0,0,1,1.11,1.19,5.55,5.55,0,0,1,.6,1.55,16.08,16.08,0,0,1,.31,1.78c0,.62.08,1.24.1,1.88s.09,1.27.18,1.89a12.21,12.21,0,0,0,.41,1.76,4.3,4.3,0,0,0,.81,1.47h-3.79a2,2,0,0,1-.48-1.06,10.92,10.92,0,0,1-.16-1.52c0-.55,0-1.15-.07-1.79a12.88,12.88,0,0,0-.22-1.88,17.12,17.12,0,0,0-.35-1.76,4.18,4.18,0,0,0-.68-1.46,3.3,3.3,0,0,0-1.21-1,4.52,4.52,0,0,0-2-.37h-8.29V37.71h-3.39V12.33Zm.71,11.52a4.87,4.87,0,0,0,1.88-.7,3.78,3.78,0,0,0,1.28-1.38,4.68,4.68,0,0,0,.48-2.26,4.52,4.52,0,0,0-1.07-3.13,4.43,4.43,0,0,0-3.46-1.21h-8.43V24H984A13.5,13.5,0,0,0,986.24,23.85Z"/><path class="cls-1" d="M41.5,71.78A10.59,10.59,0,0,1,48.66,74a7.68,7.68,0,0,1,2.58,6.13,9.59,9.59,0,0,1-1.33,5.09,6.76,6.76,0,0,1-4.24,3v.09a5.68,5.68,0,0,1,2.27.9,4.83,4.83,0,0,1,1.39,1.5,6.39,6.39,0,0,1,.76,1.94,19.18,19.18,0,0,1,.39,2.23c.06.78.1,1.57.13,2.37a20.25,20.25,0,0,0,.22,2.37,14.87,14.87,0,0,0,.52,2.21,5.59,5.59,0,0,0,1,1.86H47.6a2.64,2.64,0,0,1-.6-1.34,13,13,0,0,1-.2-1.9c0-.7-.06-1.45-.09-2.26a15.63,15.63,0,0,0-.27-2.37c-.12-.77-.27-1.51-.45-2.21a5.32,5.32,0,0,0-.85-1.83,4.19,4.19,0,0,0-1.53-1.25,5.59,5.59,0,0,0-2.51-.47H30.69v13.63H26.42V71.78Zm.9,14.48a6.17,6.17,0,0,0,2.35-.87,4.71,4.71,0,0,0,1.62-1.75A5.85,5.85,0,0,0,47,80.81a5.73,5.73,0,0,0-1.35-3.94,5.56,5.56,0,0,0-4.35-1.52H30.69V86.48h8.88A17.18,17.18,0,0,0,42.4,86.26Z"/><path class="cls-1" d="M86.48,83.38v2.28H75.12v6.45H85.71v2.28H75.12v7H86.57v2.28H72.4V83.38Z"/><path class="cls-1" d="M112.68,86.25A6.3,6.3,0,0,0,109,85.17a6.61,6.61,0,0,0-3.13.69,6,6,0,0,0-2.14,1.83,8.09,8.09,0,0,0-1.25,2.63,12,12,0,0,0-.4,3.07,13.42,13.42,0,0,0,.4,3.29,8,8,0,0,0,1.25,2.7,6.06,6.06,0,0,0,2.15,1.83,6.7,6.7,0,0,0,3.14.69,6.17,6.17,0,0,0,2.39-.44,5.49,5.49,0,0,0,1.8-1.23,5.57,5.57,0,0,0,1.18-1.86A7.69,7.69,0,0,0,114.9,96h2.71a9.19,9.19,0,0,1-2.66,6,8.61,8.61,0,0,1-6.16,2.13,9.94,9.94,0,0,1-4.15-.81,8.09,8.09,0,0,1-2.94-2.23A9.6,9.6,0,0,1,100,97.74a14.21,14.21,0,0,1-.59-4.15,13.38,13.38,0,0,1,.63-4.16,10,10,0,0,1,1.84-3.4,8.57,8.57,0,0,1,3-2.29A9.77,9.77,0,0,1,109,82.9a10.32,10.32,0,0,1,3,.43,8,8,0,0,1,2.54,1.25,7,7,0,0,1,1.86,2.06,7.56,7.56,0,0,1,1,2.86H114.7A5.08,5.08,0,0,0,112.68,86.25Z"/><path class="cls-1" d="M134.2,83.38v8.73h10.74V83.38h2.71v20.31h-2.71v-9.3H134.2v9.3h-2.71V83.38Z"/><path class="cls-1" d="M160.45,85.66V83.38h16.3v2.28H170v18h-2.72v-18Z"/><path class="cls-1" d="M199.73,86.15a5.81,5.81,0,0,0-3.47-1,8.57,8.57,0,0,0-1.69.17,4.79,4.79,0,0,0-1.47.57,3,3,0,0,0-1,1.07,3.37,3.37,0,0,0-.38,1.66,2.13,2.13,0,0,0,.55,1.53,4.39,4.39,0,0,0,1.49,1,13.12,13.12,0,0,0,2.1.61c.78.16,1.57.34,2.38.53s1.61.41,2.39.66a8.23,8.23,0,0,1,2.1,1,5.39,5.39,0,0,1,1.31,6.93,6,6,0,0,1-1.87,1.87,8,8,0,0,1-2.56,1.06,12.89,12.89,0,0,1-2.81.32,12.19,12.19,0,0,1-3.24-.42,8.2,8.2,0,0,1-2.69-1.3A6,6,0,0,1,189,100.2a7,7,0,0,1-.67-3.19h2.57a4.41,4.41,0,0,0,1.81,3.72,5.45,5.45,0,0,0,1.9.88,8.69,8.69,0,0,0,2.23.29,10.59,10.59,0,0,0,1.84-.17,5.51,5.51,0,0,0,1.67-.59,3.39,3.39,0,0,0,1.2-1.12A3.34,3.34,0,0,0,202,98.2a2.57,2.57,0,0,0-.56-1.71A4.09,4.09,0,0,0,200,95.43a10.57,10.57,0,0,0-2.1-.67l-2.38-.53c-.81-.18-1.6-.39-2.39-.62a8.51,8.51,0,0,1-2.09-.94A4.21,4.21,0,0,1,189,88.84a5.37,5.37,0,0,1,.63-2.66,5.6,5.6,0,0,1,1.67-1.85,7.77,7.77,0,0,1,2.37-1.08,10.87,10.87,0,0,1,2.73-.35,10.73,10.73,0,0,1,2.91.37,6.52,6.52,0,0,1,2.36,1.16,5.75,5.75,0,0,1,1.6,2,7.2,7.2,0,0,1,.64,2.89h-2.57A4.26,4.26,0,0,0,199.73,86.15Z"/><path class="cls-1" d="M227.07,83.38l8,20.31h-3l-2.23-6.12h-8.62l-2.29,6.12h-2.77l7.94-20.31ZM229,95.3l-3.39-9.47h-.06L222,95.3Z"/><path class="cls-1" d="M250.4,83.38l10.74,16.47h.06V83.38h2.57v20.31h-3l-10.66-16.3h0v16.3h-2.57V83.38Z"/><path class="cls-1" d="M294.26,103.69l-4.65-17.07h-.06l-4.71,17.07H282l-5.22-20.31h2.77l4,16.9h.05l4.57-16.9h2.94l4.52,16.9h.05l4.14-16.9h2.72l-5.46,20.31Z"/><path class="cls-1" d="M324.16,83.38l8,20.31h-3l-2.22-6.12h-8.63L316,103.69h-2.77l7.94-20.31Zm-2.91-4.52v3h-2.57v-3Zm4.8,16.44-3.4-9.47h-.06l-3.45,9.47Zm.57-16.44v3h-2.57v-3Z"/><path class="cls-1" d="M347.35,83.38v18h10.8v2.28H344.64V83.38Z"/><path class="cls-1" d="M366.23,85.66V83.38h16.31v2.28h-6.8v18H373v-18Z"/><path class="cls-1" d="M409.38,83.38v2.28H398v6.45h10.6v2.28H398v7h11.45v2.28H395.3V83.38Z"/><path class="cls-1" d="M453.76,94.64v2.28H439.48V94.64Z"/><path class="cls-1" d="M499.63,71.78l12.52,31.91h-4.71l-3.5-9.61H490.39l-3.59,9.61h-4.35l12.47-31.91Zm3,18.72-5.34-14.88h-.09L491.74,90.5Z"/><path class="cls-1" d="M528.37,85.66V83.38h16.3v2.28h-6.8v18h-2.71v-18Z"/><path class="cls-1" d="M555.27,85.66V83.38h16.3v2.28h-6.79v18h-2.72v-18Z"/><path class="cls-1" d="M583.81,89.54a10.08,10.08,0,0,1,1.84-3.4,9,9,0,0,1,3.06-2.36,10.73,10.73,0,0,1,8.51,0,9,9,0,0,1,3,2.36,10.08,10.08,0,0,1,1.84,3.4,13.18,13.18,0,0,1,0,8,10.08,10.08,0,0,1-1.84,3.4,8.88,8.88,0,0,1-3,2.35,11,11,0,0,1-8.51,0,8.83,8.83,0,0,1-3.06-2.35,10.08,10.08,0,0,1-1.84-3.4,13.18,13.18,0,0,1,0-8Zm2.5,7a8,8,0,0,0,1.25,2.69,6.47,6.47,0,0,0,2.2,1.92,7.38,7.38,0,0,0,6.4,0,6.38,6.38,0,0,0,2.2-1.92,8.22,8.22,0,0,0,1.26-2.69,11.93,11.93,0,0,0,0-6,8.32,8.32,0,0,0-1.26-2.69,6.38,6.38,0,0,0-2.2-1.92,7.38,7.38,0,0,0-6.4,0,6.47,6.47,0,0,0-2.2,1.92,8.09,8.09,0,0,0-1.25,2.69,11.64,11.64,0,0,0,0,6Z"/><path class="cls-1" d="M626.14,83.38a6.76,6.76,0,0,1,4.56,1.42,4.91,4.91,0,0,1,1.64,3.9,6.16,6.16,0,0,1-.84,3.24,4.32,4.32,0,0,1-2.7,1.91v.06a3.65,3.65,0,0,1,1.44.56,3.24,3.24,0,0,1,.89,1,4.15,4.15,0,0,1,.48,1.23,12.52,12.52,0,0,1,.25,1.43c0,.49.06,1,.08,1.5a12.26,12.26,0,0,0,.15,1.51,9,9,0,0,0,.32,1.41,3.57,3.57,0,0,0,.65,1.18h-3a1.72,1.72,0,0,1-.39-.85,8.54,8.54,0,0,1-.12-1.21q0-.67-.06-1.44a10.9,10.9,0,0,0-.17-1.51,13.82,13.82,0,0,0-.29-1.4,3.15,3.15,0,0,0-.54-1.17,2.73,2.73,0,0,0-1-.8,3.62,3.62,0,0,0-1.6-.3h-6.63v8.68h-2.71V83.38Zm.58,9.22a4,4,0,0,0,1.5-.56,3,3,0,0,0,1-1.11,4.19,4.19,0,0,0-.47-4.31,3.54,3.54,0,0,0-2.77-1h-6.74v7.08h5.66A11.62,11.62,0,0,0,626.72,92.6Z"/><path class="cls-1" d="M649.48,83.38l10.73,16.47h.06V83.38h2.57v20.31h-3l-10.65-16.3h-.06v16.3h-2.57V83.38Z"/><path class="cls-1" d="M691.83,83.38v2.28H680.46v6.45h10.6v2.28h-10.6v7h11.45v2.28H677.75V83.38Z"/><path class="cls-1" d="M714.13,103.69h-2.71V95.38l-7.89-12h3.23l6.11,9.67,6-9.67h3.09l-7.8,12Z"/><path class="cls-1" d="M744.93,86.15a5.81,5.81,0,0,0-3.47-1,8.73,8.73,0,0,0-1.69.17,4.79,4.79,0,0,0-1.47.57,3,3,0,0,0-1,1.07,3.37,3.37,0,0,0-.38,1.66,2.09,2.09,0,0,0,.56,1.53,4.25,4.25,0,0,0,1.48,1,13.12,13.12,0,0,0,2.1.61c.78.16,1.57.34,2.38.53s1.61.41,2.39.66a8.23,8.23,0,0,1,2.1,1,5,5,0,0,1,1.48,1.65,5.11,5.11,0,0,1,.56,2.5,5.05,5.05,0,0,1-.73,2.78,5.86,5.86,0,0,1-1.87,1.87,8,8,0,0,1-2.56,1.06,12.89,12.89,0,0,1-2.81.32,12.19,12.19,0,0,1-3.24-.42,8.06,8.06,0,0,1-2.68-1.3,6.12,6.12,0,0,1-1.83-2.22,7,7,0,0,1-.67-3.19h2.57a4.41,4.41,0,0,0,1.81,3.72,5.54,5.54,0,0,0,1.9.88,8.74,8.74,0,0,0,2.23.29,10.5,10.5,0,0,0,1.84-.17,5.51,5.51,0,0,0,1.67-.59,3.23,3.23,0,0,0,1.2-1.12,3.34,3.34,0,0,0,.46-1.82,2.57,2.57,0,0,0-.56-1.71,4.14,4.14,0,0,0-1.48-1.06,10.57,10.57,0,0,0-2.1-.67l-2.39-.53c-.81-.18-1.6-.39-2.38-.62a8.75,8.75,0,0,1-2.1-.94,4.18,4.18,0,0,1-2-3.83,5.2,5.2,0,0,1,2.3-4.51,7.56,7.56,0,0,1,2.37-1.08,11.18,11.18,0,0,1,5.63,0,6.44,6.44,0,0,1,2.36,1.16,5.64,5.64,0,0,1,1.6,2,7.2,7.2,0,0,1,.64,2.89h-2.57A4.26,4.26,0,0,0,744.93,86.15Z"/><path class="cls-1" d="M802.58,83.38l8,20.31h-3l-2.23-6.12H796.7l-2.29,6.12h-2.77l7.94-20.31Zm1.88,11.92-3.4-9.47h0l-3.46,9.47Z"/><path class="cls-1" d="M818.25,85.66V83.38h16.31v2.28h-6.8v18h-2.71v-18Z"/><path class="cls-1" d="M883.17,71.78v28.33h17v3.58H878.91V71.78Z"/><path class="cls-1" d="M927.64,83.38l8,20.31h-3l-2.23-6.12h-8.62l-2.29,6.12H916.7l7.94-20.31Zm1.88,11.92-3.4-9.47h0l-3.46,9.47Z"/><path class="cls-1" d="M963,103.69l-4.65-17.07h-.06l-4.71,17.07h-2.83l-5.23-20.31h2.77l4,16.9h.06l4.57-16.9h2.94l4.51,16.9h.06l4.14-16.9h2.71l-5.45,20.31Z"/></g></svg>