<?xml version="1.0" encoding="utf-8"?>
<!-- Generator: Adobe Illustrator 24.0.1, SVG Export Plug-In . SVG Version: 6.00 Build 0)  -->
<svg version="1.1" id="Layer_1" xmlns="http://www.w3.org/2000/svg" xmlns:xlink="http://www.w3.org/1999/xlink" x="0px" y="0px"
	 viewBox="0 0 475 74" style="enable-background:new 0 0 475 74;" xml:space="preserve">
<style type="text/css">
	.st0{fill:#FFFFFF;}
	.st1{fill:url(#SVGID_1_);}
</style>
<g>
	<g>
		<g>
			<path class="st0" d="M15.88,18.37L11.75,3.31H11.7L7.52,18.37H5.02L0.39,0.45h2.45l3.54,14.91h0.05l4.05-14.91h2.61l4,14.91h0.05
				l3.67-14.91h2.4l-4.83,17.92H15.88z"/>
			<path class="st0" d="M26.71,9.96c0.24-0.76,0.61-1.43,1.1-2.02c0.49-0.59,1.1-1.05,1.82-1.4c0.73-0.35,1.57-0.52,2.54-0.52
				c0.97,0,1.81,0.17,2.54,0.52c0.73,0.35,1.33,0.82,1.82,1.4c0.49,0.59,0.85,1.26,1.1,2.02c0.24,0.76,0.37,1.55,0.37,2.37
				c0,0.82-0.12,1.61-0.37,2.37c-0.24,0.76-0.61,1.43-1.1,2.02c-0.49,0.59-1.1,1.05-1.82,1.39c-0.73,0.34-1.57,0.52-2.54,0.52
				c-0.97,0-1.81-0.17-2.54-0.52c-0.73-0.34-1.33-0.81-1.82-1.39c-0.49-0.59-0.85-1.26-1.1-2.02c-0.24-0.76-0.37-1.55-0.37-2.37
				C26.34,11.52,26.46,10.72,26.71,9.96z M28.2,14.14c0.16,0.59,0.41,1.12,0.75,1.6c0.34,0.47,0.78,0.85,1.31,1.14
				c0.53,0.29,1.17,0.43,1.91,0.43c0.74,0,1.37-0.14,1.91-0.43c0.53-0.29,0.97-0.67,1.31-1.14s0.59-1.01,0.75-1.6
				c0.16-0.59,0.24-1.19,0.24-1.8c0-0.61-0.08-1.21-0.24-1.8c-0.16-0.59-0.41-1.12-0.75-1.6s-0.78-0.85-1.31-1.14
				c-0.53-0.29-1.17-0.43-1.91-0.43c-0.74,0-1.37,0.14-1.91,0.43c-0.53,0.29-0.97,0.67-1.31,1.14c-0.34,0.47-0.59,1.01-0.75,1.6
				c-0.16,0.59-0.24,1.19-0.24,1.8C27.96,12.95,28.04,13.55,28.2,14.14z"/>
			<path class="st0" d="M43.05,6.31v5.19h6.4V6.31h1.62v12.06h-1.62v-5.53h-6.4v5.53h-1.62V6.31H43.05z"/>
			<path class="st0" d="M56.82,6.31v10.71h6.44v1.35H55.2V6.31H56.82z"/>
			<path class="st0" d="M68.38,6.31l3.83,10.14l3.85-10.14h2.21v12.06h-1.53V8.33h-0.03l-3.8,10.04h-1.38l-3.8-10.04H67.7v10.04
				h-1.53V6.31H68.38z"/>
			<path class="st0" d="M87.53,6.31l4.75,12.06h-1.79l-1.33-3.63h-5.14l-1.36,3.63h-1.65l4.74-12.06H87.53z M88.65,13.39l-2.03-5.63
				h-0.03l-2.06,5.63H88.65z"/>
			<path class="st0" d="M102.29,8.01c-0.62-0.43-1.35-0.64-2.21-0.64c-0.73,0-1.35,0.14-1.87,0.41c-0.52,0.27-0.94,0.63-1.28,1.09
				c-0.34,0.46-0.58,0.98-0.74,1.56c-0.16,0.59-0.24,1.19-0.24,1.82c0,0.69,0.08,1.34,0.24,1.95c0.16,0.61,0.41,1.15,0.74,1.61
				c0.33,0.46,0.76,0.82,1.29,1.09c0.52,0.27,1.15,0.41,1.87,0.41c0.53,0,1.01-0.09,1.42-0.26c0.41-0.17,0.77-0.42,1.07-0.73
				c0.3-0.31,0.54-0.68,0.71-1.11c0.17-0.43,0.27-0.89,0.31-1.39h1.62c-0.16,1.52-0.69,2.7-1.58,3.55c-0.9,0.84-2.12,1.27-3.68,1.27
				c-0.94,0-1.77-0.16-2.47-0.48c-0.7-0.32-1.29-0.76-1.75-1.33c-0.47-0.56-0.81-1.23-1.05-1.99c-0.23-0.77-0.35-1.59-0.35-2.47
				c0-0.88,0.12-1.7,0.37-2.48c0.25-0.77,0.62-1.44,1.1-2.02c0.48-0.57,1.08-1.03,1.81-1.36c0.72-0.33,1.55-0.5,2.48-0.5
				c0.64,0,1.24,0.08,1.81,0.25c0.57,0.17,1.07,0.42,1.52,0.74c0.44,0.33,0.81,0.73,1.11,1.23c0.3,0.49,0.49,1.06,0.58,1.7h-1.62
				C103.31,9.08,102.91,8.44,102.29,8.01z"/>
			<path class="st0" d="M110.32,6.31v5.19h6.4V6.31h1.62v12.06h-1.62v-5.53h-6.4v5.53h-1.62V6.31H110.32z"/>
			<path class="st0" d="M130.87,6.31v1.35h-6.78v3.84h6.32v1.35h-6.32v4.17h6.83v1.35h-8.45V6.31H130.87z"/>
			<path class="st0" d="M140.06,6.31c1.16,0,2.06,0.28,2.72,0.84c0.65,0.56,0.98,1.33,0.98,2.32c0,0.73-0.17,1.37-0.5,1.93
				c-0.34,0.55-0.87,0.93-1.61,1.13v0.03c0.35,0.07,0.64,0.18,0.86,0.34c0.22,0.16,0.4,0.35,0.53,0.57
				c0.13,0.22,0.23,0.46,0.29,0.73c0.06,0.27,0.11,0.55,0.14,0.84c0.02,0.29,0.04,0.59,0.05,0.9c0.01,0.3,0.04,0.6,0.09,0.9
				c0.05,0.29,0.11,0.57,0.2,0.84c0.09,0.26,0.21,0.5,0.38,0.7h-1.81c-0.11-0.12-0.19-0.29-0.23-0.51
				c-0.04-0.21-0.07-0.45-0.08-0.72c-0.01-0.26-0.02-0.55-0.03-0.85c-0.01-0.3-0.05-0.6-0.1-0.9c-0.05-0.29-0.1-0.57-0.17-0.84
				c-0.07-0.26-0.18-0.5-0.32-0.69c-0.15-0.2-0.34-0.35-0.58-0.47c-0.24-0.12-0.56-0.18-0.95-0.18h-3.95v5.15h-1.62V6.31H140.06z
				 M140.41,11.78c0.34-0.06,0.64-0.17,0.89-0.33c0.26-0.16,0.46-0.38,0.61-0.66c0.15-0.28,0.23-0.63,0.23-1.07
				c0-0.61-0.17-1.1-0.51-1.49c-0.34-0.38-0.89-0.57-1.65-0.57h-4.02v4.21h3.37C139.71,11.86,140.06,11.84,140.41,11.78z"/>
			<path class="st0" d="M159.74,0.45v8.94l9.16-8.94h3.11l-7.62,7.23l7.92,10.69h-3.04l-6.53-9.06l-3.01,2.79v6.28h-2.4V0.45H159.74
				z"/>
			<path class="st0" d="M180.84,6.31l4.75,12.06h-1.79l-1.33-3.63h-5.14l-1.36,3.63h-1.65l4.74-12.06H180.84z M181.96,13.39
				l-2.03-5.63h-0.03l-2.06,5.63H181.96z"/>
			<path class="st0" d="M189.93,6.31v12.06h-1.62V6.31H189.93z"/>
			<path class="st0" d="M200.21,7.95c-0.54-0.39-1.23-0.58-2.07-0.58c-0.34,0-0.68,0.03-1.01,0.1c-0.33,0.07-0.62,0.18-0.88,0.34
				c-0.26,0.16-0.46,0.37-0.61,0.63c-0.15,0.26-0.23,0.59-0.23,0.99c0,0.37,0.11,0.67,0.33,0.9c0.22,0.23,0.52,0.42,0.89,0.57
				c0.37,0.15,0.79,0.27,1.25,0.36c0.47,0.1,0.94,0.2,1.42,0.31c0.48,0.11,0.96,0.24,1.42,0.4c0.47,0.15,0.88,0.36,1.25,0.62
				c0.37,0.26,0.66,0.59,0.89,0.98c0.22,0.39,0.33,0.89,0.33,1.49c0,0.64-0.14,1.19-0.43,1.65c-0.29,0.46-0.66,0.83-1.12,1.11
				c-0.45,0.29-0.96,0.5-1.52,0.63c-0.56,0.13-1.12,0.19-1.68,0.19c-0.68,0-1.33-0.08-1.93-0.25c-0.61-0.17-1.14-0.43-1.6-0.77
				c-0.46-0.34-0.82-0.78-1.09-1.32c-0.27-0.53-0.4-1.17-0.4-1.9h1.53c0,0.51,0.1,0.94,0.3,1.31c0.2,0.37,0.46,0.67,0.78,0.9
				c0.32,0.24,0.7,0.41,1.13,0.52c0.43,0.11,0.87,0.17,1.33,0.17c0.36,0,0.73-0.03,1.1-0.1c0.37-0.07,0.7-0.18,1-0.35
				c0.3-0.16,0.53-0.39,0.72-0.67c0.18-0.28,0.27-0.64,0.27-1.08c0-0.42-0.11-0.75-0.33-1.01c-0.22-0.26-0.52-0.47-0.89-0.63
				c-0.37-0.16-0.79-0.3-1.25-0.4c-0.47-0.1-0.94-0.21-1.42-0.31c-0.48-0.11-0.96-0.23-1.42-0.37c-0.47-0.14-0.88-0.33-1.25-0.56
				c-0.37-0.23-0.66-0.53-0.89-0.9c-0.22-0.37-0.33-0.83-0.33-1.38c0-0.61,0.12-1.13,0.37-1.58c0.25-0.44,0.58-0.81,1-1.1
				c0.41-0.29,0.89-0.5,1.41-0.64c0.53-0.14,1.07-0.21,1.63-0.21c0.62,0,1.2,0.07,1.74,0.22c0.53,0.15,1,0.38,1.41,0.69
				c0.4,0.32,0.72,0.71,0.95,1.19c0.23,0.48,0.36,1.05,0.38,1.72h-1.53C201.07,8.97,200.75,8.34,200.21,7.95z"/>
			<path class="st0" d="M215.03,6.31v1.35h-6.78v3.84h6.32v1.35h-6.32v4.17h6.83v1.35h-8.45V6.31H215.03z"/>
			<path class="st0" d="M224.22,6.31c1.16,0,2.06,0.28,2.72,0.84c0.65,0.56,0.98,1.33,0.98,2.32c0,0.73-0.17,1.37-0.5,1.93
				c-0.34,0.55-0.87,0.93-1.61,1.13v0.03c0.35,0.07,0.64,0.18,0.86,0.34c0.22,0.16,0.4,0.35,0.53,0.57
				c0.13,0.22,0.23,0.46,0.29,0.73c0.06,0.27,0.11,0.55,0.14,0.84c0.02,0.29,0.04,0.59,0.05,0.9c0.01,0.3,0.04,0.6,0.09,0.9
				c0.05,0.29,0.11,0.57,0.2,0.84c0.09,0.26,0.21,0.5,0.38,0.7h-1.81c-0.11-0.12-0.19-0.29-0.23-0.51
				c-0.04-0.21-0.07-0.45-0.08-0.72c-0.01-0.26-0.02-0.55-0.03-0.85c-0.01-0.3-0.05-0.6-0.1-0.9c-0.05-0.29-0.1-0.57-0.17-0.84
				c-0.07-0.26-0.18-0.5-0.32-0.69c-0.15-0.2-0.34-0.35-0.58-0.47c-0.24-0.12-0.56-0.18-0.95-0.18h-3.95v5.15h-1.62V6.31H224.22z
				 M224.56,11.78c0.34-0.06,0.64-0.17,0.89-0.33c0.26-0.16,0.46-0.38,0.61-0.66c0.15-0.28,0.23-0.63,0.23-1.07
				c0-0.61-0.17-1.1-0.51-1.49c-0.34-0.38-0.89-0.57-1.65-0.57h-4.02v4.21h3.37C223.87,11.86,224.22,11.84,224.56,11.78z"/>
			<path class="st0" d="M248.05,0.45c0.39,0,0.81,0,1.25,0.01c0.45,0.01,0.89,0.03,1.33,0.08c0.44,0.04,0.85,0.1,1.23,0.19
				c0.38,0.08,0.7,0.21,0.97,0.38c0.59,0.35,1.09,0.84,1.51,1.46c0.41,0.62,0.62,1.38,0.62,2.28c0,0.95-0.23,1.78-0.7,2.47
				c-0.46,0.69-1.13,1.21-1.99,1.54v0.05c1.11,0.23,1.97,0.74,2.56,1.51c0.59,0.77,0.89,1.71,0.89,2.81c0,0.65-0.12,1.29-0.35,1.91
				c-0.24,0.62-0.59,1.17-1.05,1.64c-0.46,0.48-1.04,0.86-1.72,1.15c-0.68,0.29-1.47,0.44-2.37,0.44h-8.73V0.45H248.05z
				 M248.71,8.15c1.37,0,2.35-0.24,2.95-0.72c0.6-0.48,0.9-1.19,0.9-2.15c0-0.64-0.1-1.14-0.3-1.51c-0.2-0.37-0.48-0.65-0.84-0.85
				c-0.35-0.2-0.76-0.33-1.23-0.39c-0.46-0.06-0.96-0.09-1.48-0.09h-4.81v5.7H248.71z M249.92,16.36c1.06,0,1.89-0.28,2.49-0.85
				c0.6-0.57,0.9-1.36,0.9-2.36c0-0.59-0.11-1.07-0.33-1.46c-0.22-0.38-0.51-0.69-0.87-0.92c-0.36-0.23-0.78-0.38-1.25-0.48
				c-0.47-0.09-0.96-0.14-1.47-0.14h-5.49v6.2H249.92z"/>
			<path class="st0" d="M268.76,6.31v1.35h-6.78v3.84h6.32v1.35h-6.32v4.17h6.83v1.35h-8.45V6.31H268.76z"/>
			<path class="st0" d="M279.58,8.01c-0.62-0.43-1.35-0.64-2.21-0.64c-0.73,0-1.35,0.14-1.87,0.41c-0.52,0.27-0.94,0.63-1.28,1.09
				c-0.34,0.46-0.58,0.98-0.74,1.56c-0.16,0.59-0.24,1.19-0.24,1.82c0,0.69,0.08,1.34,0.24,1.95c0.16,0.61,0.41,1.15,0.74,1.61
				c0.33,0.46,0.76,0.82,1.29,1.09c0.52,0.27,1.15,0.41,1.87,0.41c0.53,0,1.01-0.09,1.42-0.26c0.41-0.17,0.77-0.42,1.07-0.73
				c0.3-0.31,0.54-0.68,0.71-1.11c0.17-0.43,0.27-0.89,0.31-1.39h1.62c-0.16,1.52-0.69,2.7-1.58,3.55c-0.9,0.84-2.12,1.27-3.68,1.27
				c-0.94,0-1.77-0.16-2.47-0.48c-0.7-0.32-1.29-0.76-1.75-1.33c-0.47-0.56-0.82-1.23-1.05-1.99c-0.23-0.77-0.35-1.59-0.35-2.47
				c0-0.88,0.12-1.7,0.38-2.48c0.25-0.77,0.62-1.44,1.1-2.02s1.08-1.03,1.81-1.36c0.72-0.33,1.55-0.5,2.48-0.5
				c0.64,0,1.24,0.08,1.81,0.25s1.07,0.42,1.52,0.74c0.44,0.33,0.81,0.73,1.11,1.23c0.3,0.49,0.49,1.06,0.58,1.7h-1.62
				C280.6,9.08,280.2,8.44,279.58,8.01z"/>
			<path class="st0" d="M287.61,6.31v6.02l6.17-6.02h2.1l-5.13,4.87l5.33,7.2h-2.04l-4.4-6.1l-2.03,1.88v4.22H286V6.31H287.61z"/>
			<path class="st0" d="M307.22,6.31v1.35h-6.78v3.84h6.32v1.35h-6.32v4.17h6.83v1.35h-8.45V6.31H307.22z"/>
			<path class="st0" d="M316.42,6.31c1.16,0,2.06,0.28,2.72,0.84c0.65,0.56,0.98,1.33,0.98,2.32c0,0.73-0.17,1.37-0.5,1.93
				c-0.34,0.55-0.87,0.93-1.61,1.13v0.03c0.35,0.07,0.64,0.18,0.86,0.34c0.22,0.16,0.4,0.35,0.53,0.57
				c0.13,0.22,0.23,0.46,0.29,0.73s0.11,0.55,0.14,0.84c0.02,0.29,0.04,0.59,0.05,0.9s0.04,0.6,0.09,0.9
				c0.05,0.29,0.11,0.57,0.2,0.84c0.09,0.26,0.21,0.5,0.38,0.7h-1.81c-0.11-0.12-0.19-0.29-0.23-0.51
				c-0.04-0.21-0.07-0.45-0.08-0.72c-0.01-0.26-0.02-0.55-0.03-0.85c-0.01-0.3-0.05-0.6-0.1-0.9c-0.05-0.29-0.1-0.57-0.17-0.84
				c-0.07-0.26-0.18-0.5-0.32-0.69c-0.15-0.2-0.34-0.35-0.58-0.47c-0.24-0.12-0.56-0.18-0.95-0.18h-3.95v5.15h-1.62V6.31H316.42z
				 M316.76,11.78c0.34-0.06,0.64-0.17,0.89-0.33c0.26-0.16,0.46-0.38,0.61-0.66c0.15-0.28,0.23-0.63,0.23-1.07
				c0-0.61-0.17-1.1-0.51-1.49c-0.34-0.38-0.89-0.57-1.65-0.57h-4.02v4.21h3.37C316.06,11.86,316.42,11.84,316.76,11.78z"/>
			<path class="st0" d="M337.03,0.45l5.69,15.06l5.72-15.06h3.29v17.92h-2.28V3.46h-0.05l-5.64,14.91h-2.05l-5.64-14.91h-0.05v14.91
				h-2.28V0.45H337.03z"/>
			<path class="st0" d="M356.95,9.96c0.24-0.76,0.61-1.43,1.1-2.02c0.49-0.59,1.1-1.05,1.82-1.4c0.73-0.35,1.57-0.52,2.54-0.52
				s1.81,0.17,2.54,0.52c0.73,0.35,1.33,0.82,1.82,1.4c0.49,0.59,0.85,1.26,1.1,2.02c0.24,0.76,0.37,1.55,0.37,2.37
				c0,0.82-0.12,1.61-0.37,2.37c-0.24,0.76-0.61,1.43-1.1,2.02c-0.49,0.59-1.1,1.05-1.82,1.39c-0.73,0.34-1.57,0.52-2.54,0.52
				s-1.81-0.17-2.54-0.52c-0.73-0.34-1.33-0.81-1.82-1.39c-0.49-0.59-0.85-1.26-1.1-2.02c-0.24-0.76-0.37-1.55-0.37-2.37
				C356.58,11.52,356.7,10.72,356.95,9.96z M358.44,14.14c0.16,0.59,0.41,1.12,0.75,1.6c0.34,0.47,0.78,0.85,1.31,1.14
				c0.53,0.29,1.17,0.43,1.91,0.43c0.74,0,1.37-0.14,1.91-0.43c0.53-0.29,0.97-0.67,1.31-1.14s0.59-1.01,0.75-1.6
				c0.16-0.59,0.24-1.19,0.24-1.8c0-0.61-0.08-1.21-0.24-1.8c-0.16-0.59-0.41-1.12-0.75-1.6s-0.78-0.85-1.31-1.14
				c-0.53-0.29-1.17-0.43-1.91-0.43c-0.74,0-1.37,0.14-1.91,0.43c-0.53,0.29-0.97,0.67-1.31,1.14c-0.34,0.47-0.59,1.01-0.75,1.6
				c-0.16,0.59-0.24,1.19-0.24,1.8C358.2,12.95,358.28,13.55,358.44,14.14z"/>
			<path class="st0" d="M373.29,6.31v5.19h6.41V6.31h1.62v12.06h-1.62v-5.53h-6.41v5.53h-1.62V6.31H373.29z"/>
			<path class="st0" d="M391.16,6.31c1.16,0,2.06,0.28,2.72,0.84c0.65,0.56,0.98,1.33,0.98,2.32c0,0.73-0.17,1.37-0.5,1.93
				c-0.34,0.55-0.87,0.93-1.61,1.13v0.03c0.35,0.07,0.64,0.18,0.86,0.34c0.22,0.16,0.4,0.35,0.53,0.57
				c0.13,0.22,0.23,0.46,0.29,0.73c0.06,0.27,0.11,0.55,0.14,0.84c0.02,0.29,0.04,0.59,0.05,0.9c0.01,0.3,0.04,0.6,0.09,0.9
				c0.05,0.29,0.11,0.57,0.2,0.84c0.09,0.26,0.21,0.5,0.38,0.7h-1.81c-0.11-0.12-0.19-0.29-0.23-0.51
				c-0.04-0.21-0.07-0.45-0.08-0.72c-0.01-0.26-0.02-0.55-0.03-0.85c-0.01-0.3-0.05-0.6-0.1-0.9c-0.05-0.29-0.1-0.57-0.17-0.84
				c-0.07-0.26-0.18-0.5-0.32-0.69c-0.15-0.2-0.34-0.35-0.58-0.47c-0.24-0.12-0.56-0.18-0.95-0.18h-3.95v5.15h-1.62V6.31H391.16z
				 M391.5,11.78c0.34-0.06,0.64-0.17,0.89-0.33c0.26-0.16,0.46-0.38,0.61-0.66c0.15-0.28,0.23-0.63,0.23-1.07
				c0-0.61-0.17-1.1-0.51-1.49c-0.34-0.38-0.89-0.57-1.65-0.57h-4.02v4.21h3.37C390.8,11.86,391.16,11.84,391.5,11.78z"/>
			<path class="st0" d="M403.02,13v1.35h-4.92V13H403.02z"/>
			<path class="st0" d="M419.78,0.45v2.01h-10.07v5.7h9.39v2.01h-9.39v6.2h10.15v2.01h-12.55V0.45H419.78z"/>
			<path class="st0" d="M431.63,18.23c-0.7,0.28-1.41,0.41-2.13,0.41c-0.91,0-1.72-0.17-2.44-0.5c-0.72-0.33-1.32-0.78-1.82-1.34
				c-0.5-0.56-0.88-1.21-1.14-1.94c-0.26-0.73-0.39-1.49-0.39-2.28c0-0.88,0.12-1.72,0.37-2.51c0.24-0.79,0.61-1.49,1.09-2.09
				c0.48-0.6,1.08-1.07,1.81-1.43c0.72-0.35,1.56-0.53,2.53-0.53c0.66,0,1.28,0.08,1.87,0.23c0.59,0.15,1.11,0.39,1.57,0.72
				c0.46,0.33,0.85,0.74,1.16,1.24c0.31,0.5,0.52,1.11,0.64,1.82h-1.62c-0.08-0.46-0.23-0.86-0.44-1.19
				c-0.22-0.33-0.48-0.61-0.8-0.82c-0.32-0.21-0.68-0.37-1.08-0.48c-0.4-0.11-0.83-0.16-1.29-0.16c-0.74,0-1.37,0.15-1.9,0.44
				c-0.53,0.29-0.96,0.68-1.29,1.16c-0.34,0.48-0.58,1.03-0.74,1.64c-0.16,0.61-0.24,1.24-0.24,1.88c0,0.63,0.09,1.24,0.27,1.82
				c0.18,0.58,0.45,1.09,0.8,1.54c0.35,0.45,0.79,0.8,1.3,1.06c0.52,0.26,1.12,0.4,1.8,0.4c0.64,0,1.2-0.1,1.69-0.3
				c0.49-0.2,0.9-0.48,1.23-0.84c0.34-0.36,0.59-0.77,0.76-1.25c0.17-0.48,0.24-0.99,0.22-1.55h-3.88v-1.35h5.33v6.35h-1.02
				l-0.43-1.5C432.92,17.5,432.33,17.95,431.63,18.23z"/>
			<path class="st0" d="M446.02,18.23c-0.7,0.28-1.41,0.41-2.13,0.41c-0.91,0-1.72-0.17-2.44-0.5c-0.72-0.33-1.32-0.78-1.82-1.34
				c-0.5-0.56-0.88-1.21-1.14-1.94c-0.26-0.73-0.39-1.49-0.39-2.28c0-0.88,0.12-1.72,0.37-2.51c0.24-0.79,0.61-1.49,1.09-2.09
				c0.48-0.6,1.08-1.07,1.81-1.43c0.72-0.35,1.56-0.53,2.53-0.53c0.66,0,1.28,0.08,1.87,0.23c0.59,0.15,1.11,0.39,1.57,0.72
				c0.46,0.33,0.85,0.74,1.16,1.24c0.31,0.5,0.52,1.11,0.64,1.82h-1.62c-0.08-0.46-0.23-0.86-0.44-1.19
				c-0.22-0.33-0.48-0.61-0.8-0.82c-0.32-0.21-0.68-0.37-1.08-0.48c-0.4-0.11-0.83-0.16-1.29-0.16c-0.74,0-1.37,0.15-1.9,0.44
				c-0.53,0.29-0.96,0.68-1.29,1.16c-0.34,0.48-0.58,1.03-0.74,1.64c-0.16,0.61-0.24,1.24-0.24,1.88c0,0.63,0.09,1.24,0.27,1.82
				c0.18,0.58,0.45,1.09,0.8,1.54c0.35,0.45,0.79,0.8,1.3,1.06c0.52,0.26,1.12,0.4,1.8,0.4c0.64,0,1.2-0.1,1.69-0.3
				c0.49-0.2,0.9-0.48,1.23-0.84c0.34-0.36,0.59-0.77,0.76-1.25c0.17-0.48,0.24-0.99,0.22-1.55h-3.88v-1.35h5.33v6.35h-1.02
				l-0.43-1.5C447.31,17.5,446.72,17.95,446.02,18.23z"/>
			<path class="st0" d="M461.49,6.31v1.35h-6.78v3.84h6.32v1.35h-6.32v4.17h6.83v1.35h-8.45V6.31H461.49z"/>
			<path class="st0" d="M470.69,6.31c1.16,0,2.06,0.28,2.72,0.84c0.65,0.56,0.98,1.33,0.98,2.32c0,0.73-0.17,1.37-0.5,1.93
				c-0.34,0.55-0.87,0.93-1.61,1.13v0.03c0.35,0.07,0.64,0.18,0.86,0.34c0.22,0.16,0.4,0.35,0.53,0.57
				c0.13,0.22,0.23,0.46,0.29,0.73s0.11,0.55,0.14,0.84c0.02,0.29,0.04,0.59,0.05,0.9s0.04,0.6,0.09,0.9
				c0.05,0.29,0.11,0.57,0.2,0.84c0.09,0.26,0.21,0.5,0.38,0.7H473c-0.11-0.12-0.19-0.29-0.23-0.51c-0.04-0.21-0.07-0.45-0.08-0.72
				c-0.01-0.26-0.02-0.55-0.03-0.85c-0.01-0.3-0.05-0.6-0.1-0.9c-0.05-0.29-0.1-0.57-0.17-0.84c-0.07-0.26-0.18-0.5-0.32-0.69
				c-0.15-0.2-0.34-0.35-0.58-0.47c-0.24-0.12-0.56-0.18-0.95-0.18h-3.95v5.15h-1.62V6.31H470.69z M471.03,11.78
				c0.34-0.06,0.64-0.17,0.89-0.33c0.26-0.16,0.46-0.38,0.61-0.66c0.15-0.28,0.23-0.63,0.23-1.07c0-0.61-0.17-1.1-0.51-1.49
				c-0.34-0.38-0.89-0.57-1.65-0.57h-4.02v4.21h3.37C470.33,11.86,470.69,11.84,471.03,11.78z"/>
		</g>
		<g>
			<path class="st0" d="M20.19,34.56c1.46,0,2.59,0.35,3.42,1.06c0.82,0.71,1.23,1.68,1.23,2.91c0,0.92-0.21,1.73-0.63,2.42
				c-0.42,0.69-1.1,1.17-2.02,1.42v0.04c0.44,0.09,0.8,0.23,1.08,0.43c0.28,0.2,0.5,0.44,0.66,0.71c0.16,0.28,0.29,0.58,0.36,0.92
				c0.08,0.34,0.14,0.69,0.18,1.06c0.03,0.37,0.05,0.74,0.06,1.13c0.01,0.38,0.05,0.76,0.11,1.13c0.06,0.37,0.14,0.72,0.25,1.05
				c0.11,0.33,0.27,0.63,0.48,0.88H23.1c-0.14-0.16-0.24-0.37-0.29-0.64c-0.05-0.27-0.08-0.57-0.1-0.9
				c-0.01-0.33-0.03-0.69-0.04-1.07c-0.01-0.38-0.06-0.76-0.13-1.13c-0.06-0.37-0.13-0.72-0.21-1.05c-0.09-0.33-0.22-0.62-0.41-0.87
				c-0.19-0.25-0.43-0.45-0.73-0.59c-0.3-0.15-0.7-0.22-1.2-0.22h-4.97v6.48H13V34.56H20.19z M20.62,41.44
				c0.43-0.07,0.8-0.21,1.12-0.41c0.32-0.21,0.58-0.48,0.77-0.83c0.19-0.35,0.29-0.8,0.29-1.35c0-0.76-0.21-1.39-0.64-1.87
				c-0.43-0.48-1.12-0.72-2.08-0.72h-5.05v5.29h4.24C19.74,41.55,20.19,41.51,20.62,41.44z"/>
			<path class="st0" d="M41.66,40.08v1.08h-5.42v3.07h5.06v1.08h-5.06v3.34h5.46v1.08h-6.76v-9.65H41.66z"/>
			<path class="st0" d="M54.16,41.44c-0.5-0.34-1.08-0.51-1.76-0.51c-0.58,0-1.08,0.11-1.49,0.32c-0.41,0.22-0.75,0.51-1.02,0.87
				c-0.27,0.36-0.47,0.78-0.59,1.25c-0.13,0.47-0.19,0.96-0.19,1.46c0,0.55,0.06,1.07,0.19,1.56c0.13,0.49,0.32,0.92,0.59,1.28
				c0.27,0.37,0.61,0.66,1.03,0.87c0.42,0.22,0.92,0.32,1.5,0.32c0.43,0,0.81-0.07,1.14-0.21c0.33-0.14,0.62-0.33,0.86-0.58
				c0.24-0.25,0.43-0.54,0.57-0.89c0.14-0.34,0.22-0.71,0.25-1.11h1.29c-0.13,1.22-0.55,2.16-1.27,2.84
				c-0.72,0.68-1.7,1.01-2.94,1.01c-0.75,0-1.41-0.13-1.98-0.39c-0.56-0.26-1.03-0.61-1.4-1.06c-0.37-0.45-0.65-0.98-0.84-1.6
				c-0.19-0.61-0.28-1.27-0.28-1.97c0-0.7,0.1-1.36,0.3-1.98c0.2-0.62,0.49-1.16,0.88-1.62c0.39-0.46,0.87-0.82,1.44-1.09
				c0.58-0.27,1.24-0.4,1.98-0.4c0.51,0,0.99,0.07,1.44,0.2c0.45,0.14,0.86,0.33,1.21,0.59c0.35,0.26,0.65,0.59,0.89,0.98
				c0.24,0.39,0.39,0.84,0.46,1.36h-1.29C54.98,42.3,54.65,41.78,54.16,41.44z"/>
			<path class="st0" d="M64.43,40.08v4.15h5.12v-4.15h1.29v9.65h-1.29v-4.42h-5.12v4.42h-1.29v-9.65H64.43z"/>
			<path class="st0" d="M76.95,41.16v-1.08h7.78v1.08h-3.24v8.57H80.2v-8.57H76.95z"/>
			<path class="st0" d="M95.7,41.39c-0.43-0.31-0.98-0.47-1.66-0.47c-0.27,0-0.54,0.03-0.8,0.08c-0.26,0.05-0.5,0.14-0.7,0.27
				c-0.2,0.13-0.37,0.3-0.49,0.51c-0.12,0.21-0.18,0.48-0.18,0.79c0,0.3,0.09,0.54,0.27,0.72c0.18,0.18,0.41,0.34,0.71,0.45
				c0.3,0.12,0.63,0.21,1,0.29c0.37,0.08,0.75,0.16,1.14,0.25c0.39,0.09,0.77,0.2,1.14,0.32c0.37,0.12,0.71,0.29,1,0.49
				c0.3,0.21,0.53,0.47,0.71,0.78c0.18,0.32,0.27,0.71,0.27,1.19c0,0.51-0.12,0.95-0.35,1.32c-0.23,0.36-0.53,0.66-0.89,0.89
				c-0.36,0.23-0.77,0.4-1.22,0.5c-0.45,0.1-0.9,0.16-1.34,0.16c-0.55,0-1.06-0.07-1.55-0.2c-0.49-0.14-0.91-0.34-1.28-0.62
				c-0.37-0.27-0.66-0.63-0.87-1.05c-0.21-0.43-0.32-0.93-0.32-1.52h1.23c0,0.41,0.08,0.75,0.24,1.05c0.16,0.29,0.37,0.53,0.63,0.72
				c0.26,0.19,0.56,0.33,0.91,0.42c0.35,0.09,0.7,0.14,1.06,0.14c0.29,0,0.58-0.03,0.88-0.08c0.3-0.05,0.56-0.15,0.8-0.28
				c0.24-0.13,0.43-0.31,0.57-0.53c0.15-0.23,0.22-0.51,0.22-0.87c0-0.33-0.09-0.6-0.27-0.81c-0.18-0.21-0.41-0.38-0.71-0.51
				c-0.3-0.13-0.63-0.24-1-0.32c-0.37-0.08-0.75-0.16-1.14-0.25c-0.39-0.09-0.77-0.18-1.14-0.3c-0.37-0.11-0.71-0.26-1-0.45
				c-0.3-0.18-0.53-0.42-0.71-0.72c-0.18-0.29-0.27-0.66-0.27-1.1c0-0.49,0.1-0.91,0.3-1.26c0.2-0.36,0.47-0.65,0.8-0.88
				c0.33-0.23,0.71-0.4,1.13-0.51c0.42-0.11,0.86-0.17,1.3-0.17c0.5,0,0.96,0.06,1.39,0.18c0.43,0.12,0.8,0.3,1.12,0.55
				c0.32,0.25,0.58,0.57,0.76,0.95c0.19,0.38,0.29,0.84,0.31,1.37h-1.23C96.38,42.21,96.13,41.7,95.7,41.39z"/>
			<path class="st0" d="M108.75,40.08l3.8,9.65h-1.43l-1.06-2.91h-4.12l-1.09,2.91h-1.32l3.79-9.65H108.75z M109.64,45.74l-1.62-4.5
				H108l-1.65,4.5H109.64z"/>
			<path class="st0" d="M119.88,40.08L125,47.9h0.03v-7.83h1.23v9.65h-1.42l-5.08-7.75h-0.03v7.75h-1.23v-9.65H119.88z"/>
			<path class="st0" d="M140.81,49.73l-2.22-8.11h-0.03l-2.25,8.11h-1.35l-2.49-9.65h1.32l1.91,8.03h0.03l2.18-8.03h1.4l2.15,8.03
				h0.03l1.98-8.03h1.29l-2.6,9.65H140.81z"/>
			<path class="st0" d="M155.08,40.08l3.8,9.65h-1.43l-1.06-2.91h-4.12l-1.09,2.91h-1.32l3.79-9.65H155.08z M153.69,37.93v1.41
				h-1.23v-1.41H153.69z M155.98,45.74l-1.62-4.5h-0.03l-1.65,4.5H155.98z M156.25,37.93v1.41h-1.23v-1.41H156.25z"/>
			<path class="st0" d="M166.15,40.08v8.57h5.15v1.08h-6.45v-9.65H166.15z"/>
			<path class="st0" d="M175.15,41.16v-1.08h7.78v1.08h-3.24v8.57h-1.29v-8.57H175.15z"/>
			<path class="st0" d="M195.74,40.08v1.08h-5.42v3.07h5.06v1.08h-5.06v3.34h5.46v1.08h-6.76v-9.65H195.74z"/>
			<path class="st0" d="M216.92,45.43v1.08h-6.81v-1.08H216.92z"/>
			<path class="st0" d="M238.81,34.56l5.97,15.17h-2.25l-1.67-4.57h-6.47l-1.71,4.57h-2.08l5.95-15.17H238.81z M240.23,43.46
				l-2.55-7.07h-0.04l-2.59,7.07H240.23z"/>
			<path class="st0" d="M252.53,41.16v-1.08h7.78v1.08h-3.24v8.57h-1.29v-8.57H252.53z"/>
			<path class="st0" d="M265.36,41.16v-1.08h7.78v1.08h-3.24v8.57h-1.29v-8.57H265.36z"/>
			<path class="st0" d="M278.98,43c0.2-0.61,0.49-1.15,0.88-1.62c0.39-0.47,0.88-0.84,1.46-1.12c0.58-0.28,1.26-0.42,2.03-0.42
				c0.77,0,1.45,0.14,2.03,0.42c0.58,0.28,1.07,0.65,1.46,1.12s0.68,1.01,0.88,1.62c0.2,0.61,0.29,1.24,0.29,1.9
				c0,0.66-0.1,1.29-0.29,1.9c-0.2,0.61-0.49,1.15-0.88,1.62c-0.39,0.47-0.88,0.84-1.46,1.12c-0.58,0.27-1.26,0.41-2.03,0.41
				c-0.77,0-1.45-0.14-2.03-0.41c-0.58-0.27-1.07-0.65-1.46-1.12c-0.39-0.47-0.68-1.01-0.88-1.62c-0.2-0.61-0.29-1.24-0.29-1.9
				C278.69,44.24,278.79,43.61,278.98,43z M280.18,46.34c0.13,0.47,0.33,0.9,0.6,1.28c0.27,0.38,0.62,0.68,1.05,0.91
				c0.43,0.23,0.94,0.34,1.53,0.34c0.59,0,1.1-0.11,1.53-0.34c0.43-0.23,0.78-0.53,1.05-0.91c0.27-0.38,0.47-0.8,0.6-1.28
				c0.13-0.47,0.19-0.95,0.19-1.44c0-0.49-0.06-0.97-0.19-1.44c-0.13-0.47-0.33-0.9-0.6-1.28c-0.27-0.38-0.62-0.68-1.05-0.91
				c-0.43-0.23-0.94-0.34-1.53-0.34c-0.59,0-1.1,0.11-1.53,0.34c-0.43,0.23-0.78,0.53-1.05,0.91c-0.27,0.38-0.47,0.8-0.6,1.28
				c-0.13,0.47-0.19,0.95-0.19,1.44C279.98,45.39,280.05,45.87,280.18,46.34z"/>
			<path class="st0" d="M299.19,40.08c0.93,0,1.65,0.23,2.17,0.68c0.52,0.45,0.78,1.07,0.78,1.85c0,0.59-0.13,1.1-0.4,1.54
				c-0.27,0.44-0.7,0.74-1.29,0.91v0.03c0.28,0.05,0.51,0.14,0.69,0.27c0.18,0.13,0.32,0.28,0.42,0.45c0.1,0.18,0.18,0.37,0.23,0.59
				c0.05,0.22,0.09,0.44,0.12,0.68c0.02,0.23,0.03,0.47,0.04,0.72c0.01,0.24,0.03,0.48,0.07,0.72c0.04,0.23,0.09,0.46,0.16,0.67
				c0.07,0.21,0.17,0.4,0.31,0.56h-1.44c-0.09-0.1-0.15-0.23-0.18-0.41c-0.03-0.17-0.05-0.36-0.06-0.57
				c-0.01-0.21-0.02-0.44-0.03-0.68c-0.01-0.24-0.04-0.48-0.08-0.72c-0.04-0.23-0.08-0.46-0.14-0.67c-0.05-0.21-0.14-0.4-0.26-0.55
				c-0.12-0.16-0.27-0.28-0.46-0.38c-0.19-0.09-0.45-0.14-0.76-0.14h-3.16v4.12h-1.29v-9.65H299.19z M299.46,44.46
				c0.27-0.05,0.51-0.13,0.72-0.26c0.2-0.13,0.37-0.31,0.49-0.53c0.12-0.22,0.18-0.51,0.18-0.86c0-0.49-0.14-0.88-0.41-1.19
				c-0.27-0.31-0.71-0.46-1.32-0.46h-3.22v3.37h2.7C298.9,44.52,299.19,44.5,299.46,44.46z"/>
			<path class="st0" d="M310.32,40.08l5.12,7.83h0.03v-7.83h1.23v9.65h-1.42l-5.08-7.75h-0.03v7.75h-1.23v-9.65H310.32z"/>
			<path class="st0" d="M330.53,40.08v1.08h-5.42v3.07h5.06v1.08h-5.06v3.34h5.46v1.08h-6.76v-9.65H330.53z"/>
			<path class="st0" d="M341.17,49.73h-1.29v-3.95l-3.76-5.7h1.54l2.92,4.6l2.85-4.6h1.47l-3.72,5.7V49.73z"/>
			<path class="st0" d="M355.87,41.39c-0.43-0.31-0.98-0.47-1.66-0.47c-0.27,0-0.54,0.03-0.8,0.08c-0.26,0.05-0.5,0.14-0.7,0.27
				c-0.2,0.13-0.37,0.3-0.49,0.51c-0.12,0.21-0.18,0.48-0.18,0.79c0,0.3,0.09,0.54,0.27,0.72c0.18,0.18,0.41,0.34,0.71,0.45
				c0.29,0.12,0.63,0.21,1,0.29c0.37,0.08,0.75,0.16,1.14,0.25c0.39,0.09,0.77,0.2,1.14,0.32c0.37,0.12,0.71,0.29,1,0.49
				c0.29,0.21,0.53,0.47,0.71,0.78c0.18,0.32,0.27,0.71,0.27,1.19c0,0.51-0.12,0.95-0.35,1.32c-0.23,0.36-0.53,0.66-0.89,0.89
				c-0.36,0.23-0.77,0.4-1.22,0.5c-0.45,0.1-0.9,0.16-1.34,0.16c-0.55,0-1.06-0.07-1.55-0.2c-0.49-0.14-0.91-0.34-1.28-0.62
				c-0.37-0.27-0.66-0.63-0.87-1.05c-0.21-0.43-0.32-0.93-0.32-1.52h1.23c0,0.41,0.08,0.75,0.24,1.05c0.16,0.29,0.37,0.53,0.63,0.72
				c0.26,0.19,0.56,0.33,0.91,0.42c0.35,0.09,0.7,0.14,1.06,0.14c0.29,0,0.58-0.03,0.88-0.08c0.3-0.05,0.56-0.15,0.8-0.28
				c0.24-0.13,0.43-0.31,0.57-0.53c0.15-0.23,0.22-0.51,0.22-0.87c0-0.33-0.09-0.6-0.27-0.81c-0.18-0.21-0.41-0.38-0.71-0.51
				c-0.3-0.13-0.63-0.24-1-0.32c-0.37-0.08-0.75-0.16-1.14-0.25c-0.39-0.09-0.77-0.18-1.14-0.3c-0.37-0.11-0.71-0.26-1-0.45
				c-0.3-0.18-0.53-0.42-0.71-0.72c-0.18-0.29-0.27-0.66-0.27-1.1c0-0.49,0.1-0.91,0.3-1.26c0.2-0.36,0.47-0.65,0.8-0.88
				c0.33-0.23,0.71-0.4,1.13-0.51c0.42-0.11,0.86-0.17,1.3-0.17c0.5,0,0.96,0.06,1.39,0.18c0.43,0.12,0.8,0.3,1.12,0.55
				c0.32,0.25,0.58,0.57,0.76,0.95c0.19,0.38,0.29,0.84,0.31,1.37h-1.23C356.55,42.21,356.3,41.7,355.87,41.39z"/>
			<path class="st0" d="M383.38,40.08l3.8,9.65h-1.43l-1.06-2.91h-4.12l-1.09,2.91h-1.32l3.79-9.65H383.38z M384.28,45.74l-1.62-4.5
				h-0.03l-1.65,4.5H384.28z"/>
			<path class="st0" d="M390.86,41.16v-1.08h7.78v1.08h-3.24v8.57h-1.29v-8.57H390.86z"/>
			<path class="st0" d="M421.84,34.56v13.47h8.09v1.7h-10.13V34.56H421.84z"/>
			<path class="st0" d="M443.06,40.08l3.8,9.65h-1.43l-1.06-2.91h-4.12l-1.09,2.91h-1.32l3.79-9.65H443.06z M443.96,45.74l-1.62-4.5
				h-0.03l-1.65,4.5H443.96z"/>
			<path class="st0" d="M459.94,49.73l-2.22-8.11h-0.03l-2.25,8.11h-1.35l-2.49-9.65h1.32l1.91,8.03h0.03l2.18-8.03h1.4l2.15,8.03
				h0.03l1.98-8.03h1.29l-2.6,9.65H459.94z"/>
		</g>
	</g>
	
		<radialGradient id="SVGID_1_" cx="235.9374" cy="44.5904" r="131.9512" gradientTransform="matrix(1.2593 0 0 1.3755 -61.7414 11.0476)" gradientUnits="userSpaceOnUse">
		<stop  offset="0" style="stop-color:#C49056"/>
		<stop  offset="1" style="stop-color:#C49056;stop-opacity:0"/>
	</radialGradient>
	<path class="st1" d="M470.39,72.38c-153.3,1.87-315.76,2.03-470-0.03C153.72,70.45,316.06,70.43,470.39,72.38z"/>
</g>
</svg>
