<svg id="Ebene_1" data-name="Ebene 1" xmlns="http://www.w3.org/2000/svg" viewBox="0 0 277.38 21.59"><defs><style>.cls-1{fill:#231f20;}</style></defs><path class="cls-1" d="M8.74,8.78H7.53l-2-7.38h0l-2,7.38H2.25L0,0H1.19L2.92,7.31h0L4.91,0H6.17L8.12,7.31h0L9.93,0h1.16Z"/><path class="cls-1" d="M16.46,2a3.16,3.16,0,0,1,3.15,3.46,3.17,3.17,0,1,1-6.31,0A3.17,3.17,0,0,1,16.46,2Zm0,6.17c1.6,0,2.28-1.39,2.28-2.71s-.68-2.72-2.28-2.72-2.28,1.39-2.28,2.72S14.85,8.2,16.46,8.2Z"/><path class="cls-1" d="M22.39,2.19h.88V5h3.47V2.19h.87V8.78h-.87v-3H23.27v3h-.88Z"/><path class="cls-1" d="M30.76,2.19h.87V8h3.49v.74H30.76Z"/><path class="cls-1" d="M37.61,2.19h1.2l2.08,5.54L43,2.19h1.2V8.78h-.83V3.3h0L41.27,8.78h-.75L38.46,3.3h0V8.78h-.83Z"/><path class="cls-1" d="M49.13,2.19h1l2.57,6.59h-1L51,6.8H48.2l-.74,2h-.91Zm-.66,3.87h2.24L49.61,3h0Z"/><path class="cls-1" d="M59.66,4.17a1.74,1.74,0,0,0-1.85-1.4c-1.57,0-2.23,1.29-2.23,2.67s.66,2.76,2.24,2.76a1.86,1.86,0,0,0,1.9-1.9h.88a2.69,2.69,0,0,1-2.85,2.64c-2,0-3-1.52-3-3.44S55.79,2,57.82,2a2.53,2.53,0,0,1,2.72,2.14Z"/><path class="cls-1" d="M63.39,2.19h.88V5h3.47V2.19h.88V8.78h-.88v-3H64.27v3h-.88Z"/><path class="cls-1" d="M71.76,2.19h4.55v.74H72.64V5h3.42v.74H72.64V8h3.7v.74H71.76Z"/><path class="cls-1" d="M79.11,2.19h3.1c1.23,0,2,.67,2,1.73a1.58,1.58,0,0,1-1.14,1.67v0c.76.14.92.71,1,1.35a3.4,3.4,0,0,0,.39,1.82h-1c-.25-.27-.11-1-.24-1.62S83,6,82.12,6H80V8.78h-.87Zm2.7,3c.82,0,1.52-.22,1.52-1.18a1,1,0,0,0-1.17-1.12H80v2.3Z"/><path class="cls-1" d="M92.84,0H94V4.38L98.46,0H100l-3.7,3.54,3.85,5.24H98.65L95.47,4.34,94,5.71V8.78H92.84Z"/><path class="cls-1" d="M104.31,2.19h1l2.57,6.59h-1l-.72-2h-2.79l-.73,2h-.91Zm-.66,3.87h2.24L104.79,3h0Z"/><path class="cls-1" d="M110.24,2.19h.88V8.78h-.88Z"/><path class="cls-1" d="M118.11,4.12a1.44,1.44,0,0,0-1.63-1.35c-.74,0-1.48.27-1.48,1.13s1,.93,2.12,1.17,2.1.61,2.1,1.9-1.38,2-2.58,2c-1.47,0-2.72-.72-2.72-2.33h.83c0,1.11.93,1.59,1.92,1.59.8,0,1.67-.25,1.67-1.2s-1-1.06-2.1-1.29-2.12-.54-2.12-1.75S115.31,2,116.52,2a2.12,2.12,0,0,1,2.42,2.09Z"/><path class="cls-1" d="M122,2.19h4.55v.74h-3.68V5h3.43v.74h-3.43V8h3.7v.74H122Z"/><path class="cls-1" d="M129.33,2.19h3.1c1.24,0,2,.67,2,1.73a1.59,1.59,0,0,1-1.15,1.67v0c.77.14.92.71,1,1.35a3.31,3.31,0,0,0,.39,1.82h-1c-.25-.27-.11-1-.24-1.62S133.2,6,132.35,6h-2.14V8.78h-.88Zm2.71,3c.82,0,1.52-.22,1.52-1.18a1,1,0,0,0-1.17-1.12h-2.18v2.3Z"/><path class="cls-1" d="M143.06,0h3.19a5.25,5.25,0,0,1,2.32.32,2.08,2.08,0,0,1,1,1.83,2,2,0,0,1-1.31,2v0A2,2,0,0,1,150,6.26a2.5,2.5,0,0,1-2.67,2.52h-4.25Zm1.17,3.78h2.34c1.33,0,1.87-.48,1.87-1.41,0-1.21-.86-1.39-1.87-1.39h-2.34Zm0,4h2.93a1.51,1.51,0,0,0,1.65-1.58c0-1.14-.92-1.46-1.91-1.46h-2.67Z"/><path class="cls-1" d="M153,2.19h4.55v.74h-3.67V5h3.42v.74h-3.42V8h3.7v.74H153Z"/><path class="cls-1" d="M164.94,4.17a1.75,1.75,0,0,0-1.85-1.4c-1.57,0-2.23,1.29-2.23,2.67s.66,2.76,2.24,2.76A1.86,1.86,0,0,0,165,6.3h.88A2.69,2.69,0,0,1,163,8.94C161,8.94,160,7.42,160,5.5S161.07,2,163.1,2a2.51,2.51,0,0,1,2.71,2.14Z"/><path class="cls-1" d="M168.67,2.19h.88V5.48l3.34-3.29H174l-2.78,2.66,2.89,3.93H173l-2.38-3.33-1.1,1V8.78h-.88Z"/><path class="cls-1" d="M176.53,2.19h4.56v.74h-3.68V5h3.43v.74h-3.43V8h3.7v.74h-4.58Z"/><path class="cls-1" d="M183.88,2.19H187c1.24,0,2,.67,2,1.73a1.58,1.58,0,0,1-1.14,1.67v0c.76.14.92.71,1,1.35a3.4,3.4,0,0,0,.38,1.82h-1c-.25-.27-.11-1-.24-1.62S187.75,6,186.9,6h-2.14V8.78h-.88Zm2.7,3c.82,0,1.53-.22,1.53-1.18a1,1,0,0,0-1.18-1.12h-2.17v2.3Z"/><path class="cls-1" d="M197.64,0h1.6L202,7.38,204.78,0h1.6V8.78h-1.11V1.48h0l-2.74,7.3h-1l-2.74-7.3h0v7.3h-1.1Z"/><path class="cls-1" d="M212.58,2a3.17,3.17,0,0,1,3.16,3.46,3.17,3.17,0,1,1-6.31,0A3.16,3.16,0,0,1,212.58,2Zm0,6.17c1.61,0,2.28-1.39,2.28-2.71s-.67-2.72-2.28-2.72-2.28,1.39-2.28,2.72S211,8.2,212.58,8.2Z"/><path class="cls-1" d="M218.51,2.19h.88V5h3.47V2.19h.88V8.78h-.88v-3h-3.47v3h-.88Z"/><path class="cls-1" d="M226.88,2.19H230c1.24,0,2,.67,2,1.73a1.58,1.58,0,0,1-1.15,1.67v0c.77.14.93.71,1,1.35a3.4,3.4,0,0,0,.39,1.82h-1c-.25-.27-.11-1-.24-1.62S230.75,6,229.9,6h-2.14V8.78h-.88Zm2.71,3c.82,0,1.52-.22,1.52-1.18a1,1,0,0,0-1.17-1.12h-2.18v2.3Z"/><path class="cls-1" d="M233.63,5h2.72v.75h-2.72Z"/><path class="cls-1" d="M238.3,0h6.06V1h-4.89v2.8H244v1h-4.56v3h4.93v1h-6.1Z"/><path class="cls-1" d="M252.21,8a2.56,2.56,0,0,1-2.11,1A3.16,3.16,0,0,1,247,5.61C247,3.69,248,2,250.1,2a2.57,2.57,0,0,1,2.84,2.19h-.88a1.79,1.79,0,0,0-2-1.45c-1.6,0-2.26,1.39-2.26,2.8A2.37,2.37,0,0,0,250.1,8.2a2,2,0,0,0,2.11-2.15h-2.1V5.31H253V8.78h-.55Z"/><path class="cls-1" d="M260.92,8a2.56,2.56,0,0,1-2.11,1,3.16,3.16,0,0,1-3.14-3.33c0-1.92,1.05-3.58,3.14-3.58a2.56,2.56,0,0,1,2.83,2.19h-.87a1.79,1.79,0,0,0-2-1.45c-1.6,0-2.26,1.39-2.26,2.8a2.37,2.37,0,0,0,2.26,2.63,2,2,0,0,0,2.11-2.15h-2.1V5.31h2.89V8.78h-.56Z"/><path class="cls-1" d="M264.7,2.19h4.55v.74h-3.67V5H269v.74h-3.42V8h3.7v.74H264.7Z"/><path class="cls-1" d="M272.05,2.19h3.1c1.24,0,2,.67,2,1.73A1.58,1.58,0,0,1,276,5.59v0c.76.14.92.71,1,1.35a3.31,3.31,0,0,0,.38,1.82h-1c-.24-.27-.11-1-.24-1.62S275.92,6,275.07,6h-2.15V8.78h-.87Zm2.7,3c.82,0,1.53-.22,1.53-1.18a1,1,0,0,0-1.18-1.12h-2.18v2.3Z"/><path class="cls-1" d="M5,14.76H8.19c1.26,0,2,.69,2,1.76a1.61,1.61,0,0,1-1.17,1.7v0c.78.15.94.72,1,1.38a3.42,3.42,0,0,0,.39,1.85h-1c-.26-.27-.12-1-.25-1.65S9,18.6,8.1,18.6H5.92v2.87H5Zm2.75,3.09c.84,0,1.55-.21,1.55-1.19a1.06,1.06,0,0,0-1.19-1.15H5.92v2.34Z"/><path class="cls-1" d="M15.7,16.44h3.48V17H16.37v1.6H19v.57H16.37v1.74H19.2v.56H15.7Z"/><path class="cls-1" d="M28,18a1.32,1.32,0,0,0-1.41-1.07c-1.2,0-1.71,1-1.71,2S25.35,21,26.56,21A1.42,1.42,0,0,0,28,19.57h.67a2.05,2.05,0,0,1-2.18,2A2.32,2.32,0,0,1,24.17,19a2.39,2.39,0,0,1,2.39-2.65A1.92,1.92,0,0,1,28.63,18Z"/><path class="cls-1" d="M33.93,16.44h.67V18.6h2.65V16.44h.67v5h-.67v-2.3H34.6v2.3h-.67Z"/><path class="cls-1" d="M44.57,17H42.9v-.56h4V17H45.24v4.47h-.67Z"/><path class="cls-1" d="M54.8,17.91a1.09,1.09,0,0,0-1.24-1c-.57,0-1.13.21-1.13.86s.8.71,1.61.9,1.61.46,1.61,1.45-1,1.5-2,1.5c-1.12,0-2.08-.55-2.08-1.78h.64c0,.85.7,1.22,1.47,1.22.6,0,1.27-.19,1.27-.92s-.8-.81-1.61-1-1.61-.41-1.61-1.33.91-1.47,1.82-1.47,1.82.48,1.86,1.59Z"/><path class="cls-1" d="M62.24,16.44H63l2,5h-.74L63.66,20H61.53L61,21.47h-.69Zm-.5,2.95h1.71L62.61,17h0Z"/><path class="cls-1" d="M69.85,16.44h.72l2.65,4.08h0V16.44h.64v5h-.74l-2.63-4h0v4h-.64Z"/><path class="cls-1" d="M83.91,21.47h-.7l-1.14-4.23h0l-1.16,4.23h-.7l-1.29-5h.68l1,4.18h0l1.12-4.18h.73l1.11,4.18h0l1-4.18h.67Z"/><path class="cls-1" d="M91.68,16.44h.74l2,5h-.74L93.09,20H91l-.56,1.51h-.69Zm-.62-1.12h.64v.73h-.64Zm.12,4.07h1.7L92,17h0Zm1.21-4.07H93v.73h-.63Z"/><path class="cls-1" d="M99.29,16.44H100v4.47h2.67v.56H99.29Z"/><path class="cls-1" d="M108.12,17h-1.67v-.56h4V17h-1.68v4.47h-.67Z"/><path class="cls-1" d="M115.44,16.44h3.48V17h-2.81v1.6h2.62v.57h-2.62v1.74h2.83v.56h-3.5Z"/><path class="cls-1" d="M124.66,18.48h4.7v.75h-4.7Z"/><path class="cls-1" d="M136.85,14.76h1l2.62,6.71h-1l-.73-2H135.9l-.75,2h-.92Zm-.67,3.94h2.28l-1.12-3.13h0Z"/><path class="cls-1" d="M145.85,17h-1.68v-.56h4V17h-1.68v4.47h-.67Z"/><path class="cls-1" d="M154.31,17h-1.67v-.56h4V17H155v4.47h-.67Z"/><path class="cls-1" d="M163.76,16.32A2.41,2.41,0,0,1,166.17,19a2.42,2.42,0,1,1-4.82,0A2.41,2.41,0,0,1,163.76,16.32Zm0,4.71C165,21,165.5,20,165.5,19s-.51-2.07-1.74-2.07A1.84,1.84,0,0,0,162,19C162,20,162.54,21,163.76,21Z"/><path class="cls-1" d="M171.4,16.44h2.37c.95,0,1.53.51,1.53,1.32a1.2,1.2,0,0,1-.87,1.27v0c.58.11.7.54.75,1a2.67,2.67,0,0,0,.3,1.39h-.75c-.19-.2-.08-.75-.18-1.24s-.19-.91-.84-.91h-1.64v2.15h-.67Zm2.07,2.32c.63,0,1.16-.17,1.16-.9a.79.79,0,0,0-.89-.86h-1.67v1.76Z"/><path class="cls-1" d="M180.64,16.44h.71L184,20.52h0V16.44h.63v5h-.73l-2.63-4h0v4h-.64Z"/><path class="cls-1" d="M190.15,16.44h3.48V17h-2.81v1.6h2.62v.57h-2.62v1.74h2.83v.56h-3.5Z"/><path class="cls-1" d="M201,19.41v2.06h-.67V19.41l-1.95-3h.8l1.51,2.39,1.47-2.39h.76Z"/><path class="cls-1" d="M210.77,17.91a1.1,1.1,0,0,0-1.25-1c-.56,0-1.12.21-1.12.86s.8.71,1.61.9,1.61.46,1.61,1.45-1.05,1.5-2,1.5c-1.13,0-2.08-.55-2.08-1.78h.63c0,.85.71,1.22,1.47,1.22s1.28-.19,1.28-.92-.81-.81-1.61-1-1.61-.41-1.61-1.33.9-1.47,1.82-1.47,1.81.48,1.85,1.59Z"/><path class="cls-1" d="M225.5,16.44h.74l2,5h-.74L226.92,20h-2.13l-.57,1.51h-.69Zm-.5,2.95h1.7L225.87,17h0Z"/><path class="cls-1" d="M233.61,17h-1.68v-.56h4V17h-1.68v4.47h-.67Z"/><path class="cls-1" d="M248.4,14.76h.89v6h3.56v.75H248.4Z"/><path class="cls-1" d="M259.23,16.44H260l2,5h-.74L260.65,20h-2.13L258,21.47h-.69Zm-.5,2.95h1.7L259.6,17h0Z"/><path class="cls-1" d="M271.22,21.47h-.7l-1.14-4.23h0l-1.16,4.23h-.7l-1.29-5h.68l1,4.18h0L269,16.44h.73l1.11,4.18h0l1-4.18h.67Z"/></svg>