<?xml version="1.0" encoding="utf-8"?>
<!-- Generator: Adobe Illustrator 25.2.1, SVG Export Plug-In . SVG Version: 6.00 Build 0)  -->
<svg version="1.1" id="Layer_1" xmlns="http://www.w3.org/2000/svg" xmlns:xlink="http://www.w3.org/1999/xlink" x="0px" y="0px"
	 viewBox="0 0 825.3 70.8" style="enable-background:new 0 0 825.3 70.8;" xml:space="preserve">
<style type="text/css">
	.st0{fill:#1E1E1E;}
</style>
<g>
	<path class="st0" d="M26.4,31.6l-7-25.8h-0.1l-7.1,25.8H7.9L0,0.9h4.2l6,25.6h0.1l6.9-25.6h4.4l6.8,25.6h0.1l6.2-25.6h4.1
		l-8.2,30.7L26.4,31.6L26.4,31.6z"/>
	<path class="st0" d="M44.8,16.8c0.4-1.3,1.1-2.5,1.9-3.6s1.9-1.9,3.2-2.5c1.3-0.6,2.8-0.9,4.4-0.9s3.2,0.3,4.4,0.9
		c1.3,0.6,2.3,1.4,3.2,2.5s1.5,2.2,1.9,3.6c0.4,1.3,0.6,2.7,0.6,4.2s-0.2,2.9-0.6,4.2s-1.1,2.5-1.9,3.6c-0.8,1-1.9,1.9-3.2,2.5
		c-1.3,0.6-2.8,0.9-4.4,0.9s-3.2-0.3-4.4-0.9s-2.3-1.4-3.2-2.5c-0.8-1-1.5-2.2-1.9-3.6c-0.4-1.3-0.6-2.7-0.6-4.2
		C44.2,19.5,44.4,18.1,44.8,16.8z M47.4,24.1c0.3,1,0.7,2,1.3,2.8c0.6,0.8,1.4,1.5,2.3,2c0.9,0.5,2,0.8,3.3,0.8s2.4-0.2,3.3-0.8
		c0.9-0.5,1.7-1.2,2.3-2s1-1.8,1.3-2.8c0.3-1,0.4-2.1,0.4-3.2s-0.1-2.1-0.4-3.2s-0.7-2-1.3-2.8c-0.6-0.8-1.4-1.5-2.3-2
		c-0.9-0.5-2-0.8-3.3-0.8S52,12.5,51,13c-0.9,0.5-1.7,1.2-2.3,2s-1,1.8-1.3,2.8c-0.3,1-0.4,2.1-0.4,3.2C47,22,47.2,23.1,47.4,24.1z"
		/>
	<path class="st0" d="M73.4,10.3v9.1h11.2v-9.1h2.8v21.3h-2.8v-9.8H73.4v9.8h-2.8V10.3H73.4z"/>
	<path class="st0" d="M97.5,10.3v18.9h11.3v2.4H94.7V10.3H97.5z"/>
	<path class="st0" d="M117.8,10.3l6.7,17.9l6.7-17.9h3.9v21.3h-2.7V13.9h-0.1l-6.7,17.7h-2.4l-6.7-17.7h-0.1v17.7h-2.7V10.3H117.8z"
		/>
	<path class="st0" d="M151.3,10.3l8.3,21.3h-3.1l-2.3-6.4h-9l-2.4,6.4h-2.9l8.3-21.3H151.3z M153.2,22.8l-3.6-9.9h-0.1l-3.6,9.9
		H153.2z"/>
	<path class="st0" d="M177.1,13.3c-1.1-0.8-2.4-1.1-3.9-1.1c-1.3,0-2.4,0.2-3.3,0.7c-0.9,0.5-1.6,1.1-2.2,1.9
		c-0.6,0.8-1,1.7-1.3,2.8c-0.3,1-0.4,2.1-0.4,3.2c0,1.2,0.1,2.4,0.4,3.4s0.7,2,1.3,2.8c0.6,0.8,1.3,1.5,2.2,1.9
		c0.9,0.5,2,0.7,3.3,0.7c0.9,0,1.8-0.1,2.5-0.5c0.7-0.3,1.4-0.7,1.9-1.3c0.5-0.5,0.9-1.2,1.2-2c0.3-0.8,0.5-1.6,0.5-2.4h2.8
		c-0.3,2.7-1.2,4.8-2.8,6.3s-3.7,2.2-6.4,2.2c-1.6,0-3.1-0.3-4.3-0.9c-1.2-0.6-2.3-1.4-3.1-2.3c-0.8-1-1.4-2.2-1.8-3.5
		c-0.4-1.4-0.6-2.8-0.6-4.4c0-1.5,0.2-3,0.7-4.4s1.1-2.6,1.9-3.6s1.9-1.8,3.2-2.4c1.3-0.6,2.7-0.9,4.3-0.9c1.1,0,2.2,0.1,3.2,0.4
		s1.9,0.7,2.6,1.3c0.8,0.6,1.4,1.3,1.9,2.2s0.9,1.9,1,3h-2.8C178.9,15.2,178.2,14.1,177.1,13.3z"/>
	<path class="st0" d="M191.2,10.3v9.1h11.2v-9.1h2.8v21.3h-2.8v-9.8h-11.2v9.8h-2.8V10.3H191.2z"/>
	<path class="st0" d="M227.1,10.3v2.4h-11.9v6.8h11.1v2.4h-11.1v7.4h11.9v2.4h-14.8V10.3H227.1z"/>
	<path class="st0" d="M243.2,10.3c2,0,3.6,0.5,4.8,1.5s1.7,2.4,1.7,4.1c0,1.3-0.3,2.4-0.9,3.4c-0.6,1-1.5,1.6-2.8,2v0.1
		c0.6,0.1,1.1,0.3,1.5,0.6s0.7,0.6,0.9,1c0.2,0.4,0.4,0.8,0.5,1.3s0.2,1,0.2,1.5c0,0.5,0.1,1,0.1,1.6c0,0.5,0.1,1.1,0.1,1.6
		c0.1,0.5,0.2,1,0.3,1.5s0.4,0.9,0.7,1.2h-3.2c-0.2-0.2-0.3-0.5-0.4-0.9c-0.1-0.4-0.1-0.8-0.1-1.3c0-0.5,0-1-0.1-1.5
		s-0.1-1.1-0.2-1.6c-0.1-0.5-0.2-1-0.3-1.5c-0.1-0.5-0.3-0.9-0.6-1.2c-0.3-0.4-0.6-0.6-1-0.8c-0.4-0.2-1-0.3-1.7-0.3H236v9.1h-2.8
		V10.3H243.2z M243.8,20c0.6-0.1,1.1-0.3,1.6-0.6c0.4-0.3,0.8-0.7,1.1-1.2c0.3-0.5,0.4-1.1,0.4-1.9c0-1.1-0.3-1.9-0.9-2.6
		c-0.6-0.7-1.6-1-2.9-1h-7v7.4h5.9C242.6,20.1,243.2,20.1,243.8,20z"/>
	<path class="st0" d="M277,0.9v15.3l15.6-15.3h5.3l-13,12.4l13.5,18.3h-5.2l-11.1-15.5l-5.1,4.8v10.8h-4.1V0.9H277z"/>
	<path class="st0" d="M313.2,10.3l8.3,21.3h-3.1l-2.3-6.4h-9l-2.4,6.4h-2.9l8.3-21.3H313.2z M315.1,22.8l-3.5-9.9h-0.1l-3.6,9.9
		H315.1z"/>
	<path class="st0" d="M329.1,10.3v21.3h-2.8V10.3H329.1z"/>
	<path class="st0" d="M347.1,13.2c-0.9-0.7-2.1-1-3.6-1c-0.6,0-1.2,0.1-1.8,0.2c-0.6,0.1-1.1,0.3-1.5,0.6c-0.5,0.3-0.8,0.6-1.1,1.1
		c-0.3,0.5-0.4,1.1-0.4,1.7c0,0.7,0.2,1.2,0.6,1.6c0.4,0.4,0.9,0.7,1.5,1s1.4,0.5,2.2,0.6s1.6,0.4,2.5,0.5c0.8,0.2,1.7,0.4,2.5,0.7
		c0.8,0.3,1.5,0.6,2.2,1.1c0.6,0.5,1.2,1,1.5,1.7c0.4,0.7,0.6,1.6,0.6,2.6c0,1.1-0.2,2.1-0.8,2.9c-0.5,0.8-1.2,1.5-2,2
		c-0.8,0.5-1.7,0.9-2.7,1.1c-1,0.2-2,0.3-2.9,0.3c-1.2,0-2.3-0.1-3.4-0.5c-1.1-0.3-2-0.8-2.8-1.4c-0.8-0.6-1.4-1.4-1.9-2.3
		c-0.5-0.9-0.7-2.1-0.7-3.4h2.7c0,0.9,0.2,1.7,0.5,2.3c0.4,0.6,0.8,1.2,1.4,1.6s1.2,0.7,2,0.9c0.8,0.2,1.5,0.3,2.3,0.3
		c0.6,0,1.3-0.1,1.9-0.2s1.2-0.3,1.7-0.6c0.5-0.3,0.9-0.7,1.2-1.2s0.5-1.1,0.5-1.9c0-0.7-0.2-1.3-0.6-1.8c-0.4-0.5-0.9-0.8-1.5-1.1
		s-1.4-0.5-2.2-0.7c-0.8-0.2-1.6-0.4-2.5-0.5c-0.9-0.2-1.7-0.4-2.5-0.7c-0.8-0.2-1.5-0.6-2.2-1c-0.6-0.4-1.2-0.9-1.5-1.6
		c-0.4-0.6-0.6-1.5-0.6-2.4c0-1.1,0.2-2,0.7-2.8c0.4-0.8,1-1.4,1.7-1.9c0.7-0.5,1.5-0.9,2.5-1.1s1.9-0.4,2.9-0.4
		c1.1,0,2.1,0.1,3,0.4c0.9,0.3,1.8,0.7,2.5,1.2c0.7,0.6,1.3,1.3,1.7,2.1c0.4,0.9,0.6,1.9,0.7,3h-2.7C348.6,15,348,13.9,347.1,13.2z"
		/>
	<path class="st0" d="M373,10.3v2.4h-11.9v6.8h11.1v2.4h-11.1v7.4h12v2.4h-14.8V10.3H373z"/>
	<path class="st0" d="M389.1,10.3c2,0,3.6,0.5,4.8,1.5s1.7,2.4,1.7,4.1c0,1.3-0.3,2.4-0.9,3.4s-1.5,1.6-2.8,2v0.1
		c0.6,0.1,1.1,0.3,1.5,0.6s0.7,0.6,0.9,1c0.2,0.4,0.4,0.8,0.5,1.3c0.1,0.5,0.2,1,0.2,1.5c0,0.5,0.1,1,0.1,1.6c0,0.5,0.1,1.1,0.1,1.6
		s0.2,1,0.3,1.5s0.4,0.9,0.7,1.2h-3.2c-0.2-0.2-0.3-0.5-0.4-0.9c-0.1-0.4-0.1-0.8-0.1-1.3c0-0.5,0-1-0.1-1.5s-0.1-1.1-0.2-1.6
		c-0.1-0.5-0.2-1-0.3-1.5s-0.3-0.9-0.6-1.2c-0.3-0.4-0.6-0.6-1-0.8c-0.4-0.2-1-0.3-1.7-0.3h-6.9v9.1h-2.8V10.3H389.1z M389.7,20
		c0.6-0.1,1.1-0.3,1.6-0.6c0.5-0.3,0.8-0.7,1.1-1.2c0.3-0.5,0.4-1.1,0.4-1.9c0-1.1-0.3-1.9-0.9-2.6c-0.6-0.7-1.6-1-2.9-1h-7v7.4h5.9
		C388.5,20.1,389.1,20.1,389.7,20z"/>
	<path class="st0" d="M429.9,0.9c0.7,0,1.4,0,2.1,0s1.5,0.1,2.3,0.1s1.4,0.2,2.1,0.3s1.2,0.4,1.7,0.6c1,0.6,1.9,1.4,2.6,2.5
		s1.1,2.4,1.1,3.9c0,1.6-0.4,3.1-1.2,4.2c-0.8,1.2-1.9,2.1-3.4,2.6v0.1c1.9,0.4,3.3,1.3,4.4,2.6c1,1.3,1.5,2.9,1.5,4.8
		c0,1.1-0.2,2.2-0.6,3.3c-0.4,1.1-1,2-1.8,2.8s-1.8,1.5-2.9,2s-2.5,0.8-4,0.8h-14.9V0.9H429.9z M431.1,14.1c2.3,0,4-0.4,5-1.2
		s1.5-2.1,1.5-3.7c0-1.1-0.2-1.9-0.5-2.6c-0.3-0.6-0.8-1.1-1.4-1.5s-1.3-0.6-2.1-0.7s-1.6-0.2-2.5-0.2h-8.2v9.8H431.1z M433.1,28.2
		c1.8,0,3.2-0.5,4.2-1.5c1-1,1.5-2.3,1.5-4c0-1-0.2-1.8-0.6-2.5s-0.9-1.2-1.5-1.6s-1.3-0.7-2.1-0.8c-0.8-0.2-1.6-0.2-2.5-0.2h-9.3
		v10.6C422.9,28.2,433.1,28.2,433.1,28.2z"/>
	<path class="st0" d="M465.6,10.3v2.4h-11.9v6.8h11.1v2.4h-11.1v7.4h12v2.4H451V10.3H465.6z"/>
	<path class="st0" d="M484.6,13.3c-1.1-0.8-2.4-1.1-3.9-1.1c-1.3,0-2.4,0.2-3.3,0.7c-0.9,0.5-1.6,1.1-2.2,1.9
		c-0.6,0.8-1,1.7-1.3,2.8c-0.3,1-0.4,2.1-0.4,3.2c0,1.2,0.1,2.4,0.4,3.4s0.7,2,1.3,2.8c0.6,0.8,1.3,1.5,2.2,1.9
		c0.9,0.5,2,0.7,3.3,0.7c0.9,0,1.8-0.1,2.5-0.5c0.7-0.3,1.4-0.7,1.9-1.3c0.5-0.5,0.9-1.2,1.2-2c0.3-0.8,0.5-1.6,0.5-2.4h2.8
		c-0.3,2.7-1.2,4.8-2.8,6.3c-1.6,1.5-3.7,2.2-6.4,2.2c-1.6,0-3.1-0.3-4.3-0.9s-2.3-1.4-3.1-2.3c-0.8-1-1.4-2.2-1.8-3.5
		c-0.4-1.4-0.6-2.8-0.6-4.4c0-1.5,0.2-3,0.7-4.4s1.1-2.6,1.9-3.6c0.8-1,1.9-1.8,3.2-2.4s2.7-0.9,4.3-0.9c1.1,0,2.2,0.1,3.2,0.4
		s1.9,0.7,2.6,1.3c0.8,0.6,1.4,1.3,1.9,2.2s0.9,1.9,1,3h-2.8C486.4,15.2,485.7,14.1,484.6,13.3z"/>
	<path class="st0" d="M498.6,10.3v10.6l10.8-10.6h3.7l-9,8.6l9.3,12.7h-3.6l-7.7-10.8l-3.5,3.3v7.5h-2.8V10.3H498.6z"/>
	<path class="st0" d="M533,10.3v2.4h-11.9v6.8h11.1v2.4h-11.1v7.4h12v2.4h-14.8V10.3H533z"/>
	<path class="st0" d="M549.1,10.3c2,0,3.6,0.5,4.8,1.5s1.7,2.4,1.7,4.1c0,1.3-0.3,2.4-0.9,3.4s-1.5,1.6-2.8,2v0.1
		c0.6,0.1,1.1,0.3,1.5,0.6s0.7,0.6,0.9,1c0.2,0.4,0.4,0.8,0.5,1.3s0.2,1,0.2,1.5c0,0.5,0.1,1,0.1,1.6c0,0.5,0.1,1.1,0.2,1.6
		s0.2,1,0.3,1.5s0.4,0.9,0.7,1.2h-3.2c-0.2-0.2-0.3-0.5-0.4-0.9c-0.1-0.4-0.1-0.8-0.1-1.3c0-0.5,0-1-0.1-1.5s-0.1-1.1-0.2-1.6
		c-0.1-0.5-0.2-1-0.3-1.5s-0.3-0.9-0.6-1.2c-0.3-0.4-0.6-0.6-1-0.8c-0.4-0.2-1-0.3-1.7-0.3h-6.9v9.1H539V10.3H549.1z M549.7,20
		c0.6-0.1,1.1-0.3,1.6-0.6c0.5-0.3,0.8-0.7,1.1-1.2c0.3-0.5,0.4-1.1,0.4-1.9c0-1.1-0.3-1.9-0.9-2.6c-0.6-0.7-1.6-1-2.9-1h-7v7.4h5.9
		C548.4,20.1,549.1,20.1,549.7,20z"/>
	<path class="st0" d="M584.4,0.9l9.7,25.8l9.7-25.8h5.6v30.7h-3.9V6h-0.1l-9.6,25.6h-3.5L582.8,6h-0.1v25.6h-3.9V0.9H584.4z"/>
	<path class="st0" d="M618.3,16.8c0.4-1.3,1.1-2.5,1.9-3.6s1.9-1.9,3.2-2.5c1.3-0.6,2.8-0.9,4.4-0.9s3.2,0.3,4.4,0.9
		c1.3,0.6,2.3,1.4,3.2,2.5s1.5,2.2,1.9,3.6s0.6,2.7,0.6,4.2s-0.2,2.9-0.6,4.2s-1.1,2.5-1.9,3.6c-0.8,1-1.9,1.9-3.2,2.5
		s-2.8,0.9-4.4,0.9s-3.2-0.3-4.4-0.9s-2.3-1.4-3.2-2.5c-0.8-1-1.5-2.2-1.9-3.6c-0.4-1.3-0.6-2.7-0.6-4.2
		C617.7,19.5,617.9,18.1,618.3,16.8z M621,24.1c0.3,1,0.7,2,1.3,2.8c0.6,0.8,1.4,1.5,2.3,2c0.9,0.5,2,0.8,3.3,0.8
		c1.3,0,2.4-0.2,3.3-0.8s1.7-1.2,2.3-2s1-1.8,1.3-2.8c0.3-1,0.4-2.1,0.4-3.2s-0.1-2.1-0.4-3.2c-0.3-1-0.7-2-1.3-2.8
		c-0.6-0.8-1.4-1.5-2.3-2c-0.9-0.5-2-0.8-3.3-0.8c-1.3,0-2.4,0.2-3.3,0.8c-0.9,0.5-1.7,1.2-2.3,2s-1,1.8-1.3,2.8
		c-0.3,1-0.4,2.1-0.4,3.2C620.5,22,620.7,23.1,621,24.1z"/>
	<path class="st0" d="M647,10.3v9.1h11.2v-9.1h2.8v21.3h-2.8v-9.8H647v9.8h-2.8V10.3H647z"/>
	<path class="st0" d="M678.2,10.3c2,0,3.6,0.5,4.8,1.5s1.7,2.4,1.7,4.1c0,1.3-0.3,2.4-0.9,3.4s-1.5,1.6-2.8,2v0.1
		c0.6,0.1,1.1,0.3,1.5,0.6s0.7,0.6,0.9,1c0.2,0.4,0.4,0.8,0.5,1.3s0.2,1,0.2,1.5c0,0.5,0.1,1,0.1,1.6c0,0.5,0.1,1.1,0.2,1.6
		s0.2,1,0.3,1.5s0.4,0.9,0.7,1.2h-3.2c-0.2-0.2-0.3-0.5-0.4-0.9c-0.1-0.4-0.1-0.8-0.1-1.3c0-0.5,0-1-0.1-1.5s-0.1-1.1-0.2-1.6
		c-0.1-0.5-0.2-1-0.3-1.5s-0.3-0.9-0.6-1.2c-0.3-0.4-0.6-0.6-1-0.8c-0.4-0.2-1-0.3-1.7-0.3H671v9.1h-2.8V10.3H678.2z M678.8,20
		c0.6-0.1,1.1-0.3,1.6-0.6c0.5-0.3,0.8-0.7,1.1-1.2c0.3-0.5,0.4-1.1,0.4-1.9c0-1.1-0.3-1.9-0.9-2.6c-0.6-0.7-1.6-1-2.9-1h-7v7.4h5.9
		C677.6,20.1,678.2,20.1,678.8,20z"/>
	<path class="st0" d="M700.1,21.1v2.6h-9.6v-2.6H700.1z"/>
	<path class="st0" d="M729.2,0.9v3.4H712v9.8h16v3.4h-16v10.6h17.3v3.4H708V0.9H729.2z"/>
	<path class="st0" d="M749.8,31.4c-1.2,0.5-2.5,0.7-3.7,0.7c-1.6,0-3-0.3-4.3-0.9c-1.2-0.6-2.3-1.4-3.2-2.4c-0.9-1-1.5-2.1-2-3.4
		s-0.7-2.6-0.7-4c0-1.5,0.2-3,0.6-4.4s1.1-2.6,1.9-3.7c0.8-1.1,1.9-1.9,3.2-2.5c1.3-0.6,2.7-0.9,4.4-0.9c1.2,0,2.2,0.1,3.3,0.4
		c1,0.3,1.9,0.7,2.7,1.3s1.5,1.3,2,2.2c0.5,0.9,0.9,1.9,1.1,3.2h-2.8c-0.1-0.8-0.4-1.5-0.8-2.1c-0.4-0.6-0.8-1.1-1.4-1.4
		c-0.6-0.4-1.2-0.7-1.9-0.9c-0.7-0.2-1.5-0.3-2.2-0.3c-1.3,0-2.4,0.3-3.3,0.8s-1.7,1.2-2.3,2c-0.6,0.9-1,1.8-1.3,2.9
		c-0.3,1.1-0.4,2.2-0.4,3.3c0,1.1,0.2,2.2,0.5,3.2s0.8,1.9,1.4,2.7c0.6,0.8,1.4,1.4,2.3,1.9s2,0.7,3.1,0.7c1.1,0,2.1-0.2,3-0.5
		c0.8-0.4,1.6-0.9,2.2-1.5c0.6-0.6,1-1.4,1.3-2.2c0.3-0.8,0.4-1.8,0.4-2.7h-6.8v-2.4h9.3v11.2h-1.8l-0.7-2.6
		C752,30.1,751,30.9,749.8,31.4z"/>
	<path class="st0" d="M775,31.4c-1.2,0.5-2.5,0.7-3.7,0.7c-1.6,0-3-0.3-4.3-0.9c-1.2-0.6-2.3-1.4-3.2-2.4c-0.9-1-1.5-2.1-2-3.4
		s-0.7-2.6-0.7-4c0-1.5,0.2-3,0.6-4.4s1.1-2.6,1.9-3.7c0.8-1.1,1.9-1.9,3.2-2.5c1.3-0.6,2.7-0.9,4.4-0.9c1.2,0,2.2,0.1,3.3,0.4
		c1,0.3,1.9,0.7,2.7,1.3s1.5,1.3,2,2.2c0.5,0.9,0.9,1.9,1.1,3.2h-2.8c-0.1-0.8-0.4-1.5-0.8-2.1c-0.4-0.6-0.8-1.1-1.4-1.4
		c-0.6-0.4-1.2-0.7-1.9-0.9c-0.7-0.2-1.5-0.3-2.2-0.3c-1.3,0-2.4,0.3-3.3,0.8s-1.7,1.2-2.3,2c-0.6,0.9-1,1.8-1.3,2.9
		c-0.3,1.1-0.4,2.2-0.4,3.3c0,1.1,0.2,2.2,0.5,3.2s0.8,1.9,1.4,2.7c0.6,0.8,1.4,1.4,2.3,1.9s2,0.7,3.1,0.7c1.1,0,2.1-0.2,3-0.5
		c0.8-0.4,1.6-0.9,2.2-1.5c0.6-0.6,1-1.4,1.3-2.2c0.3-0.8,0.4-1.8,0.4-2.7h-6.8v-2.4h9.3v11.2h-1.8l-0.7-2.6
		C777.2,30.1,776.2,30.9,775,31.4z"/>
	<path class="st0" d="M802,10.3v2.4h-11.9v6.8h11.1v2.4h-11.1v7.4h12v2.4h-14.8V10.3H802z"/>
	<path class="st0" d="M818.1,10.3c2,0,3.6,0.5,4.8,1.5s1.7,2.4,1.7,4.1c0,1.3-0.3,2.4-0.9,3.4s-1.5,1.6-2.8,2v0.1
		c0.6,0.1,1.1,0.3,1.5,0.6s0.7,0.6,0.9,1c0.2,0.4,0.4,0.8,0.5,1.3s0.2,1,0.2,1.5c0,0.5,0.1,1,0.1,1.6c0,0.5,0.1,1.1,0.2,1.6
		s0.2,1,0.3,1.5s0.4,0.9,0.7,1.2h-3.2c-0.2-0.2-0.3-0.5-0.4-0.9c-0.1-0.4-0.1-0.8-0.1-1.3c0-0.5,0-1-0.1-1.5s-0.1-1.1-0.2-1.6
		c-0.1-0.5-0.2-1-0.3-1.5s-0.3-0.9-0.6-1.2c-0.3-0.4-0.6-0.6-1-0.8c-0.4-0.2-1-0.3-1.7-0.3h-6.9v9.1h-2.8V10.3H818.1z M818.7,20
		c0.6-0.1,1.1-0.3,1.6-0.6c0.5-0.3,0.8-0.7,1.1-1.2c0.3-0.5,0.4-1.1,0.4-1.9c0-1.1-0.3-1.9-0.9-2.6c-0.6-0.7-1.6-1-2.9-1h-7v7.4h5.9
		C817.5,20.1,818.1,20.1,818.7,20z"/>
</g>
<path class="st0" d="M179.3,48.8c2,0,3.5,0.5,4.6,1.5s1.7,2.3,1.7,4c0,1.3-0.3,2.4-0.9,3.3c-0.6,1-1.5,1.6-2.7,1.9v0.1
	c0.6,0.1,1.1,0.3,1.5,0.6c0.4,0.3,0.7,0.6,0.9,1s0.4,0.8,0.5,1.3c0.1,0.5,0.2,1,0.2,1.5c0,0.5,0.1,1,0.1,1.5c0,0.5,0.1,1,0.1,1.5
	c0.1,0.5,0.2,1,0.3,1.4c0.1,0.4,0.4,0.8,0.6,1.2h-3.1c-0.2-0.2-0.3-0.5-0.4-0.9c-0.1-0.4-0.1-0.8-0.1-1.2c0-0.4,0-0.9-0.1-1.5
	s-0.1-1-0.2-1.5c-0.1-0.5-0.2-1-0.3-1.4s-0.3-0.8-0.6-1.2s-0.6-0.6-1-0.8s-0.9-0.3-1.6-0.3h-6.7v8.8h-2.8V48.8H179.3z M179.8,58.2
	c0.6-0.1,1.1-0.3,1.5-0.6c0.4-0.3,0.8-0.7,1-1.1s0.4-1.1,0.4-1.8c0-1-0.3-1.9-0.9-2.5s-1.5-1-2.8-1h-6.8v7.2h5.7
	C178.6,58.3,179.3,58.3,179.8,58.2z"/>
<path class="st0" d="M201.7,56.5v1.5h-7.2v4.1h6.8v1.5h-6.8V68h7.3v1.5h-9v-13H201.7z"/>
<path class="st0" d="M214.3,58.3c-0.7-0.5-1.4-0.7-2.4-0.7c-0.8,0-1.4,0.2-2,0.4c-0.6,0.3-1,0.7-1.4,1.2c-0.4,0.5-0.6,1-0.8,1.7
	c-0.2,0.6-0.3,1.3-0.3,2c0,0.7,0.1,1.4,0.3,2.1c0.2,0.7,0.4,1.2,0.8,1.7c0.4,0.5,0.8,0.9,1.4,1.2s1.2,0.4,2,0.4
	c0.6,0,1.1-0.1,1.5-0.3s0.8-0.4,1.1-0.8c0.3-0.3,0.6-0.7,0.8-1.2c0.2-0.5,0.3-1,0.3-1.5h1.7c-0.2,1.6-0.7,2.9-1.7,3.8
	c-1,0.9-2.3,1.4-3.9,1.4c-1,0-1.9-0.2-2.6-0.5s-1.4-0.8-1.9-1.4s-0.9-1.3-1.1-2.2s-0.4-1.7-0.4-2.7s0.1-1.8,0.4-2.7
	c0.3-0.8,0.7-1.6,1.2-2.2c0.5-0.6,1.2-1.1,1.9-1.5c0.8-0.4,1.6-0.5,2.6-0.5c0.7,0,1.3,0.1,1.9,0.3c0.6,0.2,1.1,0.5,1.6,0.8
	s0.9,0.8,1.2,1.3c0.3,0.5,0.5,1.1,0.6,1.8h-1.7C215.4,59.5,215,58.8,214.3,58.3z"/>
<path class="st0" d="M224,56.5V62h6.9v-5.6h1.7v13h-1.7v-6H224v6h-1.7v-13H224z"/>
<path class="st0" d="M236.6,57.9v-1.5H247v1.5h-4.3v11.5H241V57.9H236.6z"/>
<path class="st0" d="M257.6,58.2c-0.6-0.4-1.3-0.6-2.2-0.6c-0.4,0-0.7,0-1.1,0.1c-0.4,0.1-0.7,0.2-0.9,0.4c-0.3,0.2-0.5,0.4-0.7,0.7
	c-0.2,0.3-0.2,0.6-0.2,1.1c0,0.4,0.1,0.7,0.4,1c0.2,0.2,0.6,0.5,0.9,0.6c0.4,0.2,0.8,0.3,1.3,0.4s1,0.2,1.5,0.3s1,0.3,1.5,0.4
	c0.5,0.2,0.9,0.4,1.3,0.7c0.4,0.3,0.7,0.6,1,1.1c0.2,0.4,0.4,1,0.4,1.6c0,0.7-0.1,1.3-0.5,1.8s-0.7,0.9-1.2,1.2
	c-0.5,0.3-1,0.5-1.6,0.7s-1.2,0.2-1.8,0.2c-0.7,0-1.4-0.1-2.1-0.3c-0.6-0.2-1.2-0.5-1.7-0.8s-0.9-0.8-1.2-1.4s-0.4-1.3-0.4-2.1h1.6
	c0,0.6,0.1,1,0.3,1.4c0.2,0.4,0.5,0.7,0.8,1c0.4,0.3,0.8,0.4,1.2,0.6c0.5,0.1,0.9,0.2,1.4,0.2c0.4,0,0.8,0,1.2-0.1s0.8-0.2,1.1-0.4
	c0.3-0.2,0.6-0.4,0.8-0.7s0.3-0.7,0.3-1.2c0-0.4-0.1-0.8-0.4-1.1s-0.5-0.5-1-0.7c-0.4-0.2-0.8-0.3-1.3-0.4s-1-0.2-1.5-0.3
	c-0.5-0.1-1-0.2-1.5-0.4s-0.9-0.3-1.3-0.6s-0.7-0.6-0.9-1c-0.2-0.4-0.4-0.9-0.4-1.5c0-0.7,0.1-1.2,0.4-1.7c0.3-0.5,0.6-0.9,1.1-1.2
	c0.4-0.3,0.9-0.5,1.5-0.7c0.6-0.2,1.1-0.2,1.7-0.2c0.7,0,1.3,0.1,1.9,0.2c0.6,0.2,1.1,0.4,1.5,0.8s0.8,0.8,1,1.3
	c0.2,0.5,0.4,1.1,0.4,1.8h-1.6C258.5,59.3,258.2,58.7,257.6,58.2z"/>
<path class="st0" d="M271,56.5l5.1,13h-1.9l-1.4-3.9h-5.5l-1.5,3.9H264l5.1-13H271z M272.2,64.1L270,58h0l-2.2,6.1
	C267.8,64.1,272.2,64.1,272.2,64.1z"/>
<path class="st0" d="M281.8,56.5l6.9,10.5h0V56.5h1.6v13h-1.9L281.6,59h0v10.4h-1.6v-13H281.8z"/>
<path class="st0" d="M305.7,69.5l-3-10.9h0l-3,10.9h-1.8l-3.3-13h1.8l2.5,10.8h0l2.9-10.8h1.9l2.9,10.8h0l2.6-10.8h1.7l-3.5,13
	H305.7z"/>
<path class="st0" d="M320.7,56.5l5.1,13h-1.9l-1.4-3.9h-5.5l-1.5,3.9h-1.8l5.1-13H320.7z M318.8,53.6v1.9h-1.6v-1.9H318.8z
	 M321.9,64.1l-2.2-6.1h0l-2.2,6.1H321.9z M322.2,53.6v1.9h-1.6v-1.9H322.2z"/>
<path class="st0" d="M331.4,56.5V68h6.9v1.5h-8.6v-13H331.4z"/>
<path class="st0" d="M339.3,57.9v-1.5h10.4v1.5h-4.3v11.5h-1.7V57.9H339.3z"/>
<path class="st0" d="M362.8,56.5v1.5h-7.2v4.1h6.8v1.5h-6.8V68h7.3v1.5h-9v-13H362.8z"/>
<path class="st0" d="M394.6,59.8v2.3h-14.5v-2.3H394.6z"/>
<path class="st0" d="M420.9,48.8l8.1,20.7h-3l-2.3-6.2h-8.8l-2.3,6.2h-2.8l8.1-20.7C417.9,48.8,420.9,48.8,420.9,48.8z M422.8,60.9
	l-3.5-9.6h-0.1l-3.5,9.7C415.8,60.9,422.8,60.9,422.8,60.9z"/>
<path class="st0" d="M433,57.9v-1.5h10.4v1.5H439v11.5h-1.7V57.9H433z"/>
<path class="st0" d="M446,57.9v-1.5h10.4v1.5h-4.3v11.5h-1.7V57.9H446z"/>
<path class="st0" d="M460.2,60.4c0.3-0.8,0.6-1.5,1.2-2.2c0.5-0.6,1.2-1.1,2-1.5c0.8-0.4,1.7-0.6,2.7-0.6s1.9,0.2,2.7,0.6
	s1.4,0.9,2,1.5c0.5,0.6,0.9,1.4,1.2,2.2c0.3,0.8,0.4,1.7,0.4,2.6c0,0.9-0.1,1.7-0.4,2.6s-0.6,1.6-1.2,2.2c-0.5,0.6-1.2,1.1-2,1.5
	s-1.7,0.6-2.7,0.6s-1.9-0.2-2.7-0.6c-0.8-0.4-1.4-0.9-2-1.5c-0.5-0.6-0.9-1.4-1.2-2.2s-0.4-1.7-0.4-2.6S459.9,61.2,460.2,60.4z
	 M461.8,64.9c0.2,0.6,0.4,1.2,0.8,1.7s0.8,0.9,1.4,1.2c0.6,0.3,1.2,0.5,2,0.5s1.5-0.2,2-0.5c0.6-0.3,1-0.7,1.4-1.2s0.6-1.1,0.8-1.7
	c0.2-0.6,0.3-1.3,0.3-1.9s-0.1-1.3-0.3-1.9c-0.2-0.6-0.4-1.2-0.8-1.7c-0.4-0.5-0.8-0.9-1.4-1.2s-1.2-0.5-2-0.5s-1.5,0.2-2,0.5
	c-0.6,0.3-1,0.7-1.4,1.2s-0.6,1.1-0.8,1.7c-0.2,0.6-0.2,1.3-0.2,1.9C461.5,63.6,461.6,64.3,461.8,64.9z"/>
<path class="st0" d="M483.1,56.5c1.2,0,2.2,0.3,2.9,0.9s1,1.4,1,2.5c0,0.8-0.2,1.5-0.5,2.1c-0.4,0.6-0.9,1-1.7,1.2v0
	c0.4,0.1,0.7,0.2,0.9,0.4c0.2,0.2,0.4,0.4,0.6,0.6c0.1,0.2,0.2,0.5,0.3,0.8s0.1,0.6,0.2,0.9c0,0.3,0,0.6,0,1c0,0.3,0,0.7,0.1,1
	s0.1,0.6,0.2,0.9c0.1,0.3,0.2,0.5,0.4,0.8h-1.9c-0.1-0.1-0.2-0.3-0.2-0.6c0-0.2-0.1-0.5-0.1-0.8c0-0.3,0-0.6,0-0.9s0-0.7-0.1-1
	c0-0.3-0.1-0.6-0.2-0.9s-0.2-0.5-0.4-0.8c-0.2-0.2-0.4-0.4-0.6-0.5c-0.2-0.1-0.6-0.2-1-0.2h-4.2v5.6h-1.7v-13H483.1z M483.5,62.4
	c0.4-0.1,0.7-0.2,1-0.4c0.3-0.2,0.5-0.4,0.7-0.7c0.2-0.3,0.2-0.7,0.2-1.2c0-0.7-0.2-1.2-0.5-1.6c-0.4-0.4-1-0.6-1.8-0.6h-4.3v4.5
	h3.6C482.7,62.5,483.1,62.4,483.5,62.4z"/>
<path class="st0" d="M493.9,56.5l6.8,10.5h0V56.5h1.6v13h-1.9L493.7,59h0v10.4H492v-13H493.9z"/>
<path class="st0" d="M516.8,56.5v1.5h-7.2v4.1h6.8v1.5h-6.8V68h7.3v1.5h-9v-13H516.8z"/>
<path class="st0" d="M527,69.5h-1.7v-5.3l-5-7.7h2.1l3.9,6.2l3.8-6.2h2l-5,7.7L527,69.5L527,69.5z"/>
<path class="st0" d="M542.5,58.2c-0.6-0.4-1.3-0.6-2.2-0.6c-0.4,0-0.7,0-1.1,0.1c-0.3,0.1-0.7,0.2-0.9,0.4c-0.3,0.2-0.5,0.4-0.7,0.7
	c-0.2,0.3-0.2,0.6-0.2,1.1c0,0.4,0.1,0.7,0.3,1c0.2,0.2,0.5,0.5,1,0.6c0.4,0.2,0.8,0.3,1.3,0.4s1,0.2,1.5,0.3s1,0.3,1.5,0.4
	c0.5,0.2,0.9,0.4,1.3,0.7c0.4,0.3,0.7,0.6,1,1.1s0.3,1,0.3,1.6c0,0.7-0.2,1.3-0.5,1.8c-0.3,0.5-0.7,0.9-1.2,1.2
	c-0.5,0.3-1,0.5-1.6,0.7s-1.2,0.2-1.8,0.2c-0.7,0-1.4-0.1-2.1-0.3s-1.2-0.5-1.7-0.8c-0.5-0.4-0.9-0.8-1.2-1.4s-0.4-1.3-0.4-2.1h1.6
	c0,0.6,0.1,1,0.3,1.4c0.2,0.4,0.5,0.7,0.8,1c0.3,0.3,0.8,0.4,1.2,0.6c0.5,0.1,0.9,0.2,1.4,0.2c0.4,0,0.8,0,1.2-0.1
	c0.4-0.1,0.8-0.2,1.1-0.4c0.3-0.2,0.6-0.4,0.8-0.7c0.2-0.3,0.3-0.7,0.3-1.2c0-0.4-0.1-0.8-0.4-1.1s-0.5-0.5-1-0.7
	c-0.4-0.2-0.8-0.3-1.3-0.4s-1-0.2-1.5-0.3c-0.5-0.1-1-0.2-1.5-0.4s-0.9-0.3-1.3-0.6s-0.7-0.6-1-1c-0.2-0.4-0.3-0.9-0.3-1.5
	c0-0.7,0.1-1.2,0.4-1.7s0.6-0.9,1.1-1.2c0.4-0.3,1-0.5,1.5-0.7c0.6-0.2,1.2-0.2,1.7-0.2c0.7,0,1.3,0.1,1.9,0.2s1.1,0.4,1.5,0.8
	s0.8,0.8,1,1.3c0.2,0.5,0.4,1.1,0.4,1.8h-1.6C543.5,59.3,543.1,58.7,542.5,58.2z"/>
<path class="st0" d="M572,56.5l5.1,13h-1.9l-1.4-3.9h-5.5l-1.5,3.9H565l5.1-13H572z M573.2,64.1L571,58h0l-2.2,6.1H573.2z"/>
<path class="st0" d="M577.9,57.9v-1.5h10.4v1.5H584v11.5h-1.7V57.9H577.9z"/>
<path class="st0" d="M612,48.8v18.4h11v2.3h-13.7V48.8H612z"/>
<path class="st0" d="M634.2,56.5l5.1,13h-1.9l-1.4-3.9h-5.5l-1.5,3.9h-1.8l5.1-13H634.2z M635.4,64.1l-2.2-6.1h0l-2.2,6.1H635.4z"/>
<path class="st0" d="M652.7,69.5l-3-10.9h0l-3,10.9h-1.8l-3.3-13h1.8l2.5,10.8h0l2.9-10.8h1.9l2.9,10.8h0l2.6-10.8h1.7l-3.5,13
	H652.7z"/>
</svg>
