<?xml version="1.0" encoding="utf-8"?>
<!-- Generator: Adobe Illustrator 24.0.1, SVG Export Plug-In . SVG Version: 6.00 Build 0)  -->
<svg version="1.1" id="Layer_1" xmlns="http://www.w3.org/2000/svg" xmlns:xlink="http://www.w3.org/1999/xlink" x="0px" y="0px"
	 viewBox="0 0 572 491" style="enable-background:new 0 0 572 491;" xml:space="preserve">
<style type="text/css">
	.st0{fill:#3F3163;}
</style>
<g>
	<path class="st0" d="M324.68,380.96l-21.04,21.04h-10.17l27.66-27.66C321.75,376.62,323.06,378.93,324.68,380.96z"/>
	<path class="st0" d="M304.01,288.99l-17.97,17.99v-10.19l17.86-17.85C303.94,282.29,303.97,285.64,304.01,288.99z"/>
	<path class="st0" d="M311.19,330.1l-25.15,25.15v-10.19l23.28-23.28C309.97,324.57,310.6,327.34,311.19,330.1z"/>
	<path class="st0" d="M322.14,67.62c-0.02,3.4-0.02,6.81-0.02,10.2l-36.08,36.07v-10.17L322.14,67.62z"/>
	<polygon class="st0" points="322.18,35.4 322.18,45.59 286.05,81.72 286.05,71.53 	"/>
	<path class="st0" d="M316.84,356.63l-30.8,30.8v-10.19l28.95-28.95C315.6,351.08,316.22,353.86,316.84,356.63z"/>
	<path class="st0" d="M313.95,343.42l-27.91,27.91v-10.17L312.2,335C312.78,337.81,313.36,340.61,313.95,343.42z"/>
	<path class="st0" d="M351.65,401.96c0.03,0.02,0.02,0.05-0.02,0.05h-9.91l4.26-4.26L351.65,401.96z"/>
	<path class="st0" d="M333.4,388.34l-13.66,13.66h-10.19l18.05-18.03c0.29,0.25,0.6,0.51,0.9,0.73L333.4,388.34z"/>
	<path class="st0" d="M303.63,166.59c-0.02,3.41-0.02,6.81-0.03,10.2l-17.55,17.55v-10.17L303.63,166.59z"/>
	<polygon class="st0" points="303.56,214.92 303.56,225.09 286.04,242.61 286.04,232.44 	"/>
	<polygon class="st0" points="303.56,198.82 303.56,209.01 286.04,226.53 286.04,216.35 	"/>
	<polygon class="st0" points="303.58,182.71 303.58,192.9 286.04,210.44 286.04,200.25 	"/>
	<path class="st0" d="M321.88,100.06c-0.54,6.05-2.43,7.85-8.93,8.93L321.88,100.06z"/>
	<path class="st0" d="M303.66,150.47c-0.02,3.4-0.02,6.79-0.03,10.19l-17.58,17.6v-10.19L303.66,150.47z"/>
	<path class="st0" d="M322.18,51.5v2.08c-0.02,2.7-0.02,5.41-0.02,8.13l-36.11,36.1V87.63l33.65-33.65L322.18,51.5z"/>
	<path class="st0" d="M319.94,369.61l-32.39,32.39h-1.5v-8.67l31.9-31.9C318.59,364.17,319.26,366.9,319.94,369.61z"/>
	<polygon class="st0" points="303.63,241.13 286.04,258.71 286.04,248.52 303.58,230.98 	"/>
	<path class="st0" d="M308.2,317l-22.16,22.16v-10.17l20.3-20.31C306.91,311.45,307.55,314.22,308.2,317z"/>
	<path class="st0" d="M303.84,273.1l-17.8,17.79v-10.17L303.75,263C303.77,266.37,303.8,269.73,303.84,273.1z"/>
	<path class="st0" d="M305.41,303.71l-19.37,19.35v-10.17l18.22-18.2C304.49,297.69,304.9,300.7,305.41,303.71z"/>
	<path class="st0" d="M286.04,33.45l28.77-28.77c-2.24-0.94-4.89-1.72-7.83-2.35l-20.95,20.95V33.45z"/>
	<path class="st0" d="M322.16,28.66v0.84l-3.3,3.32l-32.81,32.81V55.45l36.08-36.08C322.15,22.46,322.16,25.56,322.16,28.66z"/>
	<path class="st0" d="M303.7,257.13l-17.66,17.66v-10.17l17.6-17.6C303.66,250.4,303.69,253.76,303.7,257.13z"/>
	<path class="st0" d="M322.12,83.75c0,2.22-0.02,4.45-0.02,6.67v3.52l-15.88,15.88h-0.02l-2.51,2.51v0.02l-17.65,17.65v-10.19
		L322.12,83.75z"/>
	<path class="st0" d="M286.04,49.54l36.06-36.06c0-0.46,0-0.93-0.01-1.39c-0.02-2.06-1.27-3.84-3.43-5.35l-32.63,32.63V49.54z"/>
	<path class="st0" d="M303.67,134.35c0,3.41,0,6.81-0.02,10.2l-17.62,17.62v-10.17L303.67,134.35z"/>
	<polygon class="st0" points="303.69,118.25 303.69,128.44 286.04,146.07 286.04,135.9 	"/>
	<path class="st0" d="M286.04,17.36l15.93-15.93c-2.95-0.43-6.07-0.74-9.26-0.92l-6.67,6.67V17.36z"/>
	<path class="st0" d="M286.99,0.32c-0.31,0-0.63-0.01-0.94-0.01v0.95L286.99,0.32z"/>
	<polygon class="st0" points="342.61,395.23 335.82,402.01 325.65,402.01 336.78,390.87 	"/>
	<path class="st0" d="M286.04,55.45v10.17l-35.68,35.7c-0.34-2.4-0.37-5.58-0.37-9.82L286.04,55.45z"/>
	<path class="st0" d="M286.04,312.89v10.17l-29.97,29.99c0.95-4.31,1.86-8.64,2.78-12.95L286.04,312.89z"/>
	<path class="st0" d="M286.04,232.44l-17.61,17.61c-0.02,3.42-0.05,6.83-0.07,10.25l17.68-17.68V232.44z"/>
	<path class="st0" d="M286.04,248.52v10.19l-17.83,17.83c0.05-3.43,0.08-6.85,0.11-10.3L286.04,248.52z"/>
	<polygon class="st0" points="286.04,377.24 286.04,387.43 271.47,402.01 261.28,402.01 	"/>
	<path class="st0" d="M286.04,184.17l-17.52,17.52c0,3.39,0,6.79,0,10.18l17.52-17.52V184.17z"/>
	<path class="st0" d="M286.04,216.35l-17.55,17.55c-0.01,3.4-0.02,6.81-0.03,10.21l17.58-17.58V216.35z"/>
	<path class="st0" d="M286.04,328.99v10.17L251,374.2c0.02-0.02,0.02-0.03,0.02-0.05c1.18-4.47,2.25-8.95,3.3-13.44L286.04,328.99z"
		/>
	<path class="st0" d="M286.04,39.35v10.19l-36.05,36.05c-0.02-3.38-0.02-6.78-0.02-10.16L286.04,39.35z"/>
	<path class="st0" d="M286.04,23.27v10.17l-36.08,36.08c-0.02-3.38-0.02-6.76-0.03-10.16L286.04,23.27z"/>
	<path class="st0" d="M286.04,200.26l-17.52,17.52c0,3.4,0,6.79-0.01,10.19l17.53-17.53V200.26z"/>
	<path class="st0" d="M286.05,0.31v0.95l-32.81,32.81l-3.32,3.33c0-2.92,0-5.83,0.02-8.75h-0.02c0-0.5,0.02-0.98,0.02-1.46
		l26.49-26.49C279.57,0.45,282.81,0.31,286.05,0.31z"/>
	<path class="st0" d="M286.05,7.18v10.17l-36.11,36.11c-0.02-3.4-0.02-6.76-0.02-10.16l3.32-3.32L286.05,7.18z"/>
	<path class="st0" d="M269.74,1.47l-19.79,19.79c0.02-3.05,0.02-6.11,0.03-9.18c0-0.4,0.08-0.81,0.17-1.19l5.46-5.46
		C259.15,3.64,264.12,2.32,269.74,1.47z"/>
	<path class="st0" d="M231.44,393.76l-8.25,8.25h-2.74c-0.03,0-0.05-0.03-0.02-0.05L231.44,393.76z"/>
	<path class="st0" d="M286.04,135.9v10.17l-17.58,17.58c0-3.38-0.02-6.78-0.02-10.16L286.04,135.9z"/>
	<path class="st0" d="M286.04,296.79v10.19l-25.66,25.66c0.12-0.64,0.26-1.27,0.39-1.91c0.76-3.72,1.64-7.46,2.53-11.2
		L286.04,296.79z"/>
	<path class="st0" d="M286.04,168.07v10.19l-17.52,17.52c0-3.4,0-6.78-0.02-10.17L286.04,168.07z"/>
	<path class="st0" d="M286.04,119.8v10.19l-17.62,17.62c0-3.4,0-6.78-0.02-10.17L286.04,119.8z"/>
	<polygon class="st0" points="286.04,393.34 286.04,402.01 277.37,402.01 	"/>
	<path class="st0" d="M286.04,71.53v10.19l-27.23,27.23c-3.57-0.62-5.69-1.49-6.95-3.23L286.04,71.53z"/>
	<path class="st0" d="M286.04,87.63V97.8l-17.65,17.65v-5.38c-1.58-0.16-3.02-0.29-4.36-0.43L286.04,87.63z"/>
	<path class="st0" d="M286.04,103.72v10.17l-17.63,17.63c0-3.38-0.02-6.78-0.02-10.16L286.04,103.72z"/>
	<path class="st0" d="M286.04,280.71v10.17l-20.98,20.98c0.92-4.14,1.72-8.3,2.28-12.45L286.04,280.71z"/>
	<polygon class="st0" points="286.04,345.07 286.04,355.25 239.27,402.01 229.1,402.01 	"/>
	<path class="st0" d="M286.04,264.62v10.17l-18.08,18.1c0.05-0.93,0.08-1.85,0.09-2.78c0.03-2.53,0.06-5.06,0.09-7.6L286.04,264.62z
		"/>
	<path class="st0" d="M286.04,151.99v10.17l-17.55,17.55c0-3.4,0-6.78-0.02-10.16L286.04,151.99z"/>
	<polygon class="st0" points="286.04,361.16 286.04,371.33 255.37,402.01 245.2,402.01 	"/>
	<polygon class="st0" points="272.35,433.3 253.03,452.62 242.86,452.62 262.16,433.3 	"/>
	<polygon class="st0" points="224.08,433.3 204.76,452.62 194.58,452.62 213.91,433.3 	"/>
	<polygon class="st0" points="256.25,433.3 236.95,452.62 226.76,452.62 246.08,433.3 	"/>
	<polygon class="st0" points="127.53,433.3 108.23,452.62 103.51,452.62 103.51,447.14 117.36,433.3 	"/>
	<polygon class="st0" points="159.71,433.3 140.4,452.62 130.22,452.62 149.54,433.3 	"/>
	<polygon class="st0" points="143.63,433.3 124.31,452.62 114.14,452.62 133.44,433.3 	"/>
	<path class="st0" d="M468.58,452.62c0-0.16,0-0.3,0-0.46l-0.46,0.46C468.27,452.62,468.42,452.62,468.58,452.62z"/>
	<polygon class="st0" points="191.9,433.3 172.58,452.62 162.41,452.62 181.71,433.3 	"/>
	<polygon class="st0" points="175.81,433.3 156.5,452.62 146.31,452.62 165.63,433.3 	"/>
	<polygon class="st0" points="207.98,433.3 188.68,452.62 178.49,452.62 197.81,433.3 	"/>
	<polygon class="st0" points="240.17,433.3 220.85,452.62 210.68,452.62 229.99,433.3 	"/>
	<polygon class="st0" points="352.8,433.3 333.48,452.62 323.3,452.62 342.63,433.3 	"/>
	<polygon class="st0" points="465.42,433.3 446.12,452.62 435.93,452.62 455.25,433.3 	"/>
	<polygon class="st0" points="111.45,433.3 103.51,441.24 103.51,433.3 	"/>
	<polygon class="st0" points="449.34,433.3 430.02,452.62 419.85,452.62 439.15,433.3 	"/>
	<polygon class="st0" points="336.7,433.3 317.4,452.62 307.21,452.62 326.53,433.3 	"/>
	<polygon class="st0" points="433.25,433.3 413.94,452.62 403.75,452.62 423.07,433.3 	"/>
	<polygon class="st0" points="468.57,436.07 468.57,446.25 462.2,452.62 452.02,452.62 	"/>
	<polygon class="st0" points="368.89,433.3 349.57,452.62 339.4,452.62 358.71,433.3 	"/>
	<polygon class="st0" points="401.07,433.3 381.75,452.62 371.58,452.62 390.88,433.3 	"/>
	<polygon class="st0" points="384.97,433.3 365.67,452.62 355.48,452.62 374.8,433.3 	"/>
	<polygon class="st0" points="417.17,433.3 397.84,452.62 387.67,452.62 406.98,433.3 	"/>
	<polygon class="st0" points="288.43,433.3 269.12,452.62 258.95,452.62 278.26,433.3 	"/>
	<polygon class="st0" points="304.53,433.3 285.22,452.62 275.03,452.62 294.35,433.3 	"/>
	<polygon class="st0" points="320.62,433.3 301.3,452.62 291.13,452.62 310.43,433.3 	"/>
	<polygon class="st0" points="258.66,463.09 230.95,490.8 220.77,490.8 248.49,463.09 	"/>
	<polygon class="st0" points="419.55,463.09 391.84,490.8 381.67,490.8 409.38,463.09 	"/>
	<polygon class="st0" points="81.67,463.09 69.88,474.87 69.88,464.7 71.49,463.09 	"/>
	<polygon class="st0" points="403.47,463.09 375.76,490.8 365.57,490.8 393.29,463.09 	"/>
	<polygon class="st0" points="97.76,463.09 70.05,490.8 69.88,490.8 69.88,480.79 87.57,463.09 	"/>
	<polygon class="st0" points="242.56,463.09 214.85,490.8 204.68,490.8 232.39,463.09 	"/>
	<polygon class="st0" points="129.94,463.09 102.23,490.8 92.04,490.8 119.75,463.09 	"/>
	<polygon class="st0" points="387.38,463.09 359.67,490.8 349.49,490.8 377.2,463.09 	"/>
	<polygon class="st0" points="435.65,463.09 407.94,490.8 397.75,490.8 425.46,463.09 	"/>
	<polygon class="st0" points="290.83,463.09 263.12,490.8 252.95,490.8 280.66,463.09 	"/>
	<polygon class="st0" points="371.28,463.09 343.57,490.8 333.4,490.8 361.11,463.09 	"/>
	<polygon class="st0" points="451.74,463.09 424.02,490.8 413.85,490.8 441.56,463.09 	"/>
	<polygon class="st0" points="113.84,463.09 86.13,490.8 75.96,490.8 103.67,463.09 	"/>
	<path class="st0" d="M457.65,463.08l-27.71,27.71c3.39,0,6.79,0,10.18,0l27.71-27.71C464.43,463.08,461.04,463.08,457.65,463.08z"
		/>
	<polygon class="st0" points="306.93,463.09 279.22,490.8 269.03,490.8 296.74,463.09 	"/>
	<path class="st0" d="M473.74,463.08l-27.71,27.71c3.39,0,6.79,0,10.18,0l27.71-27.71C480.52,463.08,477.13,463.08,473.74,463.08z"
		/>
	<polygon class="st0" points="339.11,463.09 311.4,490.8 301.22,490.8 328.93,463.09 	"/>
	<polygon class="st0" points="274.75,463.09 247.04,490.8 236.86,490.8 264.57,463.09 	"/>
	<path class="st0" d="M502.22,490.8c0-2.7,0-5.33,0-7.92l-7.92,7.92C496.94,490.8,499.58,490.8,502.22,490.8z"/>
	<polygon class="st0" points="194.29,463.09 166.58,490.8 156.41,490.8 184.12,463.09 	"/>
	<polygon class="st0" points="146.03,463.09 118.32,490.8 108.14,490.8 135.85,463.09 	"/>
	<polygon class="st0" points="178.21,463.09 150.5,490.8 140.31,490.8 168.02,463.09 	"/>
	<path class="st0" d="M502.22,466.79l-24.01,24.01c3.39,0,6.79,0,10.18,0l13.83-13.83C502.22,473.52,502.22,470.14,502.22,466.79z"
		/>
	<polygon class="st0" points="162.11,463.09 134.4,490.8 124.23,490.8 151.94,463.09 	"/>
	<polygon class="st0" points="323.01,463.09 295.3,490.8 285.13,490.8 312.84,463.09 	"/>
	<polygon class="st0" points="355.2,463.09 327.49,490.8 317.3,490.8 345.01,463.09 	"/>
	<polygon class="st0" points="226.48,463.09 198.77,490.8 188.58,490.8 216.29,463.09 	"/>
	<polygon class="st0" points="210.39,463.09 182.68,490.8 172.5,490.8 200.21,463.09 	"/>
	<path class="st0" d="M489.83,463.08l-27.71,27.71c3.39,0,6.79,0,10.18,0l27.71-27.71C496.61,463.08,493.22,463.08,489.83,463.08z"
		/>
	<polygon class="st0" points="199.31,409.79 186.27,422.83 178.49,422.83 178.49,420.46 189.14,409.79 	"/>
	<polygon class="st0" points="215.41,409.79 202.37,422.83 192.18,422.83 205.22,409.79 	"/>
	<polygon class="st0" points="183.23,409.79 178.49,414.53 178.49,409.79 	"/>
	<polygon class="st0" points="231.49,409.79 218.45,422.83 208.28,422.83 221.32,409.79 	"/>
	<polygon class="st0" points="393.6,414.5 393.6,422.83 385.27,422.83 	"/>
	<polygon class="st0" points="263.68,409.79 250.64,422.83 240.45,422.83 253.49,409.79 	"/>
	<polygon class="st0" points="295.86,409.79 282.82,422.83 272.63,422.83 285.69,409.79 	"/>
	<polygon class="st0" points="247.59,409.79 234.54,422.83 224.37,422.83 237.41,409.79 	"/>
	<polygon class="st0" points="376.31,409.79 363.26,422.83 353.09,422.83 366.13,409.79 	"/>
	<polygon class="st0" points="279.76,409.79 266.72,422.83 256.55,422.83 269.59,409.79 	"/>
	<polygon class="st0" points="311.95,409.79 298.9,422.83 288.72,422.83 301.77,409.79 	"/>
	<polygon class="st0" points="392.4,409.79 379.36,422.83 369.17,422.83 382.21,409.79 	"/>
	<polygon class="st0" points="328.03,409.79 314.99,422.83 304.82,422.83 317.86,409.79 	"/>
	<polygon class="st0" points="360.21,409.79 347.17,422.83 337,422.83 350.04,409.79 	"/>
	<polygon class="st0" points="344.13,409.79 331.09,422.83 320.9,422.83 333.94,409.79 	"/>
	<path class="st0" d="M18.41,284.98l-8.25,8.25c-1.29-2.05-2.59-4.12-3.92-6.25l2-2H18.41z"/>
	<path class="st0" d="M82.78,284.98l-33.01,33.01c-3.38,0-6.78,0-10.16-0.02l33-33H82.78z"/>
	<path class="st0" d="M160.69,284.98c-1.35,2.25-2.51,4.28-3.68,6.22l-26.92,26.92c-3.4,0-6.78,0-10.17-0.02l33.14-33.12H160.69z"/>
	<path class="st0" d="M147.15,284.98l-33.12,33.12c-3.4-0.02-6.78-0.02-10.17-0.02l33.11-33.11H147.15z"/>
	<path class="st0" d="M66.69,284.98L33.7,317.96h-3.47c-1.63,0-3.85-0.6-5.07-1.63l31.35-31.35H66.69z"/>
	<path class="st0" d="M146.84,307.28c-1.32,2.11-2.62,4.22-3.88,6.36c-1.72,2.96-3.66,4.3-6.93,4.47L146.84,307.28z"/>
	<path class="st0" d="M98.88,284.98l-33.04,33.04c-3.4,0-6.78-0.02-10.16-0.02l33.01-33.03H98.88z"/>
	<path class="st0" d="M50.61,284.98l-27.91,27.91c-1.35-2.05-2.68-4.11-4-6.17l21.72-21.74H50.61z"/>
	<path class="st0" d="M34.51,284.98L16.38,303.1c-1.3-2.06-2.62-4.12-3.94-6.23l11.89-11.89H34.51z"/>
	<path class="st0" d="M114.96,284.98L81.9,318.04c-3.4,0-6.78-0.02-10.16-0.02l33.04-33.04H114.96z"/>
	<path class="st0" d="M131.05,284.98l-33.09,33.09c-3.4,0-6.78-0.02-10.17-0.02l33.08-33.08H131.05z"/>
	<path class="st0" d="M139.41,322.15c-1.5,2.53-2.73,4.68-4.03,6.78l-16.87,16.87c-3.4-0.02-6.78-0.02-10.17-0.02l23.63-23.63
		H139.41z"/>
	<path class="st0" d="M126.06,322.15l-23.62,23.62c-3.4,0-6.78,0-10.17-0.02l23.62-23.6H126.06z"/>
	<path class="st0" d="M77.79,322.15l-23.54,23.54h-7.91c-0.59-0.02-1.29-0.12-1.94-0.33l23.21-23.21H77.79z"/>
	<path class="st0" d="M28.32,322.15c0.16,0.25,0.31,0.49,0.46,0.74l0.74-0.74C29.12,322.15,28.72,322.15,28.32,322.15z"/>
	<path class="st0" d="M93.88,322.15l-23.57,23.57c-3.4,0-6.78-0.02-10.16-0.02l23.55-23.55H93.88z"/>
	<path class="st0" d="M61.71,322.15L41.3,342.55c-1.35-2.03-2.68-4.09-4.02-6.17l14.23-14.23H61.71z"/>
	<path class="st0" d="M45.61,322.15l-10.62,10.62c-1.29-2.05-2.59-4.12-3.92-6.25l4.37-4.37H45.61z"/>
	<path class="st0" d="M109.98,322.15l-23.6,23.6c-3.4,0-6.78-0.02-10.17-0.02l23.59-23.59H109.98z"/>
	<path class="st0" d="M81.57,350.55l-17.21,17.21c-2.22-1.18-4.26-2.54-6.11-4.08l13.15-13.13H81.57z"/>
	<path class="st0" d="M118.09,352.12l-16.55,16.55C109.31,365.08,115.27,359.19,118.09,352.12z"/>
	<path class="st0" d="M113.75,350.55l-21.03,21.01c-2.82,0.59-5.8,0.91-8.85,0.91c-0.73,0-1.44-0.05-2.16-0.08l21.86-21.85H113.75z"
		/>
	<path class="st0" d="M65.48,350.55l-10.27,10.27c-1.69-1.81-3.13-3.78-4.28-5.91l4.37-4.36H65.48z"/>
	<path class="st0" d="M97.67,350.55l-21.27,21.26c-2.79-0.48-5.46-1.23-7.97-2.2l19.06-19.06H97.67z"/>
	<path class="st0" d="M49.04,350.55c0.03,0.09,0.07,0.17,0.1,0.25l0.25-0.25H49.04z"/>
	<path class="st0" d="M84.67,19.71c-1.6,0.01-3.16,0.17-4.68,0.44L56.7,43.44c-0.02,0.12-0.05,0.25-0.07,0.37
		c-0.21,1.39-0.33,2.82-0.33,4.27c0,0.89,0.03,1.76,0.13,2.62c0.02,0.3,0.05,0.59,0.1,0.89c0.05,0.46,0.13,0.94,0.21,1.39
		c0,0,0.04,0.21,0.09,0.49l33.24-33.24C87.72,19.78,85.79,19.71,84.67,19.71z"/>
	<path class="st0" d="M94.69,21.54L58.25,57.98c0.94,2.27,1.96,4.07,1.96,4.07c0.43,0.75,0.96,1.62,1.59,2.56l39.5-39.5
		C99.28,23.64,97.06,22.44,94.69,21.54z"/>
	<path class="st0" d="M249.93,53.47v0.02l-0.08,0.08c-0.48-0.08-0.81-0.14-0.81-0.14c-2.93-0.4-6.25-0.17-9.66,0.42l10.53-10.53
		C249.92,46.71,249.92,50.07,249.93,53.47z"/>
	<path class="st0" d="M112.9,45.7L87.64,70.94l-7.01,7.01l-1.58,1.6c-0.92-0.43-1.8-0.88-2.65-1.38c-1.29-0.71-2.54-1.49-3.78-2.37
		l38.33-38.33C111.99,40.04,112.65,42.8,112.9,45.7z"/>
	<path class="st0" d="M63.33,29.38c-1.42,1.62-2.55,3.35-3.42,4.93l10.83-10.83C67.77,25.15,65.23,27.22,63.33,29.38z"/>
	<path class="st0" d="M249.93,27.2c0,0.48-0.02,0.96-0.02,1.46v8.75L231.6,55.72c-6.39,1.91-12.22,4.42-15.31,5.77L215.14,62
		L249.93,27.2z"/>
	<path class="st0" d="M249.93,28.66c-0.02,2.92-0.02,5.83-0.02,8.75v-8.75H249.93z"/>
	<path class="st0" d="M80.7,61.56l0.19,0.05l28.08-28.08c-1.2-2.01-2.62-3.87-4.26-5.51c-0.02-0.02-0.02-0.02-0.03-0.03
		c-0.06-0.06-0.12-0.11-0.18-0.17L64.34,67.98c1.18,1.45,2.84,3.27,5,5.18l11.27-11.27L80.7,61.56z"/>
	<path class="st0" d="M179.36,59.68L151.24,87.8c-4.23,0.74-8.16,1.24-11.72,1.55l22.92-22.92
		C167.91,64.69,173.56,62.37,179.36,59.68z"/>
	<path class="st0" d="M137.85,69.02l-20.31,20.3c-1.75-0.16-3.07-0.31-3.72-0.39c-1.77-0.23-3.52-0.5-5.26-0.79l21.15-21.15
		c2.25,0.73,4.81,1.4,7.72,1.95C137.57,68.97,137.71,68.99,137.85,69.02z"/>
	<path class="st0" d="M154.42,68.54l-21.21,21.21c-3.15,0.11-5.92,0.11-8.25,0.03c-0.65-0.02-1.29-0.05-1.89-0.08l20.13-20.13
		C146.82,69.68,150.56,69.31,154.42,68.54z"/>
	<path class="st0" d="M125.43,65.34l-21.82,21.82c-2.67-0.57-5.38-1.27-8.14-2.03l23.6-23.6C120.71,62.88,122.77,64.16,125.43,65.34
		z"/>
	<path class="st0" d="M239.23,32L203.8,67.42c-7.68,3.94-13.12,7.26-20.78,10.59l39.63-39.62c5.44-2.42,10.93-4.59,16.41-6.34
		L239.23,32z"/>
	<path class="st0" d="M211.5,43.62l-38.18,38.19c-2.29,0.81-4.76,1.61-7.51,2.45c-2.93,0.9-5.41,1.57-7.15,2.02l32.19-32.19
		C197.62,50.67,204.52,47.06,211.5,43.62z"/>
	<path class="st0" d="M116.1,58.57L90.96,83.72l-0.09,0.09c-1.8-0.53-3.52-1.05-5.1-1.6c-0.17-0.06-0.33-0.11-0.48-0.17
		c-0.71-0.25-1.43-0.48-2.09-0.73l1.85-1.86l0.25-0.23l3.57-3.58l24.17-24.17c0.05,1.35,0.36,2.67,0.96,3.86
		C114.53,56.38,115.23,57.49,116.1,58.57z"/>
	<path class="st0" d="M249.93,53.47v0.02h-0.02V43.31C249.92,46.71,249.92,50.07,249.93,53.47z"/>
	<path class="st0" d="M249.93,28.66c-0.02,2.92-0.02,5.83-0.02,8.75v-8.75H249.93z"/>
	<polygon class="st0" points="85.28,175.77 85.28,185.94 80.63,190.59 80.63,180.42 	"/>
	<polygon class="st0" points="85.28,159.67 85.28,169.86 80.63,174.51 80.63,164.32 	"/>
	<polygon class="st0" points="85.28,191.85 85.28,202.03 80.63,206.69 80.63,196.5 	"/>
	<polygon class="st0" points="85.28,143.57 85.28,153.76 80.63,158.41 80.63,148.23 	"/>
	<polygon class="st0" points="85.28,127.49 85.28,137.67 80.63,142.32 80.63,132.15 	"/>
	<polygon class="st0" points="85.28,240.12 85.28,250.3 80.63,254.96 80.63,244.77 	"/>
	<polygon class="st0" points="85.28,207.94 85.28,218.11 80.63,222.77 80.63,212.59 	"/>
	<polygon class="st0" points="85.28,256.22 85.28,261.95 80.63,261.95 80.63,260.87 	"/>
	<polygon class="st0" points="85.28,95.32 85.28,105.49 80.63,110.14 80.63,99.97 	"/>
	<polygon class="st0" points="85.28,224.04 85.28,234.21 80.63,238.86 80.63,228.69 	"/>
	<polygon class="st0" points="85.28,111.4 85.28,121.59 80.63,126.24 80.63,116.05 	"/>
	<polygon class="st0" points="73.77,106.82 70.21,120.58 63.71,127.06 67.28,113.32 	"/>
	<polygon class="st0" points="56.86,172.01 53.29,185.75 46.79,192.25 50.36,178.49 	"/>
	<polygon class="st0" points="51.21,193.74 47.64,207.48 41.16,213.97 44.73,200.22 	"/>
	<polygon class="st0" points="68.13,128.55 64.56,142.3 58.06,148.78 61.63,135.04 	"/>
	<polygon class="st0" points="34.31,258.92 33.52,261.95 31.28,261.95 	"/>
	<polygon class="st0" points="62.48,150.27 58.93,164.03 52.44,170.51 56,156.77 	"/>
	<polygon class="st0" points="45.58,215.46 42.02,229.2 35.52,235.7 39.08,221.96 	"/>
	<path class="st0" d="M90.87,83.82l-21.52,21.52l3.57-13.75l6.5-6.48l3.78-3.78c0.67,0.25,1.38,0.48,2.09,0.73
		c0.16,0.06,0.31,0.11,0.48,0.17C87.35,82.76,89.07,83.29,90.87,83.82z"/>
	<polygon class="st0" points="39.94,237.19 36.37,250.94 29.89,257.42 33.46,243.68 	"/>
	<path class="st0" d="M79.05,79.55l-4.06,4.05l1.41-5.43C77.25,78.67,78.14,79.12,79.05,79.55z"/>
	<polygon class="st0" points="80.7,61.56 80.62,61.88 80.89,61.61 	"/>
	<polygon class="st0" points="120.79,198.7 116.97,202.51 114.88,194.43 118.7,190.62 	"/>
	<polygon class="st0" points="94.27,96.5 90.46,100.31 88.36,92.23 92.18,88.42 	"/>
	<polygon class="st0" points="137.2,261.95 132.39,261.95 131.45,258.33 135.26,254.5 	"/>
	<polygon class="st0" points="114.15,173.14 110.34,176.97 108.24,168.88 112.06,165.07 	"/>
	<polygon class="st0" points="117.47,185.92 113.66,189.74 111.56,181.66 115.38,177.84 	"/>
	<polygon class="st0" points="134.05,249.81 130.23,253.62 128.14,245.54 131.95,241.73 	"/>
	<polygon class="st0" points="100.89,122.05 97.08,125.86 94.99,117.79 98.8,113.97 	"/>
	<polygon class="st0" points="107.53,147.61 103.72,151.42 101.62,143.34 105.44,139.53 	"/>
	<polygon class="st0" points="124.11,211.48 120.29,215.29 118.18,207.21 122,203.4 	"/>
	<polygon class="st0" points="110.85,160.38 107.03,164.2 104.93,156.12 108.74,152.29 	"/>
	<polygon class="st0" points="104.21,134.83 100.4,138.64 98.3,130.56 102.12,126.75 	"/>
	<polygon class="st0" points="130.73,237.03 126.91,240.85 124.82,232.77 128.63,228.95 	"/>
	<polygon class="st0" points="127.41,224.25 123.6,228.07 121.5,219.99 125.32,216.18 	"/>
	<polygon class="st0" points="97.59,109.27 93.76,113.09 91.67,105.01 95.48,101.19 	"/>
	<polygon class="st0" points="0.33,261.95 0.33,270.89 9.27,261.95 	"/>
	<polygon class="st0" points="154.09,261.95 137.34,278.7 127.17,278.7 136.89,268.98 136.92,268.95 138.58,267.27 138.61,267.24 
		143.92,261.95 	"/>
	<polygon class="st0" points="57.54,261.95 40.79,278.7 30.62,278.7 47.37,261.95 	"/>
	<polygon class="st0" points="41.46,261.95 24.72,278.7 14.53,278.7 27.82,265.41 31.28,261.95 	"/>
	<polygon class="st0" points="121.91,261.95 105.16,278.7 94.99,278.7 111.72,261.95 	"/>
	<polygon class="st0" points="137.99,261.95 137.36,262.57 133.56,266.37 133.56,266.4 121.26,278.7 111.07,278.7 127.82,261.95 	
		"/>
	<polygon class="st0" points="165.32,272.71 165.32,278.7 159.34,278.7 	"/>
	<polygon class="st0" points="25.36,261.95 8.61,278.7 0.33,278.7 0.33,276.81 15.17,261.95 	"/>
	<polygon class="st0" points="105.81,261.95 89.06,278.7 78.89,278.7 95.64,261.95 	"/>
	<polygon class="st0" points="73.63,261.95 56.89,278.7 46.71,278.7 63.45,261.95 	"/>
	<polygon class="st0" points="89.72,261.95 85.28,266.39 80.63,271.04 72.99,278.7 62.8,278.7 79.55,261.95 	"/>
	<polygon class="st0" points="165.32,261.95 165.32,266.79 153.43,278.7 143.24,278.7 159.99,261.95 	"/>
	<path class="st0" d="M549.39,284.98l-33.01,33.03c-3.4,0-6.81,0.02-10.2,0.02l33.04-33.04H549.39z"/>
	<path class="st0" d="M565.48,284.98l-33,33c-3.4,0.02-6.79,0.02-10.2,0.02l33.01-33.01H565.48z"/>
	<path class="st0" d="M452.86,284.98l-25.59,25.59c-1.29-2.11-2.59-4.2-3.92-6.26l19.32-19.32H452.86z"/>
	<path class="st0" d="M436.77,284.98l-15.72,15.72c-1.32-2.05-2.65-4.11-3.94-6.17c-0.02-0.02-0.02-0.03-0.03-0.05l9.51-9.51H436.77
		z"/>
	<path class="st0" d="M468.94,284.98l-33.11,33.11c-2.9-0.2-4.75-1.38-6.33-3.85l29.26-29.26H468.94z"/>
	<path class="st0" d="M501.12,284.98l-33.09,33.11c-3.4,0-6.81,0-10.2,0.02l33.12-33.12H501.12z"/>
	<path class="st0" d="M485.04,284.98L451.9,318.1c-3.4,0.02-6.79,0.02-10.19,0.02l33.14-33.14H485.04z"/>
	<path class="st0" d="M533.31,284.98l-33.06,33.04c-3.4,0-6.79,0.02-10.19,0.02l33.06-33.06H533.31z"/>
	<path class="st0" d="M420.67,284.98l-5.83,5.83c-1.07-1.83-2.19-3.72-3.43-5.83H420.67z"/>
	<path class="st0" d="M541.86,317.96c1.94-0.01,4.72-0.84,5.67-2.25c4.17-6.24,8.19-12.58,12.35-19.21l-21.47,21.47
		C539.56,317.96,540.71,317.96,541.86,317.96z"/>
	<path class="st0" d="M517.21,284.98l-33.08,33.08c-3.4,0-6.79,0.02-10.19,0.02l33.09-33.09H517.21z"/>
	<path class="st0" d="M480.04,322.15l-23.65,23.65h-5.58c-1.52,0.02-2.67-0.31-3.61-0.99l22.67-22.66H480.04z"/>
	<path class="st0" d="M463.95,322.15l-19.31,19.32c-1.27-2.12-2.57-4.2-3.91-6.28l13.04-13.04H463.95z"/>
	<path class="st0" d="M528.32,322.15l-23.57,23.57c-3.4,0-6.79,0.02-10.19,0.02l23.59-23.59H528.32z"/>
	<path class="st0" d="M447.87,322.15l-9.46,9.44c-0.56-0.87-1.12-1.75-1.67-2.64c-0.74-1.18-1.46-2.39-2.2-3.66l3.15-3.15H447.87z"
		/>
	<path class="st0" d="M512.22,322.15l-23.59,23.59c-3.4,0.02-6.79,0.02-10.2,0.03l23.62-23.62H512.22z"/>
	<path class="st0" d="M496.14,322.15l-23.62,23.62c-3.41,0-6.81,0.02-10.2,0.02l23.63-23.63H496.14z"/>
	<path class="st0" d="M543.78,322.15c-0.37,0.57-0.71,1.13-1.07,1.71l-21.83,21.83c-3.41,0.02-6.81,0.02-10.2,0.02l23.55-23.55
		H543.78z"/>
	<path class="st0" d="M529.79,344.07c0.9-1.35,1.79-2.71,2.68-4.08l-5.57,5.57C528.07,345.34,529.29,344.82,529.79,344.07z"/>
	<path class="st0" d="M499.91,350.55l-20.93,20.93c-2.7-0.59-5.29-1.43-7.69-2.48l18.45-18.45H499.91z"/>
	<path class="st0" d="M467.73,350.55l-9.15,9.15c-1.61-1.91-2.96-3.99-3.99-6.2l2.96-2.95H467.73z"/>
	<path class="st0" d="M483.83,350.55l-16.45,16.45c-2.16-1.26-4.12-2.7-5.89-4.3l12.16-12.16H483.83z"/>
	<path class="st0" d="M523.05,350.55h-1.13l-19.55,19.55C512.45,366.57,520.19,359.38,523.05,350.55z"/>
	<path class="st0" d="M516,350.55l-21.48,21.46c-2.05,0.31-4.16,0.47-6.31,0.47c-1.4,0-2.76-0.09-4.11-0.22l21.72-21.71H516z"/>
	<path class="st0" d="M357.71,42.22L343.34,56.6c-2.56-0.84-5.26-1.61-7.95-2.22l15.38-15.4C353.09,40.04,355.4,41.12,357.71,42.22z
		"/>
	<path class="st0" d="M492.37,20.2l-33.71,33.71c0.26-0.88,0.42-1.81,0.42-2.74v-3.09c0-1.81,0.19-3.57,0.5-5.27l22.61-22.61
		c2.28-0.43,4.14-0.5,5.24-0.5C489.12,19.72,490.77,19.89,492.37,20.2z"/>
	<path class="st0" d="M515.62,45.22l-22.61,22.61l-10.47,10.47v0.02l-7.16,7.16c-4.45,1.19-8.73,2.14-13.03,2.84l24.75-24.75
		l1.19-1.19l0.22-0.22l0.12-0.14l24.9-24.9c0.62,1.41,0.92,2.39,0.96,2.54c0.06,0.22,0.12,0.47,0.12,0.47
		c0.19,0.6,0.36,1.23,0.48,1.83c0.14,0.62,0.25,1.24,0.34,1.86C515.53,44.27,515.58,44.75,515.62,45.22z"/>
	<path class="st0" d="M368.46,47.57l-13.54,13.54c-1.83-0.81-4.33-1.86-7.23-2.96l13.99-13.97
		C363.95,45.29,366.21,46.43,368.46,47.57z"/>
	<path class="st0" d="M426.9,69.58l-16.02,16.02c-1.35-0.36-2.9-0.81-4.62-1.33c-1.12-0.34-2.17-0.68-3.21-1.01l14.7-14.7
		C420.87,69.17,423.93,69.53,426.9,69.58z"/>
	<path class="st0" d="M447.73,64.85l-23.51,23.51c-2.71-0.42-5.6-0.95-8.61-1.58l17.62-17.6c0.48-0.08,0.96-0.14,1.43-0.23
		C440.21,67.87,444.44,66.44,447.73,64.85z"/>
	<path class="st0" d="M412.98,67.41l-14.34,14.36c-2.71-0.96-5.15-1.89-7.38-2.81l14.02-14.02
		C407.89,65.89,410.45,66.72,412.98,67.41z"/>
	<path class="st0" d="M379.11,53.02l-13.21,13.2c-2.09-1.04-4.36-2.14-6.88-3.29l13.35-13.35
		C374.63,50.74,376.88,51.88,379.11,53.02z"/>
	<path class="st0" d="M503.71,24.95l-64.79,64.8c-2.85-0.11-6.02-0.33-9.47-0.71l67.56-67.56
		C499.46,22.39,501.72,23.58,503.71,24.95z"/>
	<path class="st0" d="M335.03,32.72l-12.85,12.87V35.4l5.15-5.15l5.71,1.8C333.7,32.27,334.37,32.49,335.03,32.72z"/>
	<path class="st0" d="M401.01,63.28l-13.86,13.88c-2.42-1.12-4.65-2.22-6.82-3.36l13.58-13.57
		C396.29,61.31,398.67,62.33,401.01,63.28z"/>
	<path class="st0" d="M389.87,58.35l-13.41,13.4c-2.11-1.13-4.28-2.3-6.64-3.54L383.04,55C385.33,56.15,387.61,57.26,389.87,58.35z"
		/>
	<path class="st0" d="M515.61,51.14c-0.02,0.16-0.03,0.29-0.05,0.45c-0.05,0.45-0.14,0.93-0.22,1.4c0,0-0.11,0.57-0.23,1.15
		c-0.81,3.64-3.23,7.92-3.23,7.92c-0.82,1.43-1.97,3.24-3.57,5.21c-1.32,1.67-3.38,4.08-6.3,6.53c-2.09,1.77-4.17,3.16-6.33,4.37
		c-1.37,0.78-2.78,1.47-4.23,2.11c-0.02,0-0.02,0-0.03,0c-0.36,0.16-0.73,0.31-1.1,0.47c-1.13,0.45-2.31,0.88-3.52,1.3
		c-0.16,0.06-0.31,0.12-0.47,0.17h-0.02c-0.85,0.28-1.72,0.57-2.64,0.85l3.12-3.13l0.15-0.16l3.44-3.44l1.05-1.05l2.76-2.76
		L515.61,51.14z"/>
	<path class="st0" d="M511.54,33.21l-56.03,56.03c-2.08,0.2-5.04,0.43-8.39,0.54c-0.74,0.02-1.55,0.03-2.37,0.05l62.24-62.24
		c0.64,0.59,1.23,1.19,1.77,1.8C509.85,30.64,510.78,31.96,511.54,33.21z"/>
	<path class="st0" d="M346.68,37.19L330.37,53.5c-2.57-0.31-5.07-0.39-7.3-0.08c-0.02,0-0.37,0.06-0.88,0.16V51.5l17.23-17.23
		C341.82,35.19,344.26,36.15,346.68,37.19z"/>
	<path class="st0" d="M467.41,27.98c-0.02,0.02-0.02,0.02-0.03,0.03c-1.52,1.53-2.85,3.24-3.99,5.08l9.19-9.19
		C470.7,25.06,468.96,26.43,467.41,27.98z"/>
	<polygon class="st0" points="491.46,204.02 491.46,214.19 486.8,218.84 486.8,208.67 	"/>
	<polygon class="st0" points="491.46,171.83 491.46,182.01 486.8,186.67 486.8,176.48 	"/>
	<polygon class="st0" points="491.46,236.19 491.46,246.37 486.8,251.02 486.8,240.85 	"/>
	<polygon class="st0" points="491.46,220.1 491.46,230.29 486.8,234.94 486.8,224.75 	"/>
	<path class="st0" d="M491.46,80.37v5.1l-4.65,4.65v-8.08c1.21-0.42,2.39-0.85,3.52-1.3c0.37-0.14,0.74-0.29,1.1-0.45h0.02
		L491.46,80.37z"/>
	<polygon class="st0" points="491.46,187.92 491.46,198.09 486.8,202.75 486.8,192.57 	"/>
	<polygon class="st0" points="491.46,252.28 491.46,261.95 486.81,261.95 486.81,256.93 	"/>
	<polygon class="st0" points="491.46,107.47 491.46,117.65 486.8,122.3 486.8,112.13 	"/>
	<polygon class="st0" points="491.46,139.65 491.46,149.82 486.8,154.47 486.8,144.3 	"/>
	<polygon class="st0" points="491.46,123.55 491.46,133.74 486.8,138.39 486.8,128.21 	"/>
	<polygon class="st0" points="491.46,155.75 491.46,165.92 486.8,170.57 486.8,160.4 	"/>
	<polygon class="st0" points="491.46,91.38 491.46,101.57 486.8,106.22 486.8,96.03 	"/>
	<polygon class="st0" points="529.48,208.36 525.66,212.17 523.56,204.1 527.37,200.28 	"/>
	<polygon class="st0" points="532.78,221.14 528.97,224.95 526.87,216.87 530.69,213.06 	"/>
	<polygon class="st0" points="522.84,182.81 519.03,186.62 516.93,178.54 520.75,174.73 	"/>
	<polygon class="st0" points="526.16,195.58 522.35,199.4 520.25,191.32 524.07,187.5 	"/>
	<polygon class="st0" points="502.96,106.16 499.13,109.97 497.04,101.89 500.85,98.08 	"/>
	<polygon class="st0" points="506.27,118.93 502.45,122.75 500.36,114.67 504.17,110.85 	"/>
	<polygon class="st0" points="536.1,233.91 532.29,237.73 530.19,229.65 534.01,225.82 	"/>
	<polygon class="st0" points="499.64,93.38 495.83,97.19 493.72,89.11 497.55,85.3 	"/>
	<polygon class="st0" points="512.9,144.49 509.09,148.3 506.99,140.21 510.81,136.39 	"/>
	<polygon class="st0" points="516.22,157.25 512.39,161.08 510.3,152.99 514.11,149.17 	"/>
	<polygon class="st0" points="519.52,170.03 515.71,173.84 513.62,165.76 517.43,161.95 	"/>
	<polygon class="st0" points="509.58,131.71 505.77,135.53 503.68,127.45 507.49,123.62 	"/>
	<path class="st0" d="M496.33,80.61l-3.81,3.81l-1.05,1.05v-5.19c1.46-0.64,2.87-1.33,4.23-2.11L496.33,80.61z"/>
	<polygon class="st0" points="542.74,259.46 540.25,261.95 538.57,261.95 536.82,255.19 540.63,251.38 	"/>
	<polygon class="st0" points="539.42,246.69 535.6,250.51 533.51,242.41 537.33,238.6 	"/>
	<path class="st0" d="M491.46,80.28v0.09l-0.03-0.08v-0.02C491.45,80.28,491.45,80.28,491.46,80.28z"/>
	<polygon class="st0" points="470.04,144.97 466.48,158.72 459.99,165.21 463.56,151.47 	"/>
	<polygon class="st0" points="464.41,166.69 460.85,180.45 454.35,186.93 457.92,173.19 	"/>
	<polygon class="st0" points="475.69,123.24 472.12,136.98 465.62,143.48 469.19,129.74 	"/>
	<polygon class="st0" points="441.87,253.61 439.7,261.95 434.9,261.95 435.38,260.11 	"/>
	<polygon class="st0" points="447.5,231.88 443.93,245.62 437.45,252.12 441.01,238.38 	"/>
	<path class="st0" d="M486.35,82.22l-2.95,11.32l-6.48,6.5l3.55-13.75l3.21-3.21h0.02c0.9-0.28,1.78-0.56,2.64-0.85H486.35z"/>
	<polygon class="st0" points="458.77,188.43 455.2,202.17 448.72,208.67 452.29,194.92 	"/>
	<polygon class="st0" points="481.33,101.52 477.76,115.26 471.27,121.76 474.83,108 	"/>
	<polygon class="st0" points="453.14,210.16 449.57,223.9 443.08,230.39 446.64,216.64 	"/>
	<polygon class="st0" points="540.25,261.95 538.93,263.26 538.93,263.29 523.5,278.7 513.33,278.7 530.07,261.95 	"/>
	<polygon class="st0" points="571.77,261.95 571.77,262.62 555.68,278.7 545.5,278.7 562.24,261.95 	"/>
	<polygon class="st0" points="524.14,261.95 507.41,278.7 497.23,278.7 513.97,261.95 	"/>
	<polygon class="st0" points="443.7,261.95 438.29,267.35 438.28,267.37 436.4,269.26 426.97,278.7 416.78,278.7 433.53,261.95 	"/>
	<polygon class="st0" points="427.62,261.95 410.87,278.7 406.76,278.7 406.76,272.62 417.43,261.95 	"/>
	<polygon class="st0" points="508.07,261.95 491.32,278.7 481.15,278.7 488.76,271.07 497.88,261.95 	"/>
	<polygon class="st0" points="459.79,261.95 443.05,278.7 432.87,278.7 449.62,261.95 	"/>
	<polygon class="st0" points="491.97,261.95 491.46,262.47 491.46,261.95 	"/>
	<polygon class="st0" points="411.52,261.95 406.76,266.71 406.76,261.95 	"/>
	<polygon class="st0" points="491.46,261.95 491.46,262.47 486.81,267.12 475.23,278.7 465.05,278.7 481.8,261.95 	"/>
	<polygon class="st0" points="556.34,261.95 539.6,278.7 529.42,278.7 540.14,267.97 546.15,261.95 	"/>
	<polygon class="st0" points="475.89,261.95 459.14,278.7 448.95,278.7 465.7,261.95 	"/>
	<polygon class="st0" points="571.76,278.69 571.76,268.52 561.59,278.69 	"/>
</g>
</svg>
